Mina-Regular.ufo
<glyph name="exclam" format="1">
  <advance width="269"/>
  <unicode hex="0021"/>
  <outline>
    <contour>
      <point x="82" y="23" type="curve" smooth="yes"/>
      <point x="82" y="80" type="line" smooth="yes"/>
      <point x="82" y="95"/>
      <point x="90" y="105"/>
      <point x="106" y="105" type="curve" smooth="yes"/>
      <point x="161" y="105" type="line" smooth="yes"/>
      <point x="176" y="105"/>
      <point x="184" y="94"/>
      <point x="184" y="80" type="curve" smooth="yes"/>
      <point x="184" y="23" type="line" smooth="yes"/>
      <point x="184" y="8"/>
      <point x="175" y="0"/>
      <point x="161" y="0" type="curve" smooth="yes"/>
      <point x="106" y="0" type="line" smooth="yes"/>
      <point x="92" y="0"/>
      <point x="82" y="9"/>
    </contour>
    <contour>
      <point x="88" y="731" type="line"/>
      <point x="177" y="731" type="line"/>
      <point x="170" y="196" type="line"/>
      <point x="95" y="196" type="line"/>
    </contour>
  </outline>
</glyph>
<glyph name="quotedbl" format="1">
  <advance width="380"/>
  <unicode hex="0022"/>
  <outline>
    <contour>
      <point x="85" y="665" type="line"/>
      <point x="85" y="732" type="line"/>
      <point x="160" y="732" type="line"/>
      <point x="160" y="665" type="line"/>
      <point x="150" y="531" type="line"/>
      <point x="96" y="531" type="line"/>
    </contour>
    <contour>
      <point x="220" y="665" type="line"/>
      <point x="220" y="732" type="line"/>
      <point x="295" y="732" type="line"/>
      <point x="295" y="665" type="line"/>
      <point x="285" y="531" type="line"/>
      <point x="231" y="531" type="line"/>
    </contour>
  </outline>
</glyph>
<glyph name="numbersign" format="1">
  <advance width="687"/>
  <unicode hex="0023"/>
  <outline>
    <contour>
      <point x="20" y="232" type="line"/>
      <point x="28" y="284" type="line"/>
      <point x="187" y="284" type="line"/>
      <point x="213" y="449" type="line"/>
      <point x="54" y="449" type="line"/>
      <point x="63" y="501" type="line"/>
      <point x="221" y="501" type="line"/>
      <point x="258" y="732" type="line"/>
      <point x="310" y="732" type="line"/>
      <point x="273" y="501" type="line"/>
      <point x="439" y="501" type="line"/>
      <point x="475" y="732" type="line"/>
      <point x="527" y="732" type="line"/>
      <point x="491" y="501" type="line"/>
      <point x="668" y="501" type="line"/>
      <point x="659" y="449" type="line"/>
      <point x="482" y="449" type="line"/>
      <point x="456" y="283" type="line"/>
      <point x="633" y="283" type="line"/>
      <point x="625" y="231" type="line"/>
      <point x="448" y="231" type="line"/>
      <point x="411" y="0" type="line"/>
      <point x="359" y="0" type="line"/>
      <point x="396" y="231" type="line"/>
      <point x="230" y="232" type="line"/>
      <point x="193" y="0" type="line"/>
      <point x="141" y="0" type="line"/>
      <point x="178" y="232" type="line"/>
    </contour>
    <contour>
      <point x="239" y="284" type="line"/>
      <point x="404" y="283" type="line"/>
      <point x="430" y="449" type="line"/>
      <point x="265" y="449" type="line"/>
    </contour>
  </outline>
</glyph>
<glyph name="dollar" format="1">
  <advance width="575"/>
  <unicode hex="0024"/>
  <outline>
    <contour>
      <point x="78" y="72" type="line"/>
      <point x="317" y="66" type="line" smooth="yes"/>
      <point x="403" y="66"/>
      <point x="446" y="96"/>
      <point x="446" y="156" type="curve" smooth="yes"/>
      <point x="446" y="224" type="line" smooth="yes"/>
      <point x="446" y="289.333"/>
      <point x="418.333" y="322"/>
      <point x="363" y="322" type="curve" smooth="yes"/>
      <point x="233" y="322" type="line" smooth="yes"/>
      <point x="163" y="322"/>
      <point x="114.667" y="340.667"/>
      <point x="88" y="378" type="curve" smooth="yes"/>
      <point x="66" y="410"/>
      <point x="55" y="448.667"/>
      <point x="55" y="494" type="curve" smooth="yes"/>
      <point x="55" y="560" type="line" smooth="yes"/>
      <point x="55.6667" y="626"/>
      <point x="72.5" y="671.833"/>
      <point x="105.5" y="697.5" type="curve" smooth="yes"/>
      <point x="138.5" y="723.167"/>
      <point x="184.667" y="736.667"/>
      <point x="244" y="738" type="curve"/>
      <point x="244" y="824" type="line"/>
      <point x="302" y="824" type="line"/>
      <point x="302" y="735" type="line"/>
      <point x="345.333" y="731.667"/>
      <point x="409" y="724.667"/>
      <point x="493" y="714" type="curve"/>
      <point x="493" y="656" type="line"/>
      <point x="253" y="665" type="line" smooth="yes"/>
      <point x="246" y="665"/>
      <point x="246" y="665"/>
      <point x="232.5" y="665" type="curve" smooth="yes"/>
      <point x="223.5" y="665"/>
      <point x="213" y="664.167"/>
      <point x="201" y="662.5" type="curve" smooth="yes"/>
      <point x="189" y="660.833"/>
      <point x="177" y="656.667"/>
      <point x="165" y="650" type="curve" smooth="yes"/>
      <point x="141" y="635.333"/>
      <point x="129" y="605.333"/>
      <point x="129" y="560" type="curve" smooth="yes"/>
      <point x="129" y="494" type="line" smooth="yes"/>
      <point x="129" y="428.667"/>
      <point x="163.667" y="396"/>
      <point x="233" y="396" type="curve" smooth="yes"/>
      <point x="363" y="396" type="line" smooth="yes"/>
      <point x="428.333" y="396"/>
      <point x="472" y="377.333"/>
      <point x="494" y="340" type="curve" smooth="yes"/>
      <point x="511.333" y="309.333"/>
      <point x="520" y="270.667"/>
      <point x="520" y="224" type="curve" smooth="yes"/>
      <point x="520" y="156" type="line" smooth="yes"/>
      <point x="520" y="90"/>
      <point x="496.667" y="44.6667"/>
      <point x="450" y="20" type="curve" smooth="yes"/>
      <point x="415.333" y="1.33333"/>
      <point x="373" y="-8"/>
      <point x="323" y="-8" type="curve" smooth="yes"/>
      <point x="313" y="-8"/>
      <point x="313" y="-8"/>
      <point x="302" y="-8" type="curve"/>
      <point x="302" y="-90" type="line"/>
      <point x="244" y="-90" type="line"/>
      <point x="244" y="-3" type="line"/>
      <point x="78" y="17" type="line"/>
    </contour>
  </outline>
</glyph>
<glyph name="percent" format="1">
  <advance width="955"/>
  <unicode hex="0025"/>
  <outline>
    <contour>
      <point x="42" y="474" type="curve" smooth="yes"/>
      <point x="42" y="607" type="line" smooth="yes"/>
      <point x="42" y="692"/>
      <point x="70" y="732"/>
      <point x="171" y="732" type="curve" smooth="yes"/>
      <point x="272" y="732" type="line" smooth="yes"/>
      <point x="370" y="732"/>
      <point x="399" y="692"/>
      <point x="399" y="607" type="curve" smooth="yes"/>
      <point x="399" y="474" type="line" smooth="yes"/>
      <point x="399" y="389"/>
      <point x="371" y="349"/>
      <point x="270" y="349" type="curve" smooth="yes"/>
      <point x="169" y="349" type="line" smooth="yes"/>
      <point x="71" y="349"/>
      <point x="42" y="389"/>
    </contour>
    <contour>
      <point x="107" y="474" type="line" smooth="yes"/>
      <point x="107" y="425"/>
      <point x="122" y="414"/>
      <point x="169" y="414" type="curve" smooth="yes"/>
      <point x="270" y="414" type="line" smooth="yes"/>
      <point x="328" y="414"/>
      <point x="334" y="429"/>
      <point x="334" y="474" type="curve" smooth="yes"/>
      <point x="334" y="607" type="line" smooth="yes"/>
      <point x="334" y="656"/>
      <point x="319" y="667"/>
      <point x="272" y="667" type="curve" smooth="yes"/>
      <point x="171" y="667" type="line" smooth="yes"/>
      <point x="113" y="667"/>
      <point x="107" y="652"/>
      <point x="107" y="607" type="curve" smooth="yes"/>
    </contour>
    <contour>
      <point x="227" y="0" type="line"/>
      <point x="665" y="732" type="line"/>
      <point x="736" y="732" type="line"/>
      <point x="298" y="0" type="line"/>
    </contour>
    <contour>
      <point x="556" y="127" type="curve" smooth="yes"/>
      <point x="556" y="260" type="line" smooth="yes"/>
      <point x="556" y="345"/>
      <point x="584" y="385"/>
      <point x="685" y="385" type="curve" smooth="yes"/>
      <point x="786" y="385" type="line" smooth="yes"/>
      <point x="884" y="385"/>
      <point x="913" y="345"/>
      <point x="913" y="260" type="curve" smooth="yes"/>
      <point x="913" y="127" type="line" smooth="yes"/>
      <point x="913" y="42"/>
      <point x="885" y="2"/>
      <point x="784" y="2" type="curve" smooth="yes"/>
      <point x="683" y="2" type="line" smooth="yes"/>
      <point x="585" y="2"/>
      <point x="556" y="42"/>
    </contour>
    <contour>
      <point x="621" y="127" type="line" smooth="yes"/>
      <point x="621" y="78"/>
      <point x="636" y="67"/>
      <point x="683" y="67" type="curve" smooth="yes"/>
      <point x="784" y="67" type="line" smooth="yes"/>
      <point x="842" y="67"/>
      <point x="848" y="82"/>
      <point x="848" y="127" type="curve" smooth="yes"/>
      <point x="848" y="260" type="line" smooth="yes"/>
      <point x="848" y="309"/>
      <point x="833" y="320"/>
      <point x="786" y="320" type="curve" smooth="yes"/>
      <point x="685" y="320" type="line" smooth="yes"/>
      <point x="627" y="320"/>
      <point x="621" y="305"/>
      <point x="621" y="260" type="curve" smooth="yes"/>
    </contour>
  </outline>
</glyph>
<glyph name="ampersand" format="1">
  <advance width="637"/>
  <unicode hex="0026"/>
  <outline>
    <contour>
      <point x="33" y="205" type="curve" smooth="yes"/>
      <point x="33" y="266.333"/>
      <point x="60" y="320"/>
      <point x="114" y="366" type="curve" smooth="yes"/>
      <point x="200" y="439" type="line"/>
      <point x="137" y="524" type="line" smooth="yes"/>
      <point x="115" y="556"/>
      <point x="104" y="585.333"/>
      <point x="104" y="612" type="curve" smooth="yes"/>
      <point x="104" y="645.333"/>
      <point x="115" y="672.667"/>
      <point x="137" y="694" type="curve" smooth="yes"/>
      <point x="159" y="715.333"/>
      <point x="182" y="727.167"/>
      <point x="206" y="729.5" type="curve" smooth="yes"/>
      <point x="230" y="731.833"/>
      <point x="254" y="733"/>
      <point x="278" y="733" type="curve" smooth="yes"/>
      <point x="341.333" y="733"/>
      <point x="406.333" y="725.333"/>
      <point x="473" y="710" type="curve"/>
      <point x="473" y="660" type="line"/>
      <point x="270" y="660" type="line" smooth="yes"/>
      <point x="240" y="660"/>
      <point x="217.667" y="656.667"/>
      <point x="203" y="650" type="curve" smooth="yes"/>
      <point x="188.333" y="643.333"/>
      <point x="181" y="631"/>
      <point x="181" y="613" type="curve" smooth="yes"/>
      <point x="181" y="595"/>
      <point x="192.667" y="570"/>
      <point x="216" y="538" type="curve" smooth="yes"/>
      <point x="451" y="220" type="line"/>
      <point x="565" y="339" type="line"/>
      <point x="588" y="315" type="line"/>
      <point x="537" y="208" type="line"/>
      <point x="496" y="163" type="line"/>
      <point x="613" y="0" type="line"/>
      <point x="525" y="0" type="line"/>
      <point x="443" y="111" type="line"/>
      <point x="371" y="44" type="line" smooth="yes"/>
      <point x="337" y="12"/>
      <point x="295.667" y="-4"/>
      <point x="247" y="-4" type="curve" smooth="yes"/>
      <point x="174.333" y="-4"/>
      <point x="118" y="24.6667"/>
      <point x="78" y="82" type="curve" smooth="yes"/>
      <point x="48" y="122"/>
      <point x="33" y="163"/>
    </contour>
    <contour>
      <point x="247" y="68" type="curve" smooth="yes"/>
      <point x="272.333" y="68"/>
      <point x="296" y="77"/>
      <point x="318" y="95" type="curve" smooth="yes"/>
      <point x="398" y="170" type="line"/>
      <point x="242" y="378" type="line"/>
      <point x="164" y="313" type="line" smooth="yes"/>
      <point x="124.667" y="281"/>
      <point x="105" y="246.667"/>
      <point x="105" y="210" type="curve" smooth="yes"/>
      <point x="105" y="182"/>
      <point x="116.333" y="153.667"/>
      <point x="139" y="125" type="curve" smooth="yes"/>
      <point x="168.333" y="87"/>
      <point x="204.333" y="68"/>
    </contour>
  </outline>
</glyph>
<glyph name="quotesingle" format="1">
  <advance width="185"/>
  <unicode hex="0027"/>
  <outline>
    <contour>
      <point x="55" y="665" type="line"/>
      <point x="55" y="732" type="line"/>
      <point x="130" y="732" type="line"/>
      <point x="130" y="665" type="line"/>
      <point x="120" y="531" type="line"/>
      <point x="66" y="531" type="line"/>
    </contour>
  </outline>
</glyph>
<glyph name="parenleft" format="1">
  <advance width="335"/>
  <unicode hex="0028"/>
  <outline>
    <contour>
      <point x="75" y="326" type="curve" smooth="yes"/>
      <point x="75" y="600"/>
      <point x="234" y="860"/>
      <point x="234" y="860" type="curve"/>
      <point x="315" y="860" type="line"/>
      <point x="315" y="860"/>
      <point x="149" y="598"/>
      <point x="149" y="326" type="curve" smooth="yes"/>
      <point x="149" y="26"/>
      <point x="315" y="-210"/>
      <point x="315" y="-210" type="curve"/>
      <point x="234" y="-210" type="line"/>
      <point x="234" y="-210"/>
      <point x="75" y="10"/>
    </contour>
  </outline>
</glyph>
<glyph name="parenright" format="1">
  <advance width="335"/>
  <unicode hex="0029"/>
  <outline>
    <contour>
      <point x="20" y="-210" type="line"/>
      <point x="20" y="-210"/>
      <point x="186" y="26"/>
      <point x="186" y="326" type="curve" smooth="yes"/>
      <point x="186" y="598"/>
      <point x="20" y="860"/>
      <point x="20" y="860" type="curve"/>
      <point x="101" y="860" type="line"/>
      <point x="101" y="860"/>
      <point x="260" y="600"/>
      <point x="260" y="326" type="curve" smooth="yes"/>
      <point x="260" y="10"/>
      <point x="101" y="-210"/>
      <point x="101" y="-210" type="curve"/>
    </contour>
  </outline>
</glyph>
<glyph name="asterisk" format="1">
  <advance width="440"/>
  <unicode hex="002A"/>
  <outline>
    <contour>
      <point x="50" y="566" type="line"/>
      <point x="50" y="606" type="line"/>
      <point x="189" y="635" type="line"/>
      <point x="194" y="561" type="line"/>
    </contour>
    <contour>
      <point x="118" y="414" type="line"/>
      <point x="142" y="549" type="line"/>
      <point x="214" y="532" type="line"/>
      <point x="155" y="402" type="line"/>
    </contour>
    <contour>
      <point x="176" y="717" type="line"/>
      <point x="215" y="733" type="line"/>
      <point x="290" y="615" type="line"/>
      <point x="222" y="584" type="line"/>
    </contour>
    <contour>
      <point x="208" y="476" type="line"/>
      <point x="249" y="538" type="line"/>
      <point x="359" y="447" type="line"/>
      <point x="338" y="415" type="line"/>
    </contour>
    <contour>
      <point x="251" y="571" type="line"/>
      <point x="371" y="647" type="line"/>
      <point x="390" y="612" type="line"/>
      <point x="299" y="515" type="line"/>
    </contour>
  </outline>
</glyph>
<glyph name="plus" format="1">
  <advance width="516"/>
  <unicode hex="002B"/>
  <outline>
    <contour>
      <point x="50" y="319" type="line"/>
      <point x="50" y="393" type="line"/>
      <point x="220" y="393" type="line"/>
      <point x="220" y="564" type="line"/>
      <point x="294" y="564" type="line"/>
      <point x="294" y="393" type="line"/>
      <point x="466" y="393" type="line"/>
      <point x="466" y="319" type="line"/>
      <point x="294" y="319" type="line"/>
      <point x="294" y="148" type="line"/>
      <point x="220" y="148" type="line"/>
      <point x="220" y="319" type="line"/>
    </contour>
  </outline>
</glyph>
<glyph name="comma" format="1">
  <advance width="270"/>
  <unicode hex="002C"/>
  <outline>
    <contour>
      <point x="85" y="25" type="curve" smooth="yes"/>
      <point x="85" y="79" type="line" smooth="yes"/>
      <point x="85" y="97"/>
      <point x="94" y="106"/>
      <point x="110" y="106" type="curve" smooth="yes"/>
      <point x="161" y="106" type="line" smooth="yes"/>
      <point x="179" y="106"/>
      <point x="185" y="94"/>
      <point x="185" y="79" type="curve" smooth="yes"/>
      <point x="185" y="-11" type="line" smooth="yes"/>
      <point x="185" y="-106"/>
      <point x="90" y="-88"/>
      <point x="90" y="-88" type="curve"/>
      <point x="90" y="-56" type="line"/>
      <point x="120" y="-57"/>
      <point x="121" y="-36"/>
      <point x="121" y="-25" type="curve" smooth="yes"/>
      <point x="121" y="0" type="line"/>
      <point x="110" y="0" type="line" smooth="yes"/>
      <point x="96" y="0"/>
      <point x="85" y="8"/>
    </contour>
  </outline>
</glyph>
<glyph name="hyphen" format="1">
  <advance width="354"/>
  <unicode hex="002D"/>
  <outline>
    <contour>
      <point x="20" y="253" type="line"/>
      <point x="20" y="327" type="line"/>
      <point x="334" y="327" type="line"/>
      <point x="334" y="253" type="line"/>
    </contour>
  </outline>
</glyph>
<glyph name="slash" format="1">
  <advance width="400"/>
  <unicode hex="002F"/>
  <outline>
    <contour>
      <point x="20" y="-72" type="line"/>
      <point x="301" y="770" type="line"/>
      <point x="380" y="770" type="line"/>
      <point x="99" y="-72" type="line"/>
    </contour>
  </outline>
</glyph>
<glyph name="zero" format="1">
  <advance width="643"/>
  <unicode hex="0030"/>
  <outline>
    <contour>
      <point x="70" y="162" type="curve" smooth="yes"/>
      <point x="70" y="570" type="line" smooth="yes"/>
      <point x="70" y="622"/>
      <point x="86.1667" y="662"/>
      <point x="118.5" y="690" type="curve" smooth="yes"/>
      <point x="150.833" y="718"/>
      <point x="192" y="732"/>
      <point x="242" y="732" type="curve" smooth="yes"/>
      <point x="406" y="732" type="line" smooth="yes"/>
      <point x="463.333" y="732"/>
      <point x="505.5" y="716.833"/>
      <point x="532.5" y="686.5" type="curve" smooth="yes"/>
      <point x="559.5" y="656.167"/>
      <point x="573" y="617.333"/>
      <point x="573" y="570" type="curve" smooth="yes"/>
      <point x="573" y="162" type="line" smooth="yes"/>
      <point x="573" y="54"/>
      <point x="517.333" y="0"/>
      <point x="406" y="0" type="curve" smooth="yes"/>
      <point x="242" y="0" type="line" smooth="yes"/>
      <point x="192" y="0"/>
      <point x="150.833" y="13"/>
      <point x="118.5" y="39" type="curve" smooth="yes"/>
      <point x="86.1667" y="65"/>
      <point x="70" y="106"/>
    </contour>
    <contour>
      <point x="144" y="162" type="line" smooth="yes"/>
      <point x="144" y="131.333"/>
      <point x="153.5" y="109"/>
      <point x="172.5" y="95" type="curve" smooth="yes"/>
      <point x="191.5" y="81"/>
      <point x="214.667" y="74"/>
      <point x="242" y="74" type="curve" smooth="yes"/>
      <point x="406" y="74" type="line" smooth="yes"/>
      <point x="468" y="74"/>
      <point x="499" y="103.333"/>
      <point x="499" y="162" type="curve" smooth="yes"/>
      <point x="499" y="570" type="line" smooth="yes"/>
      <point x="499" y="628.667"/>
      <point x="468" y="658"/>
      <point x="406" y="658" type="curve" smooth="yes"/>
      <point x="242" y="658" type="line" smooth="yes"/>
      <point x="208.667" y="658"/>
      <point x="184" y="649.833"/>
      <point x="168" y="633.5" type="curve" smooth="yes"/>
      <point x="152" y="617.167"/>
      <point x="144" y="596"/>
      <point x="144" y="570" type="curve" smooth="yes"/>
    </contour>
  </outline>
</glyph>
<glyph name="one" format="1">
  <advance width="362"/>
  <unicode hex="0031"/>
  <outline>
    <contour>
      <point x="282" y="732" type="line"/>
      <point x="282" y="0" type="line"/>
      <point x="208" y="0" type="line"/>
      <point x="208" y="648" type="line"/>
      <point x="40" y="594" type="line"/>
      <point x="40" y="647" type="line"/>
      <point x="208" y="732" type="line"/>
    </contour>
  </outline>
</glyph>
<glyph name="two" format="1">
  <advance width="597"/>
  <unicode hex="0032"/>
  <outline>
    <contour>
      <point x="40" y="667" type="line"/>
      <point x="40" y="722" type="line"/>
      <point x="144.667" y="735.333"/>
      <point x="246" y="742"/>
      <point x="344" y="742" type="curve" smooth="yes"/>
      <point x="411.333" y="742"/>
      <point x="462" y="721.333"/>
      <point x="496" y="680" type="curve" smooth="yes"/>
      <point x="530" y="638.667"/>
      <point x="547" y="589.333"/>
      <point x="547" y="532" type="curve" smooth="yes"/>
      <point x="547" y="495.333"/>
      <point x="536.667" y="456"/>
      <point x="516" y="414" type="curve" smooth="yes"/>
      <point x="495.333" y="372"/>
      <point x="471" y="334.167"/>
      <point x="443" y="300.5" type="curve" smooth="yes"/>
      <point x="415" y="266.833"/>
      <point x="382.667" y="233.333"/>
      <point x="346" y="200" type="curve" smooth="yes"/>
      <point x="289.333" y="147.333"/>
      <point x="237.333" y="105.333"/>
      <point x="190" y="74" type="curve"/>
      <point x="547" y="74" type="line"/>
      <point x="547" y="0" type="line"/>
      <point x="47" y="0" type="line"/>
      <point x="47" y="68" type="line"/>
      <point x="179" y="158"/>
      <point x="281.667" y="242"/>
      <point x="355" y="320" type="curve" smooth="yes"/>
      <point x="386.333" y="353.333"/>
      <point x="413.667" y="389.5"/>
      <point x="437" y="428.5" type="curve" smooth="yes"/>
      <point x="460.333" y="467.5"/>
      <point x="472" y="504.667"/>
      <point x="472" y="540" type="curve" smooth="yes"/>
      <point x="472" y="575.333"/>
      <point x="461.333" y="605.333"/>
      <point x="440" y="630" type="curve" smooth="yes"/>
      <point x="418.667" y="654.667"/>
      <point x="386.333" y="667"/>
      <point x="343" y="667" type="curve" smooth="yes"/>
    </contour>
  </outline>
</glyph>
<glyph name="three" format="1">
  <advance width="594"/>
  <unicode hex="0033"/>
  <outline>
    <contour>
      <point x="30" y="706" type="line"/>
      <point x="82" y="725.333"/>
      <point x="161.667" y="735"/>
      <point x="269" y="735" type="curve" smooth="yes"/>
      <point x="294.333" y="735"/>
      <point x="320.667" y="734.667"/>
      <point x="348" y="734" type="curve" smooth="yes"/>
      <point x="401.333" y="733.333"/>
      <point x="443.167" y="717.5"/>
      <point x="473.5" y="686.5" type="curve" smooth="yes"/>
      <point x="503.833" y="655.5"/>
      <point x="519" y="616.333"/>
      <point x="519" y="569" type="curve" smooth="yes"/>
      <point x="519" y="500" type="line" smooth="yes"/>
      <point x="519" y="426.667"/>
      <point x="497" y="381.333"/>
      <point x="453" y="364" type="curve"/>
      <point x="497" y="336"/>
      <point x="519" y="288"/>
      <point x="519" y="220" type="curve" smooth="yes"/>
      <point x="519" y="161" type="line" smooth="yes"/>
      <point x="519" y="49"/>
      <point x="459.667" y="-7"/>
      <point x="341" y="-7" type="curve" smooth="yes"/>
      <point x="304" y="-7"/>
      <point x="304" y="-7"/>
      <point x="281.5" y="-7" type="curve" smooth="yes"/>
      <point x="266.5" y="-7"/>
      <point x="250" y="-6.83333"/>
      <point x="232" y="-6.5" type="curve" smooth="yes"/>
      <point x="214" y="-6.16667"/>
      <point x="201.667" y="-5.83333"/>
      <point x="195" y="-5.5" type="curve" smooth="yes"/>
      <point x="188.333" y="-5.16667"/>
      <point x="177.5" y="-4.5"/>
      <point x="162.5" y="-3.5" type="curve" smooth="yes"/>
      <point x="147.5" y="-2.5"/>
      <point x="136" y="-1.33333"/>
      <point x="128" y="0" type="curve" smooth="yes"/>
      <point x="98" y="5" type="line" smooth="yes"/>
      <point x="76.6667" y="8.33333"/>
      <point x="56" y="13.6667"/>
      <point x="36" y="21" type="curve"/>
      <point x="37" y="68" type="line"/>
      <point x="335" y="68" type="line" smooth="yes"/>
      <point x="387.667" y="68"/>
      <point x="420.667" y="82.6667"/>
      <point x="434" y="112" type="curve" smooth="yes"/>
      <point x="440" y="124.667"/>
      <point x="443" y="141"/>
      <point x="443" y="161" type="curve" smooth="yes"/>
      <point x="443" y="220" type="line" smooth="yes"/>
      <point x="443" y="288"/>
      <point x="409" y="323.333"/>
      <point x="341" y="326" type="curve" smooth="yes"/>
      <point x="98" y="333" type="line"/>
      <point x="98" y="391" type="line"/>
      <point x="341" y="401" type="line" smooth="yes"/>
      <point x="410.333" y="404.333"/>
      <point x="445" y="437.333"/>
      <point x="445" y="500" type="curve" smooth="yes"/>
      <point x="445" y="569" type="line" smooth="yes"/>
      <point x="445" y="599"/>
      <point x="434.833" y="621.667"/>
      <point x="414.5" y="637" type="curve" smooth="yes"/>
      <point x="394.167" y="652.333"/>
      <point x="369.667" y="660"/>
      <point x="341" y="660" type="curve" smooth="yes"/>
      <point x="30" y="660" type="line"/>
    </contour>
  </outline>
</glyph>
<glyph name="four" format="1">
  <advance width="603"/>
  <unicode hex="0034"/>
  <outline>
    <contour>
      <point x="419" y="265" type="line"/>
      <point x="419" y="472" type="line"/>
      <point x="456" y="547" type="line"/>
      <point x="493" y="547" type="line"/>
      <point x="493" y="265" type="line"/>
      <point x="583" y="265" type="line"/>
      <point x="583" y="206" type="line"/>
      <point x="493" y="187" type="line"/>
      <point x="493" y="2" type="line"/>
      <point x="419" y="2" type="line"/>
      <point x="419" y="187" type="line"/>
      <point x="54" y="187" type="line"/>
      <point x="20" y="224" type="line"/>
      <point x="341" y="732" type="line"/>
      <point x="429" y="732" type="line"/>
      <point x="135" y="265" type="line"/>
    </contour>
  </outline>
</glyph>
<glyph name="five" format="1">
  <advance width="603"/>
  <unicode hex="0035"/>
  <outline>
    <contour>
      <point x="283" y="449" type="curve" smooth="yes"/>
      <point x="380" y="446" type="line" smooth="yes"/>
      <point x="436.667" y="446"/>
      <point x="478.167" y="431.167"/>
      <point x="504.5" y="401.5" type="curve" smooth="yes"/>
      <point x="530.833" y="371.833"/>
      <point x="544" y="331.333"/>
      <point x="544" y="280" type="curve" smooth="yes"/>
      <point x="544" y="166" type="line" smooth="yes"/>
      <point x="544" y="134"/>
      <point x="538.5" y="106.167"/>
      <point x="527.5" y="82.5" type="curve" smooth="yes"/>
      <point x="516.5" y="58.8333"/>
      <point x="502" y="41.3333"/>
      <point x="484" y="30" type="curve" smooth="yes"/>
      <point x="450.667" y="7.33333"/>
      <point x="416" y="-4"/>
      <point x="380" y="-4" type="curve" smooth="yes"/>
      <point x="312.667" y="-4"/>
      <point x="261" y="-2.66667"/>
      <point x="225" y="0" type="curve" smooth="yes"/>
      <point x="189" y="2.66667"/>
      <point x="139.333" y="9.33333"/>
      <point x="76" y="20" type="curve"/>
      <point x="76" y="75" type="line"/>
      <point x="380" y="75" type="line" smooth="yes"/>
      <point x="411.333" y="75"/>
      <point x="434.167" y="84"/>
      <point x="448.5" y="102" type="curve" smooth="yes"/>
      <point x="462.833" y="120"/>
      <point x="470" y="142"/>
      <point x="470" y="168" type="curve" smooth="yes"/>
      <point x="470" y="278" type="line" smooth="yes"/>
      <point x="470" y="322.667"/>
      <point x="457" y="351"/>
      <point x="431" y="363" type="curve" smooth="yes"/>
      <point x="417.667" y="369"/>
      <point x="400.667" y="372"/>
      <point x="380" y="372" type="curve" smooth="yes"/>
      <point x="226" y="372" type="line" smooth="yes"/>
      <point x="204" y="372"/>
      <point x="184.833" y="365.667"/>
      <point x="168.5" y="353" type="curve" smooth="yes"/>
      <point x="152.167" y="340.333"/>
      <point x="144" y="321.667"/>
      <point x="144" y="297" type="curve"/>
      <point x="78" y="297" type="line"/>
      <point x="100" y="732" type="line"/>
      <point x="522" y="732" type="line"/>
      <point x="522" y="658" type="line"/>
      <point x="168" y="658" type="line"/>
      <point x="156" y="416" type="line"/>
      <point x="174" y="438"/>
      <point x="216.333" y="449"/>
    </contour>
  </outline>
</glyph>
<glyph name="six" format="1">
  <advance width="623"/>
  <unicode hex="0036"/>
  <outline>
    <contour>
      <point x="65" y="384" type="curve" smooth="yes"/>
      <point x="65" y="506"/>
      <point x="81.8333" y="595.5"/>
      <point x="115.5" y="652.5" type="curve" smooth="yes"/>
      <point x="149.167" y="709.5"/>
      <point x="189.667" y="738"/>
      <point x="237" y="738" type="curve" smooth="yes"/>
      <point x="345.667" y="738"/>
      <point x="446.333" y="731.667"/>
      <point x="539" y="719" type="curve"/>
      <point x="539" y="664" type="line"/>
      <point x="250" y="664" type="line" smooth="yes"/>
      <point x="228.667" y="664"/>
      <point x="210.333" y="655"/>
      <point x="195" y="637" type="curve" smooth="yes"/>
      <point x="179.667" y="619"/>
      <point x="168.333" y="595.333"/>
      <point x="161" y="566" type="curve" smooth="yes"/>
      <point x="147.667" y="512.667"/>
      <point x="140.333" y="459.667"/>
      <point x="139" y="407" type="curve"/>
      <point x="258.333" y="421"/>
      <point x="347.5" y="428"/>
      <point x="406.5" y="428" type="curve" smooth="yes"/>
      <point x="465.5" y="428"/>
      <point x="506.333" y="414.667"/>
      <point x="529" y="388" type="curve" smooth="yes"/>
      <point x="551.667" y="361.333"/>
      <point x="563" y="325"/>
      <point x="563" y="279" type="curve" smooth="yes"/>
      <point x="563" y="148" type="line" smooth="yes"/>
      <point x="563" y="48.6667"/>
      <point x="509.333" y="-1"/>
      <point x="402" y="-1" type="curve" smooth="yes"/>
      <point x="253" y="-1" type="line" smooth="yes"/>
      <point x="223.667" y="-1"/>
      <point x="198.333" y="4.5"/>
      <point x="177" y="15.5" type="curve" smooth="yes"/>
      <point x="155.667" y="26.5"/>
      <point x="136" y="45.6667"/>
      <point x="118" y="73" type="curve" smooth="yes"/>
      <point x="82.6667" y="128.333"/>
      <point x="65" y="232"/>
    </contour>
    <contour>
      <point x="139" y="354" type="line"/>
      <point x="139" y="271.333"/>
      <point x="144.333" y="212.667"/>
      <point x="155" y="178" type="curve" smooth="yes"/>
      <point x="160.333" y="160"/>
      <point x="166.667" y="142.667"/>
      <point x="174" y="126" type="curve" smooth="yes"/>
      <point x="190" y="90.6667"/>
      <point x="216.333" y="73"/>
      <point x="253" y="73" type="curve" smooth="yes"/>
      <point x="402" y="73" type="line" smooth="yes"/>
      <point x="431.333" y="73"/>
      <point x="453.333" y="78.3333"/>
      <point x="468" y="89" type="curve" smooth="yes"/>
      <point x="482.667" y="99.6667"/>
      <point x="490" y="121.333"/>
      <point x="490" y="154" type="curve" smooth="yes"/>
      <point x="490" y="279" type="line" smooth="yes"/>
      <point x="490" y="329"/>
      <point x="460.667" y="354"/>
      <point x="402" y="354" type="curve" smooth="yes"/>
    </contour>
  </outline>
</glyph>
<glyph name="seven" format="1">
  <advance width="546"/>
  <unicode hex="0037"/>
  <outline>
    <contour>
      <point x="30" y="658" type="line"/>
      <point x="30" y="732" type="line"/>
      <point x="489" y="732" type="line"/>
      <point x="516" y="684" type="line"/>
      <point x="251" y="0" type="line"/>
      <point x="163" y="0" type="line"/>
      <point x="421" y="658" type="line"/>
    </contour>
  </outline>
</glyph>
<glyph name="eight" format="1">
  <advance width="634"/>
  <unicode hex="0038"/>
  <outline>
    <contour>
      <point x="75" y="154" type="curve" smooth="yes"/>
      <point x="75" y="252" type="line" smooth="yes"/>
      <point x="75" y="274.667"/>
      <point x="79.6667" y="293.833"/>
      <point x="89" y="309.5" type="curve" smooth="yes"/>
      <point x="98.3333" y="325.167"/>
      <point x="108.333" y="336"/>
      <point x="119" y="342" type="curve" smooth="yes"/>
      <point x="129.667" y="348"/>
      <point x="143.333" y="353.667"/>
      <point x="160" y="359" type="curve"/>
      <point x="130.667" y="369"/>
      <point x="109.167" y="387.167"/>
      <point x="95.5" y="413.5" type="curve" smooth="yes"/>
      <point x="81.8333" y="439.833"/>
      <point x="75" y="468.333"/>
      <point x="75" y="499" type="curve" smooth="yes"/>
      <point x="75" y="564" type="line" smooth="yes"/>
      <point x="75" y="627.333"/>
      <point x="90.3333" y="672"/>
      <point x="121" y="698" type="curve" smooth="yes"/>
      <point x="151.667" y="724"/>
      <point x="195" y="737"/>
      <point x="251" y="737" type="curve" smooth="yes"/>
      <point x="397" y="737" type="line" smooth="yes"/>
      <point x="451.667" y="737"/>
      <point x="492.333" y="723.333"/>
      <point x="519" y="696" type="curve" smooth="yes"/>
      <point x="545.667" y="668.667"/>
      <point x="559" y="624.667"/>
      <point x="559" y="564" type="curve" smooth="yes"/>
      <point x="559" y="499" type="line" smooth="yes"/>
      <point x="559" y="495"/>
      <point x="559" y="495"/>
      <point x="559" y="488.5" type="curve" smooth="yes"/>
      <point x="559" y="484.167"/>
      <point x="558.5" y="478.167"/>
      <point x="557.5" y="470.5" type="curve" smooth="yes"/>
      <point x="556.5" y="462.833"/>
      <point x="553.833" y="452.333"/>
      <point x="549.5" y="439" type="curve" smooth="yes"/>
      <point x="545.167" y="425.667"/>
      <point x="537.333" y="413.833"/>
      <point x="526" y="403.5" type="curve" smooth="yes"/>
      <point x="514.667" y="393.167"/>
      <point x="500.667" y="386.333"/>
      <point x="484" y="383" type="curve"/>
      <point x="508.667" y="378.333"/>
      <point x="527.5" y="362"/>
      <point x="540.5" y="334" type="curve" smooth="yes"/>
      <point x="553.5" y="306"/>
      <point x="559.667" y="278.667"/>
      <point x="559" y="252" type="curve" smooth="yes"/>
      <point x="559" y="154" type="line" smooth="yes"/>
      <point x="559" y="123.333"/>
      <point x="553.667" y="97.1667"/>
      <point x="543" y="75.5" type="curve" smooth="yes"/>
      <point x="532.333" y="53.8333"/>
      <point x="518" y="38"/>
      <point x="500" y="28" type="curve" smooth="yes"/>
      <point x="468.667" y="9.33333"/>
      <point x="434" y="0"/>
      <point x="396" y="0" type="curve" smooth="yes"/>
      <point x="251" y="0" type="line" smooth="yes"/>
      <point x="218.333" y="0"/>
      <point x="190.333" y="4.16667"/>
      <point x="167" y="12.5" type="curve" smooth="yes"/>
      <point x="143.667" y="20.8333"/>
      <point x="126.167" y="30.5"/>
      <point x="114.5" y="41.5" type="curve" smooth="yes"/>
      <point x="102.833" y="52.5"/>
      <point x="94" y="66"/>
      <point x="88" y="82" type="curve" smooth="yes"/>
      <point x="79.3333" y="104"/>
      <point x="75" y="128"/>
    </contour>
    <contour>
      <point x="149" y="151" type="line" smooth="yes"/>
      <point x="149" y="99.6667"/>
      <point x="183" y="74"/>
      <point x="251" y="74" type="curve" smooth="yes"/>
      <point x="396" y="74" type="line" smooth="yes"/>
      <point x="420" y="74"/>
      <point x="440.833" y="80.6667"/>
      <point x="458.5" y="94" type="curve" smooth="yes"/>
      <point x="476.167" y="107.333"/>
      <point x="485" y="126.333"/>
      <point x="485" y="151" type="curve" smooth="yes"/>
      <point x="485" y="256" type="line" smooth="yes"/>
      <point x="485" y="282.667"/>
      <point x="476.667" y="302.833"/>
      <point x="460" y="316.5" type="curve" smooth="yes"/>
      <point x="443.333" y="330.167"/>
      <point x="423" y="337"/>
      <point x="399" y="337" type="curve" smooth="yes"/>
      <point x="240" y="337" type="line" smooth="yes"/>
      <point x="214" y="337"/>
      <point x="192.333" y="330.667"/>
      <point x="175" y="318" type="curve" smooth="yes"/>
      <point x="157.667" y="305.333"/>
      <point x="149" y="284.667"/>
      <point x="149" y="256" type="curve" smooth="yes"/>
    </contour>
    <contour>
      <point x="149" y="494" type="line" smooth="yes"/>
      <point x="149" y="464"/>
      <point x="158.5" y="442.5"/>
      <point x="177.5" y="429.5" type="curve" smooth="yes"/>
      <point x="196.5" y="416.5"/>
      <point x="217.333" y="410"/>
      <point x="240" y="410" type="curve" smooth="yes"/>
      <point x="399" y="410" type="line" smooth="yes"/>
      <point x="456.333" y="410"/>
      <point x="485" y="438"/>
      <point x="485" y="494" type="curve" smooth="yes"/>
      <point x="485" y="562" type="line" smooth="yes"/>
      <point x="485" y="598"/>
      <point x="477.833" y="623.833"/>
      <point x="463.5" y="639.5" type="curve" smooth="yes"/>
      <point x="449.167" y="655.167"/>
      <point x="427" y="663"/>
      <point x="397" y="663" type="curve" smooth="yes"/>
      <point x="251" y="663" type="line" smooth="yes"/>
      <point x="215" y="663"/>
      <point x="189" y="656.667"/>
      <point x="173" y="644" type="curve" smooth="yes"/>
      <point x="157" y="631.333"/>
      <point x="149" y="604"/>
      <point x="149" y="562" type="curve" smooth="yes"/>
    </contour>
  </outline>
</glyph>
<glyph name="nine" format="1">
  <advance width="623"/>
  <unicode hex="0039"/>
  <outline>
    <contour>
      <point x="60" y="458" type="curve" smooth="yes"/>
      <point x="60" y="589" type="line" smooth="yes"/>
      <point x="60" y="688.333"/>
      <point x="113.667" y="738"/>
      <point x="221" y="738" type="curve" smooth="yes"/>
      <point x="370" y="738" type="line" smooth="yes"/>
      <point x="399.333" y="738"/>
      <point x="424.667" y="732.5"/>
      <point x="446" y="721.5" type="curve" smooth="yes"/>
      <point x="467.333" y="710.5"/>
      <point x="486.667" y="691.333"/>
      <point x="504" y="664" type="curve" smooth="yes"/>
      <point x="540" y="608.667"/>
      <point x="558" y="505"/>
      <point x="558" y="353" type="curve" smooth="yes"/>
      <point x="558" y="231"/>
      <point x="541.167" y="141.5"/>
      <point x="507.5" y="84.5" type="curve" smooth="yes"/>
      <point x="473.833" y="27.5"/>
      <point x="433.333" y="-1"/>
      <point x="386" y="-1" type="curve" smooth="yes"/>
      <point x="246" y="-1"/>
      <point x="145.333" y="5.33333"/>
      <point x="84" y="18" type="curve"/>
      <point x="84" y="73" type="line"/>
      <point x="373" y="73" type="line" smooth="yes"/>
      <point x="394.333" y="73"/>
      <point x="412.667" y="82"/>
      <point x="428" y="100" type="curve" smooth="yes"/>
      <point x="443.333" y="118"/>
      <point x="454.667" y="141.667"/>
      <point x="462" y="171" type="curve" smooth="yes"/>
      <point x="475.333" y="224.333"/>
      <point x="482.667" y="277.333"/>
      <point x="484" y="330" type="curve"/>
      <point x="365.333" y="316"/>
      <point x="276.333" y="309"/>
      <point x="217" y="309" type="curve" smooth="yes"/>
      <point x="157.667" y="309"/>
      <point x="116.667" y="322.333"/>
      <point x="94" y="349" type="curve" smooth="yes"/>
      <point x="71.3333" y="375.667"/>
      <point x="60" y="412"/>
    </contour>
    <contour>
      <point x="133" y="458" type="line" smooth="yes"/>
      <point x="133" y="408"/>
      <point x="162.333" y="383"/>
      <point x="221" y="383" type="curve" smooth="yes"/>
      <point x="484" y="383" type="line"/>
      <point x="484" y="465"/>
      <point x="478.667" y="524"/>
      <point x="468" y="560" type="curve" smooth="yes"/>
      <point x="462.667" y="577.333"/>
      <point x="456" y="594.667"/>
      <point x="448" y="612" type="curve" smooth="yes"/>
      <point x="432.667" y="646.667"/>
      <point x="406.667" y="664"/>
      <point x="370" y="664" type="curve" smooth="yes"/>
      <point x="221" y="664" type="line" smooth="yes"/>
      <point x="191.667" y="664"/>
      <point x="169.667" y="658.667"/>
      <point x="155" y="648" type="curve" smooth="yes"/>
      <point x="140.333" y="637.333"/>
      <point x="133" y="615.667"/>
      <point x="133" y="583" type="curve" smooth="yes"/>
    </contour>
  </outline>
</glyph>
<glyph name="colon" format="1">
  <advance width="272"/>
  <unicode hex="003A"/>
  <outline>
    <contour>
      <point x="85" y="23" type="curve" smooth="yes"/>
      <point x="85" y="80" type="line" smooth="yes"/>
      <point x="85" y="95"/>
      <point x="93" y="105"/>
      <point x="109" y="105" type="curve" smooth="yes"/>
      <point x="162" y="105" type="line" smooth="yes"/>
      <point x="180" y="105"/>
      <point x="187" y="96"/>
      <point x="187" y="80" type="curve" smooth="yes"/>
      <point x="187" y="23" type="line" smooth="yes"/>
      <point x="187" y="5"/>
      <point x="176" y="0"/>
      <point x="162" y="0" type="curve" smooth="yes"/>
      <point x="109" y="0" type="line" smooth="yes"/>
      <point x="95" y="0"/>
      <point x="85" y="9"/>
    </contour>
    <contour>
      <point x="85" y="450" type="curve" smooth="yes"/>
      <point x="85" y="507" type="line" smooth="yes"/>
      <point x="85" y="522"/>
      <point x="93" y="532"/>
      <point x="109" y="532" type="curve" smooth="yes"/>
      <point x="162" y="532" type="line" smooth="yes"/>
      <point x="180" y="532"/>
      <point x="187" y="523"/>
      <point x="187" y="507" type="curve" smooth="yes"/>
      <point x="187" y="450" type="line" smooth="yes"/>
      <point x="187" y="432"/>
      <point x="176" y="427"/>
      <point x="162" y="427" type="curve" smooth="yes"/>
      <point x="109" y="427" type="line" smooth="yes"/>
      <point x="95" y="427"/>
      <point x="85" y="436"/>
    </contour>
  </outline>
</glyph>
<glyph name="semicolon" format="1">
  <advance width="274"/>
  <unicode hex="003B"/>
  <outline>
    <contour>
      <point x="85" y="25" type="curve" smooth="yes"/>
      <point x="85" y="79" type="line" smooth="yes"/>
      <point x="85" y="93"/>
      <point x="95" y="106"/>
      <point x="110" y="106" type="curve" smooth="yes"/>
      <point x="161" y="106" type="line" smooth="yes"/>
      <point x="176" y="106"/>
      <point x="185" y="94"/>
      <point x="185" y="79" type="curve" smooth="yes"/>
      <point x="185" y="-11" type="line" smooth="yes"/>
      <point x="185" y="-106"/>
      <point x="90" y="-88"/>
      <point x="90" y="-88" type="curve"/>
      <point x="90" y="-56" type="line"/>
      <point x="120" y="-57"/>
      <point x="121" y="-36"/>
      <point x="121" y="-25" type="curve" smooth="yes"/>
      <point x="121" y="0" type="line"/>
      <point x="110" y="0" type="line" smooth="yes"/>
      <point x="96" y="0"/>
      <point x="85" y="13"/>
    </contour>
    <contour>
      <point x="87" y="451" type="curve" smooth="yes"/>
      <point x="87" y="508" type="line" smooth="yes"/>
      <point x="87" y="523"/>
      <point x="95" y="533"/>
      <point x="111" y="533" type="curve" smooth="yes"/>
      <point x="164" y="533" type="line" smooth="yes"/>
      <point x="182" y="533"/>
      <point x="189" y="524"/>
      <point x="189" y="508" type="curve" smooth="yes"/>
      <point x="189" y="451" type="line" smooth="yes"/>
      <point x="189" y="433"/>
      <point x="178" y="428"/>
      <point x="164" y="428" type="curve" smooth="yes"/>
      <point x="111" y="428" type="line" smooth="yes"/>
      <point x="97" y="428"/>
      <point x="87" y="437"/>
    </contour>
  </outline>
</glyph>
<glyph name="less" format="1">
  <advance width="475"/>
  <unicode hex="003C"/>
  <outline>
    <contour>
      <point x="50" y="314" type="line"/>
      <point x="50" y="394" type="line"/>
      <point x="425" y="556" type="line"/>
      <point x="425" y="476" type="line"/>
      <point x="149" y="354" type="line"/>
      <point x="425" y="222" type="line"/>
      <point x="425" y="140" type="line"/>
    </contour>
  </outline>
</glyph>
<glyph name="equal" format="1">
  <advance width="467"/>
  <unicode hex="003D"/>
  <outline>
    <contour>
      <point x="20" y="212" type="line"/>
      <point x="20" y="286" type="line"/>
      <point x="447" y="286" type="line"/>
      <point x="447" y="212" type="line"/>
    </contour>
    <contour>
      <point x="20" y="421" type="line"/>
      <point x="20" y="495" type="line"/>
      <point x="447" y="495" type="line"/>
      <point x="447" y="421" type="line"/>
    </contour>
  </outline>
</glyph>
<glyph name="greater" format="1">
  <advance width="475"/>
  <unicode hex="003E"/>
  <outline>
    <contour>
      <point x="50" y="140" type="line"/>
      <point x="50" y="222" type="line"/>
      <point x="326" y="354" type="line"/>
      <point x="50" y="476" type="line"/>
      <point x="50" y="556" type="line"/>
      <point x="425" y="394" type="line"/>
      <point x="425" y="314" type="line"/>
    </contour>
  </outline>
</glyph>
<glyph name="question" format="1">
  <advance width="541"/>
  <unicode hex="003F"/>
  <outline>
    <contour>
      <point x="20" y="664" type="line"/>
      <point x="20" y="719" type="line"/>
      <point x="122" y="732"/>
      <point x="187" y="744"/>
      <point x="302" y="739" type="curve"/>
      <point x="454" y="739"/>
      <point x="501" y="652"/>
      <point x="501" y="554" type="curve" smooth="yes"/>
      <point x="501" y="453" type="line" smooth="yes"/>
      <point x="501" y="318"/>
      <point x="393" y="275"/>
      <point x="258" y="296" type="curve"/>
      <point x="258" y="195" type="line"/>
      <point x="183" y="195" type="line"/>
      <point x="183" y="357" type="line"/>
      <point x="325" y="357" type="line" smooth="yes"/>
      <point x="374" y="359"/>
      <point x="428" y="386"/>
      <point x="428" y="453" type="curve" smooth="yes"/>
      <point x="428" y="554" type="line" smooth="yes"/>
      <point x="428" y="632"/>
      <point x="388" y="664"/>
      <point x="291" y="664" type="curve" smooth="yes"/>
    </contour>
    <contour>
      <point x="170" y="23" type="curve" smooth="yes"/>
      <point x="170" y="80" type="line" smooth="yes"/>
      <point x="170" y="95"/>
      <point x="178" y="105"/>
      <point x="194" y="105" type="curve" smooth="yes"/>
      <point x="249" y="105" type="line" smooth="yes"/>
      <point x="264" y="105"/>
      <point x="272" y="94"/>
      <point x="272" y="80" type="curve" smooth="yes"/>
      <point x="272" y="23" type="line" smooth="yes"/>
      <point x="272" y="8"/>
      <point x="263" y="0"/>
      <point x="249" y="0" type="curve" smooth="yes"/>
      <point x="194" y="0" type="line" smooth="yes"/>
      <point x="180" y="0"/>
      <point x="170" y="9"/>
    </contour>
  </outline>
</glyph>
<glyph name="at" format="1">
  <advance width="844"/>
  <unicode hex="0040"/>
  <outline>
    <contour>
      <point x="65" y="0" type="curve" smooth="yes"/>
      <point x="65" y="348" type="line" smooth="yes"/>
      <point x="65" y="398"/>
      <point x="77.3333" y="437"/>
      <point x="102" y="465" type="curve" smooth="yes"/>
      <point x="112.667" y="477"/>
      <point x="129.333" y="487.833"/>
      <point x="152" y="497.5" type="curve" smooth="yes"/>
      <point x="174.667" y="507.167"/>
      <point x="201.667" y="512"/>
      <point x="233" y="512" type="curve" smooth="yes"/>
      <point x="448" y="512" type="line" smooth="yes"/>
      <point x="490" y="512"/>
      <point x="526" y="501.167"/>
      <point x="556" y="479.5" type="curve" smooth="yes"/>
      <point x="586" y="457.833"/>
      <point x="601" y="422"/>
      <point x="601" y="372" type="curve" smooth="yes"/>
      <point x="601" y="0" type="line"/>
      <point x="545" y="0" type="line"/>
      <point x="531" y="64" type="line"/>
      <point x="521" y="56" type="line" smooth="yes"/>
      <point x="463" y="12.6667"/>
      <point x="406" y="-9"/>
      <point x="350" y="-9" type="curve" smooth="yes"/>
      <point x="314.667" y="-9"/>
      <point x="284.833" y="2"/>
      <point x="260.5" y="24" type="curve" smooth="yes"/>
      <point x="236.167" y="46"/>
      <point x="224.333" y="74"/>
      <point x="225" y="108" type="curve" smooth="yes"/>
      <point x="225" y="161" type="line" smooth="yes"/>
      <point x="225" y="201.667"/>
      <point x="236.333" y="234"/>
      <point x="259" y="258" type="curve" smooth="yes"/>
      <point x="281.667" y="282"/>
      <point x="313.333" y="294"/>
      <point x="354" y="294" type="curve" smooth="yes"/>
      <point x="529" y="294" type="line"/>
      <point x="529.667" y="319.333"/>
      <point x="530" y="338.333"/>
      <point x="530" y="351" type="curve" smooth="yes"/>
      <point x="530" y="363.667"/>
      <point x="529.667" y="370"/>
      <point x="529" y="370" type="curve"/>
      <point x="529" y="396.667"/>
      <point x="522.333" y="414.667"/>
      <point x="509" y="424" type="curve" smooth="yes"/>
      <point x="495.667" y="433.333"/>
      <point x="474.333" y="438"/>
      <point x="445" y="438" type="curve" smooth="yes"/>
      <point x="233" y="438" type="line" smooth="yes"/>
      <point x="203.667" y="438"/>
      <point x="180.667" y="432"/>
      <point x="164" y="420" type="curve" smooth="yes"/>
      <point x="147.333" y="408"/>
      <point x="139" y="384"/>
      <point x="139" y="348" type="curve" smooth="yes"/>
      <point x="139" y="0" type="line" smooth="yes"/>
      <point x="139" y="-68.6667"/>
      <point x="170.333" y="-103"/>
      <point x="233" y="-103" type="curve" smooth="yes"/>
      <point x="582" y="-103" type="line" smooth="yes"/>
      <point x="621.333" y="-103"/>
      <point x="648.333" y="-94.8333"/>
      <point x="663" y="-78.5" type="curve" smooth="yes"/>
      <point x="677.667" y="-62.1667"/>
      <point x="685" y="-36"/>
      <point x="685" y="0" type="curve" smooth="yes"/>
      <point x="685" y="512" type="line" smooth="yes"/>
      <point x="685" y="549.333"/>
      <point x="675.667" y="577.667"/>
      <point x="657" y="597" type="curve" smooth="yes"/>
      <point x="638.333" y="616.333"/>
      <point x="613.333" y="626"/>
      <point x="582" y="626" type="curve" smooth="yes"/>
      <point x="178" y="626" type="line"/>
      <point x="178" y="673" type="line"/>
      <point x="264.667" y="691"/>
      <point x="357" y="700"/>
      <point x="455" y="700" type="curve" smooth="yes"/>
      <point x="461" y="700"/>
      <point x="461" y="700"/>
      <point x="466" y="700" type="curve" smooth="yes"/>
      <point x="582" y="700" type="line" smooth="yes"/>
      <point x="636.667" y="698.667"/>
      <point x="679.833" y="682.167"/>
      <point x="711.5" y="650.5" type="curve" smooth="yes"/>
      <point x="743.167" y="618.833"/>
      <point x="759" y="572.667"/>
      <point x="759" y="512" type="curve" smooth="yes"/>
      <point x="759" y="0" type="line" smooth="yes"/>
      <point x="759" y="-118.667"/>
      <point x="700" y="-178"/>
      <point x="582" y="-178" type="curve" smooth="yes"/>
      <point x="233" y="-178" type="line" smooth="yes"/>
      <point x="181" y="-178"/>
      <point x="140" y="-162.667"/>
      <point x="110" y="-132" type="curve" smooth="yes"/>
      <point x="80" y="-101.333"/>
      <point x="65" y="-57.3333"/>
    </contour>
    <contour>
      <point x="299" y="114" type="line" smooth="yes"/>
      <point x="299" y="102.667"/>
      <point x="305" y="91.6667"/>
      <point x="317" y="81" type="curve" smooth="yes"/>
      <point x="329" y="70.3333"/>
      <point x="342.333" y="65"/>
      <point x="357" y="65" type="curve" smooth="yes"/>
      <point x="359" y="65"/>
      <point x="359" y="65"/>
      <point x="373" y="65" type="curve" smooth="yes"/>
      <point x="382.333" y="65"/>
      <point x="398.667" y="68.3333"/>
      <point x="422" y="75" type="curve" smooth="yes"/>
      <point x="445.333" y="81.6667"/>
      <point x="462.333" y="87.5"/>
      <point x="473" y="92.5" type="curve" smooth="yes"/>
      <point x="483.667" y="97.5"/>
      <point x="502.333" y="106.333"/>
      <point x="529" y="119" type="curve"/>
      <point x="529" y="242" type="line"/>
      <point x="359" y="226" type="line" smooth="yes"/>
      <point x="339.667" y="224"/>
      <point x="324.667" y="216.833"/>
      <point x="314" y="204.5" type="curve" smooth="yes"/>
      <point x="303.333" y="192.167"/>
      <point x="298.333" y="177"/>
      <point x="299" y="159" type="curve" smooth="yes"/>
    </contour>
  </outline>
</glyph>
<glyph name="A" format="1">
  <advance width="670"/>
  <unicode hex="0041"/>
  <outline>
    <contour>
      <point x="45" y="0" type="line"/>
      <point x="314" y="732" type="line"/>
      <point x="388" y="732" type="line"/>
      <point x="645" y="0" type="line"/>
      <point x="557" y="0" type="line"/>
      <point x="494" y="204" type="line"/>
      <point x="202" y="204" type="line"/>
      <point x="136" y="0" type="line"/>
    </contour>
    <contour>
      <point x="229" y="278" type="line"/>
      <point x="468" y="278" type="line"/>
      <point x="350" y="619" type="line"/>
    </contour>
  </outline>
</glyph>
<glyph name="B" format="1">
  <advance width="596"/>
  <unicode hex="0042"/>
  <outline>
    <contour>
      <point x="80" y="0" type="line"/>
      <point x="80" y="732" type="line"/>
      <point x="362" y="732" type="line" smooth="yes"/>
      <point x="508" y="732"/>
      <point x="552" y="624"/>
      <point x="552" y="542" type="curve" smooth="yes"/>
      <point x="552" y="468"/>
      <point x="531" y="402"/>
      <point x="460" y="380" type="curve"/>
      <point x="504" y="370"/>
      <point x="556" y="318"/>
      <point x="556" y="204" type="curve" smooth="yes"/>
      <point x="556" y="102"/>
      <point x="516" y="0"/>
      <point x="362" y="0" type="curve" smooth="yes"/>
    </contour>
    <contour>
      <point x="155" y="74" type="line"/>
      <point x="362" y="74" type="line" smooth="yes"/>
      <point x="410" y="74"/>
      <point x="482" y="87"/>
      <point x="482" y="206" type="curve" smooth="yes"/>
      <point x="482" y="280"/>
      <point x="446" y="346"/>
      <point x="362" y="346" type="curve" smooth="yes"/>
      <point x="155" y="346" type="line"/>
    </contour>
    <contour>
      <point x="155" y="420" type="line"/>
      <point x="362" y="420" type="line" smooth="yes"/>
      <point x="437" y="420"/>
      <point x="478" y="460"/>
      <point x="478" y="542" type="curve" smooth="yes"/>
      <point x="478" y="639"/>
      <point x="414" y="658"/>
      <point x="362" y="658" type="curve" smooth="yes"/>
      <point x="155" y="658" type="line"/>
    </contour>
  </outline>
</glyph>
<glyph name="C" format="1">
  <advance width="578"/>
  <unicode hex="0043"/>
  <outline>
    <contour>
      <point x="55" y="368" type="curve" smooth="yes"/>
      <point x="55" y="602"/>
      <point x="100" y="740"/>
      <point x="299" y="740" type="curve" smooth="yes"/>
      <point x="351" y="740"/>
      <point x="473" y="728"/>
      <point x="543" y="715" type="curve"/>
      <point x="543" y="656" type="line" smooth="yes"/>
      <point x="542" y="656"/>
      <point x="391" y="666"/>
      <point x="299" y="666" type="curve" smooth="yes"/>
      <point x="174" y="666"/>
      <point x="129" y="609"/>
      <point x="129" y="366" type="curve" smooth="yes"/>
      <point x="129" y="202"/>
      <point x="166" y="68"/>
      <point x="299" y="68" type="curve" smooth="yes"/>
      <point x="404" y="68"/>
      <point x="543" y="75"/>
      <point x="543" y="75" type="curve"/>
      <point x="543" y="16" type="line"/>
      <point x="473" y="3"/>
      <point x="351" y="-6"/>
      <point x="299" y="-6" type="curve" smooth="yes"/>
      <point x="114" y="-6"/>
      <point x="55" y="153"/>
    </contour>
  </outline>
</glyph>
<glyph name="D" format="1">
  <advance width="657"/>
  <unicode hex="0044"/>
  <outline>
    <contour>
      <point x="80" y="0" type="line"/>
      <point x="80" y="732" type="line"/>
      <point x="352" y="732" type="line" smooth="yes"/>
      <point x="577" y="732"/>
      <point x="612" y="513"/>
      <point x="612" y="363" type="curve" smooth="yes"/>
      <point x="612" y="197"/>
      <point x="545" y="0"/>
      <point x="352" y="0" type="curve" smooth="yes"/>
    </contour>
    <contour>
      <point x="154" y="77" type="line"/>
      <point x="352" y="77" type="line" smooth="yes"/>
      <point x="484" y="77"/>
      <point x="538" y="210"/>
      <point x="538" y="364" type="curve" smooth="yes"/>
      <point x="538" y="578"/>
      <point x="468" y="658"/>
      <point x="352" y="658" type="curve" smooth="yes"/>
      <point x="154" y="658" type="line"/>
    </contour>
  </outline>
</glyph>
<glyph name="E" format="1">
  <advance width="567"/>
  <unicode hex="0045"/>
  <outline>
    <contour>
      <point x="80" y="123" type="curve" smooth="yes"/>
      <point x="80" y="602" type="line" smooth="yes"/>
      <point x="80" y="696.181"/>
      <point x="134.491" y="732.176"/>
      <point x="198.206" y="732.176" type="curve" smooth="yes"/>
      <point x="200.79" y="732.176"/>
      <point x="203.389" y="732.117"/>
      <point x="206" y="732" type="curve" smooth="yes"/>
      <point x="522" y="716" type="line"/>
      <point x="522" y="658" type="line"/>
      <point x="206" y="658" type="line" smooth="yes"/>
      <point x="154" y="658"/>
      <point x="154" y="629"/>
      <point x="154" y="602" type="curve" smooth="yes"/>
      <point x="154" y="402" type="line"/>
      <point x="482" y="392" type="line"/>
      <point x="482" y="333" type="line"/>
      <point x="154" y="323" type="line"/>
      <point x="154" y="123" type="line" smooth="yes"/>
      <point x="154.964" y="71.9273"/>
      <point x="184.714" y="70.9987"/>
      <point x="212.826" y="70.9987" type="curve" smooth="yes"/>
      <point x="213.887" y="70.9987"/>
      <point x="214.945" y="71"/>
      <point x="216" y="71" type="curve" smooth="yes"/>
      <point x="522" y="71" type="line"/>
      <point x="522" y="14" type="line"/>
      <point x="216" y="-3" type="line" smooth="yes"/>
      <point x="210.525" y="-3.3318"/>
      <point x="205.023" y="-3.51911"/>
      <point x="199.535" y="-3.51911" type="curve" smooth="yes"/>
      <point x="138.869" y="-3.51911"/>
      <point x="80" y="19.3734"/>
    </contour>
  </outline>
</glyph>
<glyph name="F" format="1">
  <advance width="567"/>
  <unicode hex="0046"/>
  <outline>
    <contour>
      <point x="80" y="0" type="line"/>
      <point x="80" y="602" type="line" smooth="yes"/>
      <point x="80" y="696.181"/>
      <point x="134.491" y="732.176"/>
      <point x="198.206" y="732.176" type="curve" smooth="yes"/>
      <point x="200.79" y="732.176"/>
      <point x="203.389" y="732.117"/>
      <point x="206" y="732" type="curve" smooth="yes"/>
      <point x="522" y="716" type="line"/>
      <point x="522" y="658" type="line"/>
      <point x="206" y="658" type="line" smooth="yes"/>
      <point x="154" y="658"/>
      <point x="154" y="629"/>
      <point x="154" y="602" type="curve" smooth="yes"/>
      <point x="154" y="402" type="line"/>
      <point x="482" y="392" type="line"/>
      <point x="482" y="333" type="line"/>
      <point x="154" y="323" type="line"/>
      <point x="154" y="0" type="line"/>
    </contour>
  </outline>
</glyph>
<glyph name="G" format="1">
  <advance width="614"/>
  <unicode hex="0047"/>
  <outline>
    <contour>
      <point x="55" y="370" type="curve" smooth="yes"/>
      <point x="55" y="570"/>
      <point x="90" y="740"/>
      <point x="289" y="740" type="curve" smooth="yes"/>
      <point x="341" y="740"/>
      <point x="473" y="726"/>
      <point x="543" y="713" type="curve"/>
      <point x="543" y="654" type="line"/>
      <point x="537" y="654"/>
      <point x="388" y="666"/>
      <point x="289" y="666" type="curve" smooth="yes"/>
      <point x="157" y="666"/>
      <point x="129" y="570"/>
      <point x="129" y="368" type="curve" smooth="yes"/>
      <point x="129" y="146"/>
      <point x="170" y="70"/>
      <point x="293" y="68" type="curve" smooth="yes"/>
      <point x="293.8" y="67.9895"/>
      <point x="294.604" y="67.9843"/>
      <point x="295.413" y="67.9843" type="curve" smooth="yes"/>
      <point x="371.429" y="67.9843"/>
      <point x="485" y="114"/>
      <point x="485" y="114" type="curve"/>
      <point x="485" y="314" type="line"/>
      <point x="317" y="314" type="line"/>
      <point x="317" y="364" type="line"/>
      <point x="357" y="375"/>
      <point x="410" y="389"/>
      <point x="491" y="389" type="curve" smooth="yes"/>
      <point x="512" y="389"/>
      <point x="535" y="388"/>
      <point x="559" y="386" type="curve"/>
      <point x="559" y="0" type="line"/>
      <point x="503" y="0" type="line"/>
      <point x="487" y="49" type="line"/>
      <point x="449" y="28"/>
      <point x="383" y="-5"/>
      <point x="293" y="-5" type="curve" smooth="yes"/>
      <point x="291.758" y="-5.012"/>
      <point x="290.522" y="-5.01799"/>
      <point x="289.292" y="-5.01799" type="curve" smooth="yes"/>
      <point x="85.6291" y="-5.01799"/>
      <point x="55" y="159.272"/>
    </contour>
  </outline>
</glyph>
<glyph name="H" format="1">
  <advance width="638"/>
  <unicode hex="0048"/>
  <outline>
    <contour>
      <point x="80" y="0" type="line"/>
      <point x="80" y="732" type="line"/>
      <point x="154" y="732" type="line"/>
      <point x="154" y="391" type="line"/>
      <point x="504" y="391" type="line"/>
      <point x="504" y="732" type="line"/>
      <point x="578" y="732" type="line"/>
      <point x="578" y="0" type="line"/>
      <point x="504" y="0" type="line"/>
      <point x="504" y="317" type="line"/>
      <point x="154" y="317" type="line"/>
      <point x="154" y="0" type="line"/>
    </contour>
  </outline>
</glyph>
<glyph name="J" format="1">
  <advance width="359"/>
  <unicode hex="004A"/>
  <outline>
    <contour>
      <point x="35" y="21" type="curve"/>
      <point x="39" y="75" type="line"/>
      <point x="68.053" y="67.9331"/>
      <point x="102.809" y="58.8623"/>
      <point x="134.373" y="58.8623" type="curve" smooth="yes"/>
      <point x="183.203" y="58.8623"/>
      <point x="224.393" y="80.5725"/>
      <point x="225" y="165" type="curve" smooth="yes"/>
      <point x="225" y="732" type="line"/>
      <point x="299" y="732" type="line"/>
      <point x="299" y="165" type="line" smooth="yes"/>
      <point x="299" y="118"/>
      <point x="297" y="50"/>
      <point x="247" y="18" type="curve" smooth="yes"/>
      <point x="221.667" y="1.74855"/>
      <point x="183.996" y="-6.04957"/>
      <point x="145.892" y="-6.04957" type="curve" smooth="yes"/>
      <point x="104.277" y="-6.04957"/>
      <point x="62.1448" y="3.25145"/>
    </contour>
  </outline>
</glyph>
<glyph name="K" format="1">
  <advance width="591"/>
  <unicode hex="004B"/>
  <outline>
    <contour>
      <point x="80" y="0" type="line"/>
      <point x="80" y="732" type="line"/>
      <point x="154" y="732" type="line"/>
      <point x="154" y="404" type="line"/>
      <point x="236" y="404" type="line"/>
      <point x="466" y="732" type="line"/>
      <point x="556" y="732" type="line"/>
      <point x="304" y="367" type="line"/>
      <point x="556" y="0" type="line"/>
      <point x="466" y="0" type="line"/>
      <point x="236" y="330" type="line"/>
      <point x="155" y="330" type="line"/>
      <point x="155" y="0" type="line"/>
    </contour>
  </outline>
</glyph>
<glyph name="L" format="1">
  <advance width="557"/>
  <unicode hex="004C"/>
  <outline>
    <contour>
      <point x="80" y="126" type="curve" smooth="yes"/>
      <point x="80" y="732" type="line"/>
      <point x="154" y="732" type="line"/>
      <point x="154" y="126" type="line" smooth="yes"/>
      <point x="154" y="74.9273"/>
      <point x="184.644" y="73.9987"/>
      <point x="212.822" y="73.9987" type="curve" smooth="yes"/>
      <point x="213.886" y="73.9987"/>
      <point x="214.945" y="74"/>
      <point x="216" y="74" type="curve" smooth="yes"/>
      <point x="522" y="74" type="line"/>
      <point x="522" y="0" type="line"/>
      <point x="216" y="0" type="line" smooth="yes"/>
      <point x="150" y="0"/>
      <point x="80" y="13"/>
    </contour>
  </outline>
</glyph>
<glyph name="M" format="1">
  <advance width="801"/>
  <unicode hex="004D"/>
  <outline>
    <contour>
      <point x="55" y="0" type="line"/>
      <point x="103" y="732" type="line"/>
      <point x="205" y="732" type="line"/>
      <point x="400" y="123" type="line"/>
      <point x="589" y="732" type="line"/>
      <point x="690" y="732" type="line"/>
      <point x="746" y="0" type="line"/>
      <point x="672" y="0" type="line"/>
      <point x="627" y="598" type="line"/>
      <point x="439" y="0" type="line"/>
      <point x="363" y="0" type="line"/>
      <point x="169" y="598" type="line"/>
      <point x="129" y="0" type="line"/>
    </contour>
  </outline>
</glyph>
<glyph name="N" format="1">
  <advance width="680"/>
  <unicode hex="004E"/>
  <outline>
    <contour>
      <point x="80" y="0" type="line"/>
      <point x="80" y="732" type="line"/>
      <point x="156" y="732" type="line"/>
      <point x="546" y="138" type="line"/>
      <point x="546" y="732" type="line"/>
      <point x="620" y="732" type="line"/>
      <point x="620" y="0" type="line"/>
      <point x="546" y="0" type="line"/>
      <point x="155" y="594" type="line"/>
      <point x="155" y="0" type="line"/>
    </contour>
  </outline>
</glyph>
<glyph name="O" format="1">
  <advance width="676"/>
  <unicode hex="004F"/>
  <outline>
    <contour>
      <point x="65" y="361" type="curve" smooth="yes"/>
      <point x="65" y="704"/>
      <point x="181" y="737"/>
      <point x="349" y="737" type="curve" smooth="yes"/>
      <point x="522" y="737"/>
      <point x="631" y="704"/>
      <point x="631" y="361" type="curve" smooth="yes"/>
      <point x="631" y="38"/>
      <point x="529" y="-4"/>
      <point x="349" y="-4" type="curve" smooth="yes"/>
      <point x="169" y="-4"/>
      <point x="65" y="28"/>
    </contour>
    <contour>
      <point x="139" y="361" type="curve" smooth="yes"/>
      <point x="139" y="104"/>
      <point x="191" y="70"/>
      <point x="349" y="70" type="curve" smooth="yes"/>
      <point x="505" y="70"/>
      <point x="557" y="112"/>
      <point x="557" y="361" type="curve" smooth="yes"/>
      <point x="557" y="660"/>
      <point x="485" y="663"/>
      <point x="349" y="663" type="curve" smooth="yes"/>
      <point x="216" y="663"/>
      <point x="139" y="660"/>
    </contour>
  </outline>
</glyph>
<glyph name="P" format="1">
  <advance width="581"/>
  <unicode hex="0050"/>
  <outline>
    <contour>
      <point x="60" y="0" type="line"/>
      <point x="60" y="732" type="line"/>
      <point x="361" y="732" type="line" smooth="yes"/>
      <point x="440" y="732"/>
      <point x="536" y="699"/>
      <point x="536" y="520" type="curve" smooth="yes"/>
      <point x="536" y="311"/>
      <point x="435" y="298"/>
      <point x="361" y="298" type="curve" smooth="yes"/>
      <point x="321" y="298"/>
      <point x="139" y="315"/>
      <point x="134" y="318" type="curve"/>
      <point x="134" y="0" type="line"/>
    </contour>
    <contour>
      <point x="134" y="372" type="line"/>
      <point x="361" y="372" type="line" smooth="yes"/>
      <point x="413" y="372"/>
      <point x="461" y="387"/>
      <point x="461" y="520" type="curve" smooth="yes"/>
      <point x="459" y="651"/>
      <point x="396" y="657"/>
      <point x="361" y="657" type="curve" smooth="yes"/>
      <point x="134" y="657" type="line"/>
    </contour>
  </outline>
</glyph>
<glyph name="Q" format="1">
  <advance width="676"/>
  <unicode hex="0051"/>
  <outline>
    <contour>
      <point x="65" y="361" type="curve" smooth="yes"/>
      <point x="65" y="704"/>
      <point x="175" y="737"/>
      <point x="347" y="737" type="curve" smooth="yes"/>
      <point x="520" y="737"/>
      <point x="631" y="704"/>
      <point x="631" y="361" type="curve" smooth="yes"/>
      <point x="631" y="38"/>
      <point x="527" y="-4"/>
      <point x="347" y="-4" type="curve" smooth="yes"/>
      <point x="167" y="-4"/>
      <point x="65" y="28"/>
    </contour>
    <contour>
      <point x="139" y="361" type="curve" smooth="yes"/>
      <point x="139" y="104"/>
      <point x="189" y="70"/>
      <point x="347" y="70" type="curve" smooth="yes"/>
      <point x="503" y="70"/>
      <point x="557" y="112"/>
      <point x="557" y="361" type="curve" smooth="yes"/>
      <point x="557" y="660"/>
      <point x="483" y="663"/>
      <point x="347" y="663" type="curve" smooth="yes"/>
      <point x="214" y="663"/>
      <point x="139" y="660"/>
    </contour>
    <contour>
      <point x="317" y="-33" type="curve"/>
      <point x="369" y="-33" type="line"/>
      <point x="404.18" y="-57.9661"/>
      <point x="434.852" y="-67.8003"/>
      <point x="465.401" y="-67.8003" type="curve" smooth="yes"/>
      <point x="488.691" y="-67.8003"/>
      <point x="511.91" y="-62.0843"/>
      <point x="537" y="-53" type="curve"/>
      <point x="537" y="-133" type="line"/>
      <point x="519.729" y="-139.477"/>
      <point x="499.005" y="-142.846"/>
      <point x="477.258" y="-142.846" type="curve" smooth="yes"/>
      <point x="408.347" y="-142.846"/>
      <point x="329.162" y="-109.012"/>
    </contour>
  </outline>
</glyph>
<glyph name="R" format="1">
  <advance width="593"/>
  <unicode hex="0052"/>
  <outline>
    <contour>
      <point x="60" y="0" type="line"/>
      <point x="60" y="732" type="line"/>
      <point x="372" y="732" type="line" smooth="yes"/>
      <point x="467" y="732"/>
      <point x="541" y="678"/>
      <point x="541" y="512" type="curve" smooth="yes"/>
      <point x="541" y="322"/>
      <point x="442" y="306"/>
      <point x="414" y="302" type="curve"/>
      <point x="568" y="0" type="line"/>
      <point x="488" y="0" type="line"/>
      <point x="334" y="299" type="line"/>
      <point x="134" y="313" type="line"/>
      <point x="134" y="0" type="line"/>
    </contour>
    <contour>
      <point x="134" y="379" type="line"/>
      <point x="372" y="379" type="line" smooth="yes"/>
      <point x="418" y="379"/>
      <point x="466" y="379"/>
      <point x="466" y="512" type="curve" smooth="yes"/>
      <point x="466" y="643"/>
      <point x="416" y="657"/>
      <point x="372" y="657" type="curve" smooth="yes"/>
      <point x="134" y="657" type="line"/>
    </contour>
  </outline>
</glyph>
<glyph name="S" format="1">
  <advance width="584"/>
  <unicode hex="0053"/>
  <outline>
    <contour>
      <point x="65" y="494" type="curve" smooth="yes"/>
      <point x="65" y="560" type="line" smooth="yes"/>
      <point x="65" y="705"/>
      <point x="151" y="738"/>
      <point x="263" y="738" type="curve" smooth="yes"/>
      <point x="316" y="738"/>
      <point x="475" y="719"/>
      <point x="513" y="714" type="curve"/>
      <point x="513" y="654" type="line"/>
      <point x="449" y="658"/>
      <point x="263" y="664"/>
      <point x="263" y="664" type="curve" smooth="yes"/>
      <point x="255.678" y="664.314"/>
      <point x="248.531" y="664.518"/>
      <point x="241.603" y="664.518" type="curve" smooth="yes"/>
      <point x="182.294" y="664.518"/>
      <point x="139" y="649.54"/>
      <point x="139" y="560" type="curve" smooth="yes"/>
      <point x="139" y="494" type="line" smooth="yes"/>
      <point x="139" y="403"/>
      <point x="181" y="396"/>
      <point x="241" y="396" type="curve" smooth="yes"/>
      <point x="383" y="396" type="line" smooth="yes"/>
      <point x="516" y="396"/>
      <point x="539" y="306"/>
      <point x="539" y="224" type="curve" smooth="yes"/>
      <point x="539" y="156" type="line" smooth="yes"/>
      <point x="539" y="14"/>
      <point x="436" y="-8"/>
      <point x="337" y="-8" type="curve" smooth="yes"/>
      <point x="288" y="-8"/>
      <point x="133" y="9"/>
      <point x="87" y="17" type="curve"/>
      <point x="87" y="77" type="line"/>
      <point x="127" y="73"/>
      <point x="244" y="66"/>
      <point x="337" y="66" type="curve" smooth="yes"/>
      <point x="378" y="66"/>
      <point x="465" y="68"/>
      <point x="465" y="156" type="curve" smooth="yes"/>
      <point x="465" y="224" type="line" smooth="yes"/>
      <point x="465" y="281"/>
      <point x="448" y="322"/>
      <point x="383" y="322" type="curve" smooth="yes"/>
      <point x="243" y="322" type="line" smooth="yes"/>
      <point x="83" y="322"/>
      <point x="65" y="410"/>
    </contour>
  </outline>
</glyph>
<glyph name="T" format="1">
  <advance width="578"/>
  <unicode hex="0054"/>
  <outline>
    <contour>
      <point x="45" y="658" type="line"/>
      <point x="45" y="732" type="line"/>
      <point x="553" y="732" type="line"/>
      <point x="553" y="658" type="line"/>
      <point x="333" y="658" type="line"/>
      <point x="333" y="0" type="line"/>
      <point x="259" y="0" type="line"/>
      <point x="259" y="658" type="line"/>
    </contour>
  </outline>
</glyph>
<glyph name="U" format="1">
  <advance width="677"/>
  <unicode hex="0055"/>
  <outline>
    <contour>
      <point x="80" y="320" type="curve" smooth="yes"/>
      <point x="80" y="732" type="line"/>
      <point x="154" y="732" type="line"/>
      <point x="154" y="320" type="line" smooth="yes"/>
      <point x="154" y="74.4647"/>
      <point x="227.022" y="68.9881"/>
      <point x="335.567" y="68.9881" type="curve" smooth="yes"/>
      <point x="340.635" y="68.9881"/>
      <point x="345.781" y="69"/>
      <point x="351" y="69" type="curve" smooth="yes"/>
      <point x="450" y="69"/>
      <point x="542" y="71"/>
      <point x="542" y="320" type="curve" smooth="yes"/>
      <point x="542" y="732" type="line"/>
      <point x="617" y="732" type="line"/>
      <point x="617" y="320" type="line" smooth="yes"/>
      <point x="617" y="-3"/>
      <point x="472" y="-5"/>
      <point x="351" y="-5" type="curve" smooth="yes"/>
      <point x="344.765" y="-5"/>
      <point x="338.532" y="-5.01681"/>
      <point x="332.314" y="-5.01681" type="curve" smooth="yes"/>
      <point x="202.906" y="-5.01681"/>
      <point x="80" y="2.26648"/>
    </contour>
  </outline>
</glyph>
<glyph name="V" format="1">
  <advance width="670"/>
  <unicode hex="0056"/>
  <outline>
    <contour>
      <point x="45" y="732" type="line"/>
      <point x="126" y="732" type="line"/>
      <point x="340" y="118" type="line"/>
      <point x="564" y="732" type="line"/>
      <point x="645" y="732" type="line"/>
      <point x="376" y="0" type="line"/>
      <point x="302" y="0" type="line"/>
    </contour>
  </outline>
</glyph>
<glyph name="X" format="1">
  <advance width="596"/>
  <unicode hex="0058"/>
  <outline>
    <contour>
      <point x="45" y="732" type="line"/>
      <point x="126" y="732" type="line"/>
      <point x="306" y="425" type="line"/>
      <point x="490" y="732" type="line"/>
      <point x="571" y="732" type="line"/>
      <point x="355" y="371" type="line"/>
      <point x="566" y="0" type="line"/>
      <point x="485" y="0" type="line"/>
      <point x="306" y="308" type="line"/>
      <point x="129" y="0" type="line"/>
      <point x="48" y="0" type="line"/>
      <point x="257" y="371" type="line"/>
    </contour>
  </outline>
</glyph>
<glyph name="bracketleft" format="1">
  <advance width="321"/>
  <unicode hex="005B"/>
  <outline>
    <contour>
      <point x="85" y="-38" type="curve" smooth="yes"/>
      <point x="85" y="670" type="line" smooth="yes"/>
      <point x="85" y="730"/>
      <point x="100" y="842"/>
      <point x="221" y="842" type="curve" smooth="yes"/>
      <point x="301" y="842" type="line"/>
      <point x="301" y="768" type="line"/>
      <point x="221" y="768" type="line" smooth="yes"/>
      <point x="183" y="768"/>
      <point x="159" y="730"/>
      <point x="159" y="670" type="curve" smooth="yes"/>
      <point x="159" y="-38" type="line" smooth="yes"/>
      <point x="159" y="-98"/>
      <point x="183" y="-136"/>
      <point x="221" y="-136" type="curve" smooth="yes"/>
      <point x="301" y="-136" type="line"/>
      <point x="301" y="-210" type="line"/>
      <point x="221" y="-210" type="line" smooth="yes"/>
      <point x="100" y="-210"/>
      <point x="85" y="-98"/>
    </contour>
  </outline>
</glyph>
<glyph name="bracketright" format="1">
  <advance width="321"/>
  <unicode hex="005D"/>
  <outline>
    <contour>
      <point x="20" y="-136" type="line"/>
      <point x="100" y="-136" type="line" smooth="yes"/>
      <point x="138" y="-136"/>
      <point x="162" y="-98"/>
      <point x="162" y="-38" type="curve" smooth="yes"/>
      <point x="162" y="670" type="line" smooth="yes"/>
      <point x="162" y="730"/>
      <point x="138" y="768"/>
      <point x="100" y="768" type="curve" smooth="yes"/>
      <point x="20" y="768" type="line"/>
      <point x="20" y="842" type="line"/>
      <point x="100" y="842" type="line" smooth="yes"/>
      <point x="221" y="842"/>
      <point x="236" y="730"/>
      <point x="236" y="670" type="curve" smooth="yes"/>
      <point x="236" y="-38" type="line" smooth="yes"/>
      <point x="236" y="-98"/>
      <point x="221" y="-210"/>
      <point x="100" y="-210" type="curve" smooth="yes"/>
      <point x="20" y="-210" type="line"/>
    </contour>
  </outline>
</glyph>
<glyph name="asciicircum" format="1">
  <advance width="392"/>
  <unicode hex="005E"/>
  <outline>
    <contour>
      <point x="50" y="531" type="line"/>
      <point x="167" y="661" type="line"/>
      <point x="238" y="661" type="line"/>
      <point x="342" y="531" type="line"/>
      <point x="271" y="531" type="line"/>
      <point x="201" y="602" type="line"/>
      <point x="122" y="531" type="line"/>
    </contour>
    <contour>
      <point x="238" y="661" type="move" smooth="yes"/>
    </contour>
  </outline>
</glyph>
<glyph name="underscore" format="1">
  <advance width="674"/>
  <unicode hex="005F"/>
  <outline>
    <contour>
      <point x="20" y="-1" type="line"/>
      <point x="20" y="73" type="line"/>
      <point x="654" y="73" type="line"/>
      <point x="654" y="-1" type="line"/>
    </contour>
  </outline>
</glyph>
<glyph name="grave" format="1">
  <advance width="242"/>
  <unicode hex="0060"/>
  <outline>
    <contour>
      <point x="20" y="664" type="line"/>
      <point x="115" y="664" type="line"/>
      <point x="222" y="531" type="line"/>
      <point x="153" y="531" type="line"/>
    </contour>
  </outline>
</glyph>
<glyph name="a" format="1">
  <advance width="519"/>
  <unicode hex="0061"/>
  <outline>
    <contour>
      <point x="40" y="126" type="curve" smooth="yes"/>
      <point x="40" y="187" type="line" smooth="yes"/>
      <point x="40" y="267"/>
      <point x="90" y="320"/>
      <point x="173" y="320" type="curve" smooth="yes"/>
      <point x="173" y="320"/>
      <point x="271.667" y="319.556"/>
      <point x="337.444" y="319.556" type="curve" smooth="yes"/>
      <point x="370.333" y="319.556"/>
      <point x="395" y="319.667"/>
      <point x="395" y="320" type="curve" smooth="yes"/>
      <point x="395" y="320"/>
      <point x="395.444" y="349.333"/>
      <point x="395.444" y="369.185" type="curve" smooth="yes"/>
      <point x="395.444" y="379.111"/>
      <point x="395.333" y="386.667"/>
      <point x="395" y="387" type="curve" smooth="yes"/>
      <point x="395" y="448"/>
      <point x="363" y="469"/>
      <point x="313" y="469" type="curve" smooth="yes"/>
      <point x="241" y="469"/>
      <point x="154" y="464"/>
      <point x="57" y="457" type="curve"/>
      <point x="57" y="511" type="line"/>
      <point x="128" y="531"/>
      <point x="217" y="540"/>
      <point x="316" y="541" type="curve" smooth="yes"/>
      <point x="316.9" y="541.011"/>
      <point x="317.799" y="541.016"/>
      <point x="318.696" y="541.016" type="curve" smooth="yes"/>
      <point x="400.51" y="541.016"/>
      <point x="469" y="495.807"/>
      <point x="469" y="387" type="curve" smooth="yes"/>
      <point x="469" y="0" type="line"/>
      <point x="414" y="0" type="line"/>
      <point x="395" y="64" type="line" smooth="yes"/>
      <point x="393" y="64"/>
      <point x="264" y="-6"/>
      <point x="173" y="-6" type="curve" smooth="yes"/>
      <point x="100" y="-6"/>
      <point x="40" y="41"/>
    </contour>
    <contour>
      <point x="114" y="131" type="line" smooth="yes"/>
      <point x="114" y="83"/>
      <point x="139" y="68"/>
      <point x="173" y="68" type="curve" smooth="yes"/>
      <point x="253" y="68"/>
      <point x="395" y="119"/>
      <point x="395" y="119" type="curve"/>
      <point x="395" y="262" type="line"/>
      <point x="173" y="246" type="line" smooth="yes"/>
      <point x="130" y="242"/>
      <point x="114" y="213"/>
      <point x="114" y="181" type="curve" smooth="yes"/>
    </contour>
  </outline>
</glyph>
<glyph name="b" format="1">
  <advance width="554"/>
  <unicode hex="0062"/>
  <outline>
    <contour>
      <point x="60" y="0" type="line"/>
      <point x="60" y="785" type="line"/>
      <point x="132" y="785" type="line"/>
      <point x="132" y="499" type="line"/>
      <point x="196" y="525"/>
      <point x="284" y="539"/>
      <point x="329" y="539" type="curve" smooth="yes"/>
      <point x="480" y="539"/>
      <point x="504" y="399"/>
      <point x="504" y="263" type="curve" smooth="yes"/>
      <point x="504" y="141"/>
      <point x="474" y="-6"/>
      <point x="329" y="-6" type="curve" smooth="yes"/>
      <point x="261" y="-6"/>
      <point x="159" y="40"/>
      <point x="133" y="59" type="curve"/>
      <point x="113" y="0" type="line"/>
    </contour>
    <contour>
      <point x="133" y="114" type="line"/>
      <point x="187" y="92"/>
      <point x="250" y="68"/>
      <point x="329" y="68" type="curve" smooth="yes"/>
      <point x="394" y="68"/>
      <point x="430" y="133"/>
      <point x="430" y="263" type="curve" smooth="yes"/>
      <point x="430" y="426"/>
      <point x="393" y="465"/>
      <point x="329" y="465" type="curve" smooth="yes"/>
      <point x="252" y="465"/>
      <point x="202" y="457"/>
      <point x="133" y="439" type="curve"/>
    </contour>
  </outline>
</glyph>
<glyph name="c" format="1">
  <advance width="500"/>
  <unicode hex="0063"/>
  <outline>
    <contour>
      <point x="50" y="266" type="curve" smooth="yes"/>
      <point x="50" y="498"/>
      <point x="123" y="536"/>
      <point x="225" y="536" type="curve" smooth="yes"/>
      <point x="277" y="536"/>
      <point x="383" y="523"/>
      <point x="453" y="510" type="curve"/>
      <point x="453" y="456" type="line"/>
      <point x="453" y="456"/>
      <point x="314" y="462"/>
      <point x="225" y="462" type="curve" smooth="yes"/>
      <point x="165" y="462"/>
      <point x="124" y="451"/>
      <point x="124" y="262" type="curve" smooth="yes"/>
      <point x="124" y="109"/>
      <point x="153" y="69"/>
      <point x="225" y="69" type="curve" smooth="yes"/>
      <point x="317" y="69"/>
      <point x="460" y="80"/>
      <point x="460" y="80" type="curve"/>
      <point x="460" y="24" type="line"/>
      <point x="379" y="1"/>
      <point x="308" y="-4"/>
      <point x="225" y="-5" type="curve" smooth="yes"/>
      <point x="126" y="-5"/>
      <point x="50" y="33"/>
    </contour>
  </outline>
</glyph>
<glyph name="d" format="1">
  <advance width="554"/>
  <unicode hex="0064"/>
  <outline>
    <contour>
      <point x="50" y="263" type="curve" smooth="yes"/>
      <point x="50" y="399"/>
      <point x="74" y="539"/>
      <point x="225" y="539" type="curve" smooth="yes"/>
      <point x="270" y="539"/>
      <point x="357" y="525"/>
      <point x="421" y="499" type="curve"/>
      <point x="421" y="785" type="line"/>
      <point x="494" y="785" type="line"/>
      <point x="494" y="0" type="line"/>
      <point x="441" y="0" type="line"/>
      <point x="421" y="59" type="line"/>
      <point x="395" y="40"/>
      <point x="293" y="-6"/>
      <point x="225" y="-6" type="curve" smooth="yes"/>
      <point x="80" y="-6"/>
      <point x="50" y="141"/>
    </contour>
    <contour>
      <point x="124" y="263" type="curve" smooth="yes"/>
      <point x="124" y="133"/>
      <point x="160" y="68"/>
      <point x="225" y="68" type="curve" smooth="yes"/>
      <point x="304" y="68"/>
      <point x="367" y="92"/>
      <point x="421" y="114" type="curve"/>
      <point x="421" y="439" type="line"/>
      <point x="352" y="457"/>
      <point x="302" y="465"/>
      <point x="225" y="465" type="curve" smooth="yes"/>
      <point x="161" y="465"/>
      <point x="124" y="426"/>
    </contour>
  </outline>
</glyph>
<glyph name="e" format="1">
  <advance width="525"/>
  <unicode hex="0065"/>
  <outline>
    <contour>
      <point x="50" y="268" type="curve" smooth="yes"/>
      <point x="50" y="505"/>
      <point x="118" y="535"/>
      <point x="282" y="535" type="curve" smooth="yes"/>
      <point x="407" y="535"/>
      <point x="485" y="523"/>
      <point x="485" y="347" type="curve" smooth="yes"/>
      <point x="485" y="270"/>
      <point x="444" y="225"/>
      <point x="348" y="225" type="curve" smooth="yes"/>
      <point x="124" y="225" type="line"/>
      <point x="124" y="100"/>
      <point x="147" y="69"/>
      <point x="225" y="69" type="curve" smooth="yes"/>
      <point x="239.154" y="69"/>
      <point x="253.095" y="68.9763"/>
      <point x="266.826" y="68.9763" type="curve" smooth="yes"/>
      <point x="342.349" y="68.9763"/>
      <point x="411.538" y="69.6923"/>
      <point x="475" y="79" type="curve"/>
      <point x="475" y="23" type="line"/>
      <point x="394" y="0"/>
      <point x="308" y="-5"/>
      <point x="225" y="-5" type="curve" smooth="yes"/>
      <point x="90" y="-5"/>
      <point x="50" y="60"/>
    </contour>
    <contour>
      <point x="124" y="298" type="curve"/>
      <point x="348" y="298" type="line" smooth="yes"/>
      <point x="392" y="298"/>
      <point x="411" y="314"/>
      <point x="411" y="347" type="curve" smooth="yes"/>
      <point x="411" y="452"/>
      <point x="391" y="461"/>
      <point x="283" y="461" type="curve" smooth="yes"/>
      <point x="170" y="461"/>
      <point x="124" y="460"/>
    </contour>
  </outline>
</glyph>
<glyph name="f" format="1">
  <advance width="400"/>
  <unicode hex="0066"/>
  <outline>
    <contour>
      <point x="20" y="457" type="line"/>
      <point x="20" y="514" type="line"/>
      <point x="117" y="531" type="line"/>
      <point x="117" y="630" type="line" smooth="yes"/>
      <point x="117" y="684"/>
      <point x="120" y="786"/>
      <point x="240" y="786" type="curve" smooth="yes"/>
      <point x="289" y="786"/>
      <point x="331" y="777"/>
      <point x="380" y="762" type="curve"/>
      <point x="380" y="713" type="line" smooth="yes"/>
      <point x="379" y="713"/>
      <point x="257" y="714"/>
      <point x="257" y="714" type="curve" smooth="yes"/>
      <point x="256.154" y="714.013"/>
      <point x="255.319" y="714.02"/>
      <point x="254.494" y="714.02" type="curve" smooth="yes"/>
      <point x="192.947" y="714.02"/>
      <point x="191" y="677.365"/>
      <point x="191" y="630" type="curve" smooth="yes"/>
      <point x="191" y="531" type="line"/>
      <point x="339" y="531" type="line"/>
      <point x="339" y="457" type="line"/>
      <point x="191" y="457" type="line"/>
      <point x="191" y="0" type="line"/>
      <point x="117" y="0" type="line"/>
      <point x="117" y="457" type="line"/>
    </contour>
  </outline>
</glyph>
<glyph name="g" format="1">
  <advance width="554"/>
  <unicode hex="0067"/>
  <outline>
    <contour>
      <point x="48" y="115" type="curve" smooth="yes"/>
      <point x="48" y="148"/>
      <point x="66" y="190"/>
      <point x="107" y="198" type="curve"/>
      <point x="63" y="226"/>
      <point x="49" y="291"/>
      <point x="49" y="344" type="curve" smooth="yes"/>
      <point x="49" y="471"/>
      <point x="115" y="533"/>
      <point x="222" y="533" type="curve" smooth="yes"/>
      <point x="534" y="533" type="line"/>
      <point x="534" y="477" type="line"/>
      <point x="453" y="459" type="line"/>
      <point x="464" y="438"/>
      <point x="484" y="417"/>
      <point x="484" y="344" type="curve" smooth="yes"/>
      <point x="484" y="284"/>
      <point x="461" y="149"/>
      <point x="319" y="149" type="curve" smooth="yes"/>
      <point x="163" y="149" type="line" smooth="yes"/>
      <point x="147" y="149"/>
      <point x="122" y="145"/>
      <point x="122" y="119" type="curve" smooth="yes"/>
      <point x="122" y="93"/>
      <point x="141" y="85"/>
      <point x="163" y="85" type="curve" smooth="yes"/>
      <point x="376" y="85" type="line" smooth="yes"/>
      <point x="459" y="85"/>
      <point x="505" y="30"/>
      <point x="505" y="-53" type="curve" smooth="yes"/>
      <point x="505" y="-116" type="line" smooth="yes"/>
      <point x="505" y="-176"/>
      <point x="486" y="-270"/>
      <point x="355" y="-270" type="curve" smooth="yes"/>
      <point x="205" y="-270" type="line" smooth="yes"/>
      <point x="111" y="-270"/>
      <point x="45" y="-220"/>
      <point x="45" y="-116" type="curve" smooth="yes"/>
      <point x="45" y="-31" type="line"/>
      <point x="85" y="34" type="line"/>
      <point x="57" y="54"/>
      <point x="48" y="88"/>
    </contour>
    <contour>
      <point x="119" y="-116" type="line" smooth="yes"/>
      <point x="119" y="-189"/>
      <point x="170" y="-196"/>
      <point x="205" y="-196" type="curve" smooth="yes"/>
      <point x="355" y="-196" type="line" smooth="yes"/>
      <point x="414" y="-196"/>
      <point x="431" y="-163"/>
      <point x="431" y="-116" type="curve" smooth="yes"/>
      <point x="431" y="-58" type="line" smooth="yes"/>
      <point x="431" y="-11"/>
      <point x="421" y="11"/>
      <point x="363" y="11" type="curve" smooth="yes"/>
      <point x="164" y="11" type="line" smooth="yes"/>
      <point x="133" y="11"/>
      <point x="119" y="19"/>
      <point x="119" y="19" type="curve"/>
    </contour>
    <contour>
      <point x="123" y="344" type="curve" smooth="yes"/>
      <point x="123" y="295"/>
      <point x="138" y="223"/>
      <point x="215" y="223" type="curve" smooth="yes"/>
      <point x="313" y="223" type="line" smooth="yes"/>
      <point x="389.349" y="223"/>
      <point x="410.139" y="290.4"/>
      <point x="410.139" y="337.406" type="curve" smooth="yes"/>
      <point x="410.139" y="339.654"/>
      <point x="410.091" y="341.855"/>
      <point x="410" y="344" type="curve" smooth="yes"/>
      <point x="407" y="414"/>
      <point x="391" y="459"/>
      <point x="312" y="459" type="curve" smooth="yes"/>
      <point x="222" y="459" type="line" smooth="yes"/>
      <point x="140" y="459"/>
      <point x="123" y="399"/>
    </contour>
  </outline>
</glyph>
<glyph name="h" format="1">
  <advance width="544"/>
  <unicode hex="0068"/>
  <outline>
    <contour>
      <point x="60" y="0" type="line"/>
      <point x="60" y="784" type="line"/>
      <point x="134" y="784" type="line"/>
      <point x="134" y="469" type="line"/>
      <point x="195" y="504"/>
      <point x="249" y="540"/>
      <point x="330" y="540" type="curve" smooth="yes"/>
      <point x="436" y="540"/>
      <point x="494" y="458"/>
      <point x="494" y="370" type="curve" smooth="yes"/>
      <point x="494" y="0" type="line"/>
      <point x="420" y="0" type="line"/>
      <point x="420" y="370" type="line" smooth="yes"/>
      <point x="420" y="436"/>
      <point x="382" y="466"/>
      <point x="330" y="466" type="curve" smooth="yes"/>
      <point x="250" y="466"/>
      <point x="211" y="446"/>
      <point x="134" y="409" type="curve"/>
      <point x="134" y="0" type="line"/>
    </contour>
  </outline>
</glyph>
<glyph name="i" format="1">
  <advance width="197"/>
  <unicode hex="0069"/>
  <outline>
    <contour>
      <point x="50" y="617" type="curve" smooth="yes"/>
      <point x="50" y="671" type="line" smooth="yes"/>
      <point x="50" y="686"/>
      <point x="58" y="696"/>
      <point x="74" y="696" type="curve" smooth="yes"/>
      <point x="124" y="696" type="line" smooth="yes"/>
      <point x="139" y="696"/>
      <point x="147" y="685"/>
      <point x="147" y="671" type="curve" smooth="yes"/>
      <point x="147" y="617" type="line" smooth="yes"/>
      <point x="147" y="602"/>
      <point x="138" y="594"/>
      <point x="124" y="594" type="curve" smooth="yes"/>
      <point x="74" y="594" type="line" smooth="yes"/>
      <point x="60" y="594"/>
      <point x="50" y="603"/>
    </contour>
    <contour>
      <point x="60" y="0" type="line"/>
      <point x="60" y="531" type="line"/>
      <point x="134" y="531" type="line"/>
      <point x="134" y="0" type="line"/>
    </contour>
  </outline>
</glyph>
<glyph name="j" format="1">
  <advance width="217"/>
  <unicode hex="006A"/>
  <outline>
    <contour>
      <point x="60" y="617" type="curve" smooth="yes"/>
      <point x="60" y="671" type="line" smooth="yes"/>
      <point x="60" y="686"/>
      <point x="68" y="696"/>
      <point x="84" y="696" type="curve" smooth="yes"/>
      <point x="134" y="696" type="line" smooth="yes"/>
      <point x="149" y="696"/>
      <point x="157" y="685"/>
      <point x="157" y="671" type="curve" smooth="yes"/>
      <point x="157" y="617" type="line" smooth="yes"/>
      <point x="157" y="602"/>
      <point x="148" y="594"/>
      <point x="134" y="594" type="curve" smooth="yes"/>
      <point x="84" y="594" type="line" smooth="yes"/>
      <point x="70" y="594"/>
      <point x="60" y="603"/>
    </contour>
    <contour>
      <point x="71" y="-270" type="line"/>
      <point x="71" y="531" type="line"/>
      <point x="145" y="531" type="line"/>
      <point x="145" y="-4" type="line" smooth="yes"/>
      <point x="145.119" y="-14.2562"/>
      <point x="145.196" y="-24.7115"/>
      <point x="145.196" y="-35.3083" type="curve" smooth="yes"/>
      <point x="145.196" y="-113.567"/>
      <point x="141.019" y="-199.541"/>
      <point x="119" y="-270" type="curve"/>
    </contour>
  </outline>
</glyph>
<glyph name="k" format="1">
  <advance width="500"/>
  <unicode hex="006B"/>
  <outline>
    <contour>
      <point x="60" y="0" type="line"/>
      <point x="60" y="782" type="line"/>
      <point x="134" y="782" type="line"/>
      <point x="134" y="342" type="line"/>
      <point x="174" y="342" type="line"/>
      <point x="377" y="531" type="line"/>
      <point x="480" y="531" type="line"/>
      <point x="244" y="305" type="line"/>
      <point x="480" y="0" type="line"/>
      <point x="388" y="0" type="line"/>
      <point x="174" y="268" type="line"/>
      <point x="134" y="268" type="line"/>
      <point x="134" y="0" type="line"/>
    </contour>
  </outline>
</glyph>
<glyph name="l" format="1">
  <advance width="300"/>
  <unicode hex="006C"/>
  <outline>
    <contour>
      <point x="60" y="189" type="curve" smooth="yes"/>
      <point x="60" y="783" type="line"/>
      <point x="134" y="783" type="line"/>
      <point x="134" y="189" type="line" smooth="yes"/>
      <point x="134" y="102"/>
      <point x="157" y="82"/>
      <point x="191" y="74" type="curve" smooth="yes"/>
      <point x="191" y="74"/>
      <point x="273" y="53"/>
      <point x="280" y="53" type="curve"/>
      <point x="280" y="0" type="line"/>
      <point x="192" y="0" type="line" smooth="yes"/>
      <point x="115" y="0"/>
      <point x="60" y="48"/>
    </contour>
  </outline>
</glyph>
<glyph name="m" format="1">
  <advance width="898"/>
  <unicode hex="006D"/>
  <outline>
    <contour>
      <point x="60" y="0" type="line"/>
      <point x="60" y="531" type="line"/>
      <point x="112" y="531" type="line"/>
      <point x="134" y="467" type="line"/>
      <point x="195" y="502"/>
      <point x="244" y="537"/>
      <point x="323" y="537" type="curve" smooth="yes"/>
      <point x="388" y="537"/>
      <point x="447" y="508"/>
      <point x="470" y="459" type="curve"/>
      <point x="522" y="502"/>
      <point x="595" y="537"/>
      <point x="684" y="537" type="curve" smooth="yes"/>
      <point x="776" y="537"/>
      <point x="848" y="468"/>
      <point x="848" y="366" type="curve" smooth="yes"/>
      <point x="848" y="0" type="line"/>
      <point x="774" y="0" type="line"/>
      <point x="774" y="366" type="line" smooth="yes"/>
      <point x="774" y="425"/>
      <point x="736" y="463"/>
      <point x="684" y="463" type="curve" smooth="yes"/>
      <point x="605" y="463"/>
      <point x="554" y="450"/>
      <point x="488" y="407" type="curve"/>
      <point x="488" y="368" type="line"/>
      <point x="488" y="0" type="line"/>
      <point x="414" y="0" type="line"/>
      <point x="414" y="366" type="line" smooth="yes"/>
      <point x="414" y="425"/>
      <point x="375" y="463"/>
      <point x="323" y="463" type="curve" smooth="yes"/>
      <point x="246" y="463"/>
      <point x="211" y="444"/>
      <point x="134" y="407" type="curve"/>
      <point x="134" y="0" type="line"/>
    </contour>
  </outline>
</glyph>
<glyph name="o" format="1">
  <advance width="568"/>
  <unicode hex="006F"/>
  <outline>
    <contour>
      <point x="50" y="258" type="curve" smooth="yes"/>
      <point x="50" y="475"/>
      <point x="110" y="536"/>
      <point x="284" y="536" type="curve" smooth="yes"/>
      <point x="463" y="536"/>
      <point x="518" y="469"/>
      <point x="518" y="258" type="curve" smooth="yes"/>
      <point x="518" y="61"/>
      <point x="463" y="-5"/>
      <point x="284" y="-5" type="curve" smooth="yes"/>
      <point x="105" y="-5"/>
      <point x="50" y="68"/>
    </contour>
    <contour>
      <point x="124" y="258" type="curve" smooth="yes"/>
      <point x="124" y="81"/>
      <point x="181" y="69"/>
      <point x="284" y="69" type="curve" smooth="yes"/>
      <point x="392" y="69"/>
      <point x="444" y="83"/>
      <point x="444" y="258" type="curve" smooth="yes"/>
      <point x="444" y="448"/>
      <point x="401" y="462"/>
      <point x="284" y="462" type="curve" smooth="yes"/>
      <point x="172" y="462"/>
      <point x="124" y="449"/>
    </contour>
  </outline>
</glyph>
<glyph name="p" format="1">
  <advance width="554"/>
  <unicode hex="0070"/>
  <outline>
    <contour>
      <point x="60" y="-270" type="line"/>
      <point x="60" y="531" type="line"/>
      <point x="113" y="531" type="line"/>
      <point x="132" y="472" type="line"/>
      <point x="158" y="491"/>
      <point x="261" y="537"/>
      <point x="329" y="537" type="curve" smooth="yes"/>
      <point x="474" y="537"/>
      <point x="504" y="390"/>
      <point x="504" y="268" type="curve" smooth="yes"/>
      <point x="504" y="132"/>
      <point x="480" y="-8"/>
      <point x="329" y="-8" type="curve" smooth="yes"/>
      <point x="284" y="-8"/>
      <point x="196" y="6"/>
      <point x="132" y="32" type="curve"/>
      <point x="132" y="-270" type="line"/>
    </contour>
    <contour>
      <point x="132" y="92" type="line"/>
      <point x="201" y="74"/>
      <point x="252" y="66"/>
      <point x="329" y="66" type="curve" smooth="yes"/>
      <point x="393" y="66"/>
      <point x="430" y="105"/>
      <point x="430" y="268" type="curve" smooth="yes"/>
      <point x="430" y="398"/>
      <point x="394" y="463"/>
      <point x="329" y="463" type="curve" smooth="yes"/>
      <point x="250" y="463"/>
      <point x="186" y="439"/>
      <point x="132" y="417" type="curve"/>
    </contour>
  </outline>
</glyph>
<glyph name="q" format="1">
  <advance width="555"/>
  <unicode hex="0071"/>
  <outline>
    <contour>
      <point x="50" y="268" type="curve" smooth="yes"/>
      <point x="50" y="436"/>
      <point x="109" y="537"/>
      <point x="234" y="537" type="curve" smooth="yes"/>
      <point x="340" y="537"/>
      <point x="448" y="518"/>
      <point x="495" y="514" type="curve"/>
      <point x="495" y="-270" type="line"/>
      <point x="421" y="-270" type="line"/>
      <point x="421" y="29" type="line"/>
      <point x="357" y="3"/>
      <point x="279" y="-10"/>
      <point x="234" y="-10" type="curve" smooth="yes"/>
      <point x="81" y="-10"/>
      <point x="50" y="110"/>
    </contour>
    <contour>
      <point x="124" y="268" type="curve" smooth="yes"/>
      <point x="124" y="262.295"/>
      <point x="123.983" y="256.461"/>
      <point x="123.983" y="250.54" type="curve" smooth="yes"/>
      <point x="123.983" y="166.159"/>
      <point x="127.475" y="64"/>
      <point x="234" y="64" type="curve" smooth="yes"/>
      <point x="308" y="64"/>
      <point x="338" y="68"/>
      <point x="421" y="89" type="curve"/>
      <point x="421" y="463" type="line"/>
      <point x="234" y="463" type="line" smooth="yes"/>
      <point x="127" y="463"/>
      <point x="124" y="331"/>
    </contour>
  </outline>
</glyph>
<glyph name="r" format="1">
  <advance width="426"/>
  <unicode hex="0072"/>
  <outline>
    <contour>
      <point x="60" y="0" type="line"/>
      <point x="60" y="531" type="line"/>
      <point x="112" y="531" type="line"/>
      <point x="134" y="464" type="line"/>
      <point x="195" y="499"/>
      <point x="250" y="537"/>
      <point x="332" y="537" type="curve" smooth="yes"/>
      <point x="361" y="537"/>
      <point x="394" y="535"/>
      <point x="406" y="529" type="curve"/>
      <point x="406" y="456" type="line"/>
      <point x="394" y="459"/>
      <point x="361" y="462"/>
      <point x="332" y="462" type="curve" smooth="yes"/>
      <point x="252" y="462"/>
      <point x="211" y="441"/>
      <point x="134" y="404" type="curve"/>
      <point x="134" y="0" type="line"/>
    </contour>
  </outline>
</glyph>
<glyph name="s" format="1">
  <advance width="506"/>
  <unicode hex="0073"/>
  <outline>
    <contour>
      <point x="40" y="358" type="curve" smooth="yes"/>
      <point x="40" y="404" type="line" smooth="yes"/>
      <point x="40" y="486"/>
      <point x="75" y="536"/>
      <point x="178" y="536" type="curve" smooth="yes"/>
      <point x="230" y="536"/>
      <point x="387" y="525"/>
      <point x="439" y="520" type="curve"/>
      <point x="439" y="463" type="line"/>
      <point x="178" y="463" type="line" smooth="yes"/>
      <point x="114" y="463"/>
      <point x="114" y="438"/>
      <point x="114" y="404" type="curve" smooth="yes"/>
      <point x="114" y="358" type="line" smooth="yes"/>
      <point x="114" y="303"/>
      <point x="141" y="301"/>
      <point x="178" y="301" type="curve" smooth="yes"/>
      <point x="336" y="301" type="line" smooth="yes"/>
      <point x="423" y="301"/>
      <point x="466" y="247"/>
      <point x="466" y="172" type="curve" smooth="yes"/>
      <point x="466" y="123" type="line" smooth="yes"/>
      <point x="466" y="14"/>
      <point x="400" y="-5"/>
      <point x="336" y="-5" type="curve" smooth="yes"/>
      <point x="287" y="-5"/>
      <point x="100" y="10"/>
      <point x="62" y="14" type="curve"/>
      <point x="62" y="69" type="line"/>
      <point x="336" y="69" type="line"/>
      <point x="336" y="69"/>
      <point x="337.556" y="68.8333"/>
      <point x="340.148" y="68.8333" type="curve" smooth="yes"/>
      <point x="353.111" y="68.8333"/>
      <point x="392" y="73"/>
      <point x="392" y="123" type="curve" smooth="yes"/>
      <point x="392" y="172" type="line" smooth="yes"/>
      <point x="392" y="207"/>
      <point x="380" y="227"/>
      <point x="336" y="227" type="curve" smooth="yes"/>
      <point x="178" y="227" type="line" smooth="yes"/>
      <point x="84" y="227"/>
      <point x="40" y="255"/>
    </contour>
  </outline>
</glyph>
<glyph name="t" format="1">
  <advance width="378"/>
  <unicode hex="0074"/>
  <outline>
    <contour>
      <point x="20" y="458" type="line"/>
      <point x="20" y="514" type="line"/>
      <point x="119" y="532" type="line"/>
      <point x="137" y="680" type="line"/>
      <point x="193" y="680" type="line"/>
      <point x="193" y="532" type="line"/>
      <point x="348" y="532" type="line"/>
      <point x="348" y="458" type="line"/>
      <point x="193" y="458" type="line"/>
      <point x="193" y="190" type="line" smooth="yes"/>
      <point x="193" y="103"/>
      <point x="216" y="83"/>
      <point x="250" y="75" type="curve" smooth="yes"/>
      <point x="250" y="75"/>
      <point x="332" y="54"/>
      <point x="339" y="54" type="curve"/>
      <point x="339" y="1" type="line"/>
      <point x="251" y="1" type="line" smooth="yes"/>
      <point x="174" y="1"/>
      <point x="119" y="49"/>
      <point x="119" y="190" type="curve" smooth="yes"/>
      <point x="119" y="458" type="line"/>
    </contour>
  </outline>
</glyph>
<glyph name="u" format="1">
  <advance width="544"/>
  <unicode hex="0075"/>
  <outline>
    <contour>
      <point x="50" y="161" type="curve" smooth="yes"/>
      <point x="50" y="531" type="line"/>
      <point x="124" y="531" type="line"/>
      <point x="124" y="161" type="line" smooth="yes"/>
      <point x="124" y="95"/>
      <point x="163" y="65"/>
      <point x="214" y="65" type="curve" smooth="yes"/>
      <point x="294" y="65"/>
      <point x="333" y="85"/>
      <point x="410" y="122" type="curve"/>
      <point x="410" y="531" type="line"/>
      <point x="484" y="531" type="line"/>
      <point x="484" y="0" type="line"/>
      <point x="432" y="0" type="line"/>
      <point x="410" y="62" type="line"/>
      <point x="349" y="27"/>
      <point x="295" y="-9"/>
      <point x="214" y="-9" type="curve" smooth="yes"/>
      <point x="108" y="-9"/>
      <point x="50" y="73"/>
    </contour>
  </outline>
</glyph>
<glyph name="v" format="1">
  <advance width="536"/>
  <unicode hex="0076"/>
  <outline>
    <contour>
      <point x="20" y="531" type="line"/>
      <point x="101" y="531" type="line"/>
      <point x="267" y="109" type="line"/>
      <point x="435" y="531" type="line"/>
      <point x="516" y="531" type="line"/>
      <point x="303" y="0" type="line"/>
      <point x="229" y="0" type="line"/>
    </contour>
  </outline>
</glyph>
<glyph name="w" format="1">
  <advance width="801"/>
  <unicode hex="0077"/>
  <outline>
    <contour>
      <point x="20" y="531" type="line"/>
      <point x="101" y="531" type="line"/>
      <point x="258" y="109" type="line"/>
      <point x="396" y="531" type="line"/>
      <point x="476" y="531" type="line"/>
      <point x="422" y="361" type="line"/>
      <point x="538" y="109" type="line"/>
      <point x="700" y="531" type="line"/>
      <point x="781" y="531" type="line"/>
      <point x="578" y="0" type="line"/>
      <point x="504" y="0" type="line"/>
      <point x="386" y="260" type="line"/>
      <point x="299" y="0" type="line"/>
      <point x="219" y="0" type="line"/>
    </contour>
  </outline>
</glyph>
<glyph name="x" format="1">
  <advance width="524"/>
  <unicode hex="0078"/>
  <outline>
    <contour>
      <point x="24" y="0" type="line"/>
      <point x="216" y="266" type="line"/>
      <point x="24" y="531" type="line"/>
      <point x="116" y="531" type="line"/>
      <point x="260" y="327" type="line"/>
      <point x="408" y="531" type="line"/>
      <point x="500" y="531" type="line"/>
      <point x="306" y="263" type="line"/>
      <point x="492" y="0" type="line"/>
      <point x="408" y="0" type="line"/>
      <point x="262" y="202" type="line"/>
      <point x="116" y="0" type="line"/>
    </contour>
  </outline>
</glyph>
<glyph name="y" format="1">
  <advance width="554"/>
  <unicode hex="0079"/>
  <outline>
    <contour>
      <point x="21" y="531" type="line"/>
      <point x="102" y="531" type="line"/>
      <point x="231" y="116" type="line" smooth="yes"/>
      <point x="242.032" y="81.0645"/>
      <point x="264.71" y="74.3028"/>
      <point x="280.383" y="74.3028" type="curve" smooth="yes"/>
      <point x="290.024" y="74.3028"/>
      <point x="297.015" y="76.8613"/>
      <point x="297.015" y="76.9946" type="curve" smooth="yes"/>
      <point x="297.015" y="76.9982"/>
      <point x="297.01" y="77"/>
      <point x="297" y="77" type="curve" smooth="yes"/>
      <point x="449" y="531" type="line"/>
      <point x="532" y="531" type="line"/>
      <point x="298" y="-168" type="line"/>
      <point x="223" y="-270" type="line"/>
      <point x="177" y="-270" type="line"/>
      <point x="271" y="0" type="line"/>
      <point x="250" y="0"/>
      <point x="184" y="2"/>
      <point x="151" y="110" type="curve" smooth="yes"/>
    </contour>
  </outline>
</glyph>
<glyph name="z" format="1">
  <advance width="456"/>
  <unicode hex="007A"/>
  <outline>
    <contour>
      <point x="30" y="457" type="line"/>
      <point x="30" y="531" type="line"/>
      <point x="426" y="531" type="line"/>
      <point x="426" y="457" type="line"/>
      <point x="142" y="75" type="line"/>
      <point x="426" y="75" type="line" smooth="yes"/>
      <point x="426.333" y="74.6667"/>
      <point x="426.444" y="66.3333"/>
      <point x="426.444" y="55.3704" type="curve" smooth="yes"/>
      <point x="426.444" y="33.4444"/>
      <point x="426" y="1"/>
      <point x="426" y="1" type="curve"/>
      <point x="45" y="1" type="line"/>
      <point x="45" y="75" type="line"/>
      <point x="334" y="457" type="line"/>
    </contour>
  </outline>
</glyph>
<glyph name="braceleft" format="1">
  <advance width="320"/>
  <unicode hex="007B"/>
  <outline>
    <contour>
      <point x="20" y="300" type="curve"/>
      <point x="20" y="367" type="line"/>
      <point x="53" y="370"/>
      <point x="110" y="369"/>
      <point x="110" y="420" type="curve" smooth="yes"/>
      <point x="110" y="656" type="line" smooth="yes"/>
      <point x="110" y="752"/>
      <point x="167" y="842"/>
      <point x="300" y="842" type="curve"/>
      <point x="300" y="768" type="line"/>
      <point x="237" y="768"/>
      <point x="184" y="747"/>
      <point x="184" y="656" type="curve" smooth="yes"/>
      <point x="184" y="420" type="line" smooth="yes"/>
      <point x="184" y="372"/>
      <point x="147" y="343"/>
      <point x="99" y="334" type="curve"/>
      <point x="147" y="327"/>
      <point x="183" y="293"/>
      <point x="183" y="251" type="curve" smooth="yes"/>
      <point x="183" y="-38" type="line" smooth="yes"/>
      <point x="183" y="-103"/>
      <point x="230" y="-140"/>
      <point x="300" y="-136" type="curve"/>
      <point x="300" y="-210" type="line"/>
      <point x="151" y="-210"/>
      <point x="109" y="-116"/>
      <point x="109" y="-38" type="curve" smooth="yes"/>
      <point x="109" y="247" type="line" smooth="yes"/>
      <point x="109" y="289"/>
      <point x="60" y="303"/>
    </contour>
  </outline>
</glyph>
<glyph name="bar" format="1">
  <advance width="245"/>
  <unicode hex="007C"/>
  <outline>
    <contour>
      <point x="86" y="-72" type="line"/>
      <point x="86" y="770" type="line"/>
      <point x="160" y="770" type="line"/>
      <point x="160" y="-72" type="line"/>
    </contour>
  </outline>
</glyph>
<glyph name="braceright" format="1">
  <advance width="320"/>
  <unicode hex="007D"/>
  <outline>
    <contour>
      <point x="20" y="-136" type="line"/>
      <point x="90" y="-140"/>
      <point x="137" y="-103"/>
      <point x="137" y="-38" type="curve" smooth="yes"/>
      <point x="137" y="251" type="line" smooth="yes"/>
      <point x="137" y="293"/>
      <point x="173" y="327"/>
      <point x="221" y="334" type="curve"/>
      <point x="173" y="343"/>
      <point x="136" y="372"/>
      <point x="136" y="420" type="curve" smooth="yes"/>
      <point x="136" y="656" type="line" smooth="yes"/>
      <point x="136" y="747"/>
      <point x="83" y="768"/>
      <point x="20" y="768" type="curve"/>
      <point x="20" y="842" type="line"/>
      <point x="153" y="842"/>
      <point x="210" y="752"/>
      <point x="210" y="656" type="curve" smooth="yes"/>
      <point x="210" y="420" type="line" smooth="yes"/>
      <point x="210" y="369"/>
      <point x="267" y="370"/>
      <point x="300" y="367" type="curve"/>
      <point x="300" y="300" type="line"/>
      <point x="260" y="303"/>
      <point x="211" y="289"/>
      <point x="211" y="247" type="curve" smooth="yes"/>
      <point x="211" y="-38" type="line" smooth="yes"/>
      <point x="211" y="-116"/>
      <point x="169" y="-210"/>
      <point x="20" y="-210" type="curve"/>
    </contour>
  </outline>
</glyph>
<glyph name="asciitilde" format="1">
  <advance width="438"/>
  <unicode hex="007E"/>
  <outline>
    <contour>
      <point x="50" y="572" type="line"/>
      <point x="90" y="605"/>
      <point x="114" y="640"/>
      <point x="167" y="640" type="curve" smooth="yes"/>
      <point x="211" y="640"/>
      <point x="233" y="605"/>
      <point x="273" y="605" type="curve" smooth="yes"/>
      <point x="312" y="605"/>
      <point x="340" y="629"/>
      <point x="366" y="645" type="curve"/>
      <point x="388" y="603" type="line"/>
      <point x="361" y="578"/>
      <point x="326" y="531"/>
      <point x="273" y="531" type="curve" smooth="yes"/>
      <point x="228" y="531"/>
      <point x="203" y="566"/>
      <point x="164" y="566" type="curve" smooth="yes"/>
      <point x="125" y="566"/>
      <point x="107" y="545"/>
      <point x="71" y="531" type="curve"/>
    </contour>
  </outline>
</glyph>
<glyph name="exclamdown" format="1">
  <advance width="269"/>
  <unicode hex="00A1"/>
  <outline>
    <contour>
      <point x="83" y="385" type="curve" smooth="yes"/>
      <point x="83" y="438" type="line" smooth="yes"/>
      <point x="83" y="452"/>
      <point x="91" y="459.667"/>
      <point x="107" y="461" type="curve" smooth="yes"/>
      <point x="156" y="461" type="line" smooth="yes"/>
      <point x="162" y="460.333"/>
      <point x="167.5" y="457.5"/>
      <point x="172.5" y="452.5" type="curve" smooth="yes"/>
      <point x="177.5" y="447.5"/>
      <point x="180" y="441.667"/>
      <point x="180" y="435" type="curve" smooth="yes"/>
      <point x="180" y="386" type="line" smooth="yes"/>
      <point x="178.667" y="368"/>
      <point x="171" y="359"/>
      <point x="157" y="359" type="curve" smooth="yes"/>
      <point x="107" y="359" type="line" smooth="yes"/>
      <point x="91" y="359"/>
      <point x="83" y="367.667"/>
    </contour>
    <contour>
      <point x="88" y="-270" type="line"/>
      <point x="94" y="261" type="line"/>
      <point x="169" y="261" type="line"/>
      <point x="177" y="-270" type="line"/>
    </contour>
  </outline>
</glyph>
<glyph name="cent" format="1">
  <advance width="490"/>
  <unicode hex="00A2"/>
  <outline>
    <contour>
      <point x="53" y="121.5" type="curve" smooth="yes"/>
      <point x="44.3333" y="159.167"/>
      <point x="40" y="207.167"/>
      <point x="40" y="265.5" type="curve" smooth="yes"/>
      <point x="40" y="323.833"/>
      <point x="44.3333" y="371.833"/>
      <point x="53" y="409.5" type="curve" smooth="yes"/>
      <point x="61.6667" y="447.167"/>
      <point x="75" y="475.333"/>
      <point x="93" y="494" type="curve" smooth="yes"/>
      <point x="111" y="512.667"/>
      <point x="129.5" y="524.667"/>
      <point x="148.5" y="530" type="curve" smooth="yes"/>
      <point x="167.5" y="535.333"/>
      <point x="184.5" y="538"/>
      <point x="199.5" y="538" type="curve" smooth="yes"/>
      <point x="222" y="538"/>
      <point x="222" y="538"/>
      <point x="231" y="538" type="curve"/>
      <point x="231" y="634" type="line"/>
      <point x="291" y="634" type="line"/>
      <point x="291" y="533" type="line"/>
      <point x="341" y="527"/>
      <point x="391.667" y="519.333"/>
      <point x="443" y="510" type="curve"/>
      <point x="443" y="456" type="line"/>
      <point x="350.333" y="461.333"/>
      <point x="285.667" y="464"/>
      <point x="249" y="464" type="curve" smooth="yes"/>
      <point x="212.333" y="464"/>
      <point x="189.667" y="463"/>
      <point x="181" y="461" type="curve" smooth="yes"/>
      <point x="172.333" y="459"/>
      <point x="163.333" y="454.333"/>
      <point x="154" y="447" type="curve" smooth="yes"/>
      <point x="144.667" y="439.667"/>
      <point x="137.333" y="429"/>
      <point x="132" y="415" type="curve" smooth="yes"/>
      <point x="120" y="383.667"/>
      <point x="114" y="331.667"/>
      <point x="114" y="259" type="curve" smooth="yes"/>
      <point x="114" y="186.333"/>
      <point x="121.667" y="136.167"/>
      <point x="137" y="108.5" type="curve" smooth="yes"/>
      <point x="152.333" y="80.8333"/>
      <point x="178.333" y="67"/>
      <point x="215" y="67" type="curve" smooth="yes"/>
      <point x="277.667" y="67"/>
      <point x="343.333" y="69.6667"/>
      <point x="412" y="75" type="curve" smooth="yes"/>
      <point x="450" y="78" type="line"/>
      <point x="450" y="22" type="line"/>
      <point x="401.333" y="8"/>
      <point x="348.333" y="-0.666667"/>
      <point x="291" y="-4" type="curve"/>
      <point x="291" y="-96" type="line"/>
      <point x="231" y="-96" type="line"/>
      <point x="231" y="-7" type="line"/>
      <point x="226" y="-7"/>
      <point x="226" y="-7"/>
      <point x="203" y="-7" type="curve" smooth="yes"/>
      <point x="187.667" y="-7"/>
      <point x="170.167" y="-4.16667"/>
      <point x="150.5" y="1.5" type="curve" smooth="yes"/>
      <point x="130.833" y="7.16667"/>
      <point x="111.833" y="19.1667"/>
      <point x="93.5" y="37.5" type="curve" smooth="yes"/>
      <point x="75.1667" y="55.8333"/>
      <point x="61.6667" y="83.8333"/>
    </contour>
  </outline>
</glyph>
<glyph name="sterling" format="1">
  <advance width="596"/>
  <unicode hex="00A3"/>
  <outline>
    <contour>
      <point x="50" y="0" type="line"/>
      <point x="50" y="59" type="line"/>
      <point x="122" y="74" type="line"/>
      <point x="122" y="330" type="line"/>
      <point x="50" y="330" type="line"/>
      <point x="50" y="375" type="line"/>
      <point x="122" y="392" type="line"/>
      <point x="122" y="505" type="line" smooth="yes"/>
      <point x="122" y="591.667"/>
      <point x="138.333" y="651.333"/>
      <point x="171" y="684" type="curve" smooth="yes"/>
      <point x="191.667" y="704.667"/>
      <point x="214" y="717.333"/>
      <point x="238" y="722" type="curve" smooth="yes"/>
      <point x="272.667" y="728.667"/>
      <point x="304" y="732"/>
      <point x="332" y="732" type="curve" smooth="yes"/>
      <point x="377.333" y="732"/>
      <point x="436.667" y="728"/>
      <point x="510" y="720" type="curve" smooth="yes"/>
      <point x="546" y="716" type="line"/>
      <point x="546" y="659" type="line"/>
      <point x="352" y="659" type="line" smooth="yes"/>
      <point x="281.333" y="659"/>
      <point x="240" y="652.333"/>
      <point x="228" y="639" type="curve" smooth="yes"/>
      <point x="211.333" y="621.667"/>
      <point x="201.833" y="601.333"/>
      <point x="199.5" y="578" type="curve" smooth="yes"/>
      <point x="197.167" y="554.667"/>
      <point x="196" y="530.333"/>
      <point x="196" y="505" type="curve" smooth="yes"/>
      <point x="196" y="392" type="line"/>
      <point x="467" y="375" type="line"/>
      <point x="467" y="330" type="line"/>
      <point x="196" y="330" type="line"/>
      <point x="196" y="74" type="line"/>
      <point x="545" y="74" type="line"/>
      <point x="545" y="0" type="line"/>
    </contour>
  </outline>
</glyph>
<glyph name="currency" format="1">
  <advance width="459"/>
  <unicode hex="00A4"/>
  <outline>
    <contour>
      <point x="132" y="443" type="line"/>
      <point x="159.333" y="463"/>
      <point x="190.667" y="473"/>
      <point x="226" y="473" type="curve" smooth="yes"/>
      <point x="261.333" y="473"/>
      <point x="293.667" y="461.667"/>
      <point x="323" y="439" type="curve"/>
      <point x="371" y="486" type="line"/>
      <point x="406" y="446" type="line"/>
      <point x="359" y="399" type="line"/>
      <point x="375" y="373.667"/>
      <point x="383" y="344.5"/>
      <point x="383" y="311.5" type="curve" smooth="yes"/>
      <point x="383" y="278.5"/>
      <point x="373.667" y="248"/>
      <point x="355" y="220" type="curve"/>
      <point x="408" y="167" type="line"/>
      <point x="366" y="130" type="line"/>
      <point x="317" y="179" type="line"/>
      <point x="289" y="157.667"/>
      <point x="258.5" y="147"/>
      <point x="225.5" y="147" type="curve" smooth="yes"/>
      <point x="192.5" y="147"/>
      <point x="162.667" y="156.667"/>
      <point x="136" y="176" type="curve"/>
      <point x="89" y="129" type="line"/>
      <point x="52" y="171" type="line"/>
      <point x="97" y="215" type="line"/>
      <point x="76.3333" y="243.667"/>
      <point x="66" y="275.833"/>
      <point x="66" y="311.5" type="curve" smooth="yes"/>
      <point x="66" y="347.167"/>
      <point x="75.3333" y="378.333"/>
      <point x="94" y="405" type="curve"/>
      <point x="51" y="449" type="line"/>
      <point x="91" y="485" type="line"/>
    </contour>
    <contour>
      <point x="152" y="385" type="curve" smooth="yes"/>
      <point x="132" y="365"/>
      <point x="122" y="340.667"/>
      <point x="122" y="312" type="curve" smooth="yes"/>
      <point x="122" y="283.333"/>
      <point x="131.833" y="258.333"/>
      <point x="151.5" y="237" type="curve" smooth="yes"/>
      <point x="171.167" y="215.667"/>
      <point x="195.333" y="205"/>
      <point x="224" y="205" type="curve" smooth="yes"/>
      <point x="252.667" y="205"/>
      <point x="277" y="215.667"/>
      <point x="297" y="237" type="curve" smooth="yes"/>
      <point x="317" y="258.333"/>
      <point x="327" y="283.5"/>
      <point x="327" y="312.5" type="curve" smooth="yes"/>
      <point x="327" y="341.5"/>
      <point x="317" y="365.833"/>
      <point x="297" y="385.5" type="curve" smooth="yes"/>
      <point x="277" y="405.167"/>
      <point x="252.833" y="415"/>
      <point x="224.5" y="415" type="curve" smooth="yes"/>
      <point x="196.167" y="415"/>
      <point x="172" y="405"/>
    </contour>
  </outline>
</glyph>
<glyph name="yen" format="1">
  <advance width="600"/>
  <unicode hex="00A5"/>
  <outline>
    <contour>
      <point x="509" y="321" type="line"/>
      <point x="509" y="262" type="line"/>
      <point x="327" y="262" type="line"/>
      <point x="327" y="212" type="line"/>
      <point x="509" y="212" type="line"/>
      <point x="509" y="153" type="line"/>
      <point x="327" y="153" type="line"/>
      <point x="327" y="0" type="line"/>
      <point x="253" y="0" type="line"/>
      <point x="253" y="153" type="line"/>
      <point x="82" y="153" type="line"/>
      <point x="82" y="212" type="line"/>
      <point x="253" y="212" type="line"/>
      <point x="253" y="262" type="line"/>
      <point x="82" y="262" type="line"/>
      <point x="82" y="321" type="line"/>
      <point x="252" y="321" type="line"/>
      <point x="20" y="732" type="line"/>
      <point x="101" y="732" type="line"/>
      <point x="290" y="394" type="line"/>
      <point x="496" y="732" type="line"/>
      <point x="580" y="732" type="line"/>
      <point x="328" y="321" type="line"/>
    </contour>
  </outline>
</glyph>
<glyph name="brokenbar" format="1">
  <advance width="246"/>
  <unicode hex="00A6"/>
  <outline>
    <contour>
      <point x="86" y="-72" type="line"/>
      <point x="86" y="256" type="line"/>
      <point x="160" y="256" type="line"/>
      <point x="160" y="-72" type="line"/>
    </contour>
    <contour>
      <point x="86" y="429" type="line"/>
      <point x="86" y="770" type="line"/>
      <point x="160" y="770" type="line"/>
      <point x="160" y="429" type="line"/>
    </contour>
  </outline>
</glyph>
<glyph name="section" format="1">
  <advance width="552"/>
  <unicode hex="00A7"/>
  <outline>
    <contour>
      <point x="56" y="353" type="curve" smooth="yes"/>
      <point x="56" y="415" type="line" smooth="yes"/>
      <point x="56" y="467.667"/>
      <point x="70.6667" y="498.667"/>
      <point x="100" y="508" type="curve"/>
      <point x="70" y="516.667"/>
      <point x="55" y="544"/>
      <point x="55" y="590" type="curve" smooth="yes"/>
      <point x="55" y="660" type="line" smooth="yes"/>
      <point x="55" y="704.667"/>
      <point x="67.3333" y="736.5"/>
      <point x="92" y="755.5" type="curve" smooth="yes"/>
      <point x="116.667" y="774.5"/>
      <point x="147.667" y="784"/>
      <point x="185" y="784" type="curve" smooth="yes"/>
      <point x="247" y="784"/>
      <point x="338.333" y="777.667"/>
      <point x="459" y="765" type="curve"/>
      <point x="459" y="710" type="line"/>
      <point x="185" y="710" type="line" smooth="yes"/>
      <point x="166.333" y="710"/>
      <point x="152.5" y="706.333"/>
      <point x="143.5" y="699" type="curve" smooth="yes"/>
      <point x="134.5" y="691.667"/>
      <point x="129.667" y="678.667"/>
      <point x="129" y="660" type="curve" smooth="yes"/>
      <point x="129" y="590" type="line" smooth="yes"/>
      <point x="129" y="558.667"/>
      <point x="147.667" y="543"/>
      <point x="185" y="543" type="curve" smooth="yes"/>
      <point x="364" y="543" type="line" smooth="yes"/>
      <point x="416.667" y="543"/>
      <point x="452.167" y="532.333"/>
      <point x="470.5" y="511" type="curve" smooth="yes"/>
      <point x="488.833" y="489.667"/>
      <point x="497.667" y="458"/>
      <point x="497" y="416" type="curve" smooth="yes"/>
      <point x="497" y="354" type="line" smooth="yes"/>
      <point x="497" y="298.667"/>
      <point x="483" y="269"/>
      <point x="455" y="265" type="curve"/>
      <point x="482.333" y="261"/>
      <point x="496" y="233.667"/>
      <point x="496" y="183" type="curve" smooth="yes"/>
      <point x="496" y="110" type="line" smooth="yes"/>
      <point x="496" y="58"/>
      <point x="480.667" y="24.6667"/>
      <point x="450" y="10" type="curve" smooth="yes"/>
      <point x="426" y="-2"/>
      <point x="390.333" y="-8"/>
      <point x="343" y="-8" type="curve" smooth="yes"/>
      <point x="295.667" y="-8"/>
      <point x="212" y="-1.66667"/>
      <point x="92" y="11" type="curve"/>
      <point x="92" y="66" type="line"/>
      <point x="358" y="66" type="line" smooth="yes"/>
      <point x="378.667" y="66"/>
      <point x="394.333" y="68.8333"/>
      <point x="405" y="74.5" type="curve" smooth="yes"/>
      <point x="415.667" y="80.1667"/>
      <point x="421.333" y="92"/>
      <point x="422" y="110" type="curve" smooth="yes"/>
      <point x="422" y="183" type="line" smooth="yes"/>
      <point x="422" y="203"/>
      <point x="417.833" y="215.833"/>
      <point x="409.5" y="221.5" type="curve" smooth="yes"/>
      <point x="401.167" y="227.167"/>
      <point x="386" y="230"/>
      <point x="364" y="230" type="curve" smooth="yes"/>
      <point x="185" y="230" type="line" smooth="yes"/>
      <point x="141" y="230"/>
      <point x="108.5" y="238.5"/>
      <point x="87.5" y="255.5" type="curve" smooth="yes"/>
      <point x="66.5" y="272.5"/>
      <point x="56" y="305"/>
    </contour>
    <contour>
      <point x="129" y="353" type="line" smooth="yes"/>
      <point x="129" y="332.333"/>
      <point x="133.167" y="319"/>
      <point x="141.5" y="313" type="curve" smooth="yes"/>
      <point x="149.833" y="307"/>
      <point x="164.333" y="304"/>
      <point x="185" y="304" type="curve" smooth="yes"/>
      <point x="364" y="304" type="line" smooth="yes"/>
      <point x="392" y="304"/>
      <point x="409" y="309.333"/>
      <point x="415" y="320" type="curve" smooth="yes"/>
      <point x="419.667" y="327.333"/>
      <point x="422" y="338.667"/>
      <point x="422" y="354" type="curve" smooth="yes"/>
      <point x="422" y="416" type="line" smooth="yes"/>
      <point x="422" y="436"/>
      <point x="418.833" y="450"/>
      <point x="412.5" y="458" type="curve" smooth="yes"/>
      <point x="406.167" y="466"/>
      <point x="390" y="470"/>
      <point x="364" y="470" type="curve" smooth="yes"/>
      <point x="185" y="470" type="line" smooth="yes"/>
      <point x="162.333" y="470"/>
      <point x="147.333" y="466.667"/>
      <point x="140" y="460" type="curve" smooth="yes"/>
      <point x="132.667" y="453.333"/>
      <point x="129" y="438"/>
      <point x="129" y="414" type="curve" smooth="yes"/>
    </contour>
  </outline>
</glyph>
<glyph name="dieresis" format="1">
  <advance width="456"/>
  <unicode hex="00A8"/>
  <outline>
    <contour>
      <point x="50" y="582" type="curve" smooth="yes"/>
      <point x="50" y="596"/>
      <point x="55" y="607.833"/>
      <point x="65" y="617.5" type="curve" smooth="yes"/>
      <point x="75" y="627.167"/>
      <point x="87" y="632"/>
      <point x="101" y="632" type="curve" smooth="yes"/>
      <point x="115" y="632"/>
      <point x="126.833" y="627.167"/>
      <point x="136.5" y="617.5" type="curve" smooth="yes"/>
      <point x="146.167" y="607.833"/>
      <point x="151" y="596"/>
      <point x="151" y="582" type="curve" smooth="yes"/>
      <point x="151" y="568"/>
      <point x="146.167" y="556"/>
      <point x="136.5" y="546" type="curve" smooth="yes"/>
      <point x="126.833" y="536"/>
      <point x="115" y="531"/>
      <point x="101" y="531" type="curve" smooth="yes"/>
      <point x="87" y="531"/>
      <point x="75" y="536"/>
      <point x="65" y="546" type="curve" smooth="yes"/>
      <point x="55" y="556"/>
      <point x="50" y="568"/>
    </contour>
    <contour>
      <point x="305" y="582" type="curve" smooth="yes"/>
      <point x="305" y="596"/>
      <point x="310" y="607.833"/>
      <point x="320" y="617.5" type="curve" smooth="yes"/>
      <point x="330" y="627.167"/>
      <point x="342" y="632"/>
      <point x="356" y="632" type="curve" smooth="yes"/>
      <point x="370" y="632"/>
      <point x="381.833" y="627.167"/>
      <point x="391.5" y="617.5" type="curve" smooth="yes"/>
      <point x="401.167" y="607.833"/>
      <point x="406" y="596"/>
      <point x="406" y="582" type="curve" smooth="yes"/>
      <point x="406" y="568"/>
      <point x="401.167" y="556"/>
      <point x="391.5" y="546" type="curve" smooth="yes"/>
      <point x="381.833" y="536"/>
      <point x="370" y="531"/>
      <point x="356" y="531" type="curve" smooth="yes"/>
      <point x="342" y="531"/>
      <point x="330" y="536"/>
      <point x="320" y="546" type="curve" smooth="yes"/>
      <point x="310" y="556"/>
      <point x="305" y="568"/>
    </contour>
  </outline>
</glyph>
<glyph name="copyright" format="1">
  <advance width="811"/>
  <unicode hex="00A9"/>
  <outline>
    <contour>
      <point x="55" y="368" type="curve" smooth="yes"/>
      <point x="55" y="610.667"/>
      <point x="130.667" y="732"/>
      <point x="282" y="732" type="curve" smooth="yes"/>
      <point x="552" y="732" type="line" smooth="yes"/>
      <point x="628" y="732"/>
      <point x="682" y="697.333"/>
      <point x="714" y="628" type="curve" smooth="yes"/>
      <point x="742" y="568"/>
      <point x="756" y="481.333"/>
      <point x="756" y="368" type="curve" smooth="yes"/>
      <point x="756" y="266"/>
      <point x="741" y="180.667"/>
      <point x="711" y="112" type="curve" smooth="yes"/>
      <point x="695.667" y="77.3333"/>
      <point x="674.5" y="50"/>
      <point x="647.5" y="30" type="curve" smooth="yes"/>
      <point x="620.5" y="10"/>
      <point x="588.667" y="0"/>
      <point x="552" y="0" type="curve" smooth="yes"/>
      <point x="282" y="0" type="line" smooth="yes"/>
      <point x="246.667" y="0"/>
      <point x="215.333" y="8.66667"/>
      <point x="188" y="26" type="curve" smooth="yes"/>
      <point x="160.667" y="43.3333"/>
      <point x="138.833" y="65"/>
      <point x="122.5" y="91" type="curve" smooth="yes"/>
      <point x="106.167" y="117"/>
      <point x="92.6667" y="147"/>
      <point x="82" y="181" type="curve" smooth="yes"/>
      <point x="64" y="238.333"/>
      <point x="55" y="300.667"/>
    </contour>
    <contour>
      <point x="119" y="368" type="curve" smooth="yes"/>
      <point x="119" y="288"/>
      <point x="133" y="217.5"/>
      <point x="161" y="156.5" type="curve" smooth="yes"/>
      <point x="189" y="95.5"/>
      <point x="229.333" y="64.6667"/>
      <point x="282" y="64" type="curve" smooth="yes"/>
      <point x="552" y="64" type="line" smooth="yes"/>
      <point x="593.333" y="64.6667"/>
      <point x="627" y="91"/>
      <point x="653" y="143" type="curve" smooth="yes"/>
      <point x="679" y="195"/>
      <point x="692" y="270"/>
      <point x="692" y="368" type="curve" smooth="yes"/>
      <point x="692" y="474.667"/>
      <point x="680.667" y="551.333"/>
      <point x="658" y="598" type="curve" smooth="yes"/>
      <point x="648.667" y="617.333"/>
      <point x="635" y="633.833"/>
      <point x="617" y="647.5" type="curve" smooth="yes"/>
      <point x="599" y="661.167"/>
      <point x="577.333" y="668"/>
      <point x="552" y="668" type="curve" smooth="yes"/>
      <point x="282" y="668" type="line" smooth="yes"/>
      <point x="231.333" y="668"/>
      <point x="191.5" y="646"/>
      <point x="162.5" y="602" type="curve" smooth="yes"/>
      <point x="133.5" y="558"/>
      <point x="119" y="480"/>
    </contour>
    <contour>
      <point x="269.5" y="194.5" type="curve" smooth="yes"/>
      <point x="243.833" y="226.167"/>
      <point x="231" y="281.5"/>
      <point x="231" y="360.5" type="curve" smooth="yes"/>
      <point x="231" y="439.5"/>
      <point x="244" y="496.333"/>
      <point x="270" y="531" type="curve" smooth="yes"/>
      <point x="296" y="565.667"/>
      <point x="331" y="583"/>
      <point x="375" y="583" type="curve" smooth="yes"/>
      <point x="404.333" y="583"/>
      <point x="463.667" y="575"/>
      <point x="553" y="559" type="curve"/>
      <point x="553" y="507" type="line"/>
      <point x="497" y="515"/>
      <point x="437.667" y="519"/>
      <point x="375" y="519" type="curve" smooth="yes"/>
      <point x="321.667" y="519"/>
      <point x="295" y="466.667"/>
      <point x="295" y="362" type="curve" smooth="yes"/>
      <point x="295" y="314"/>
      <point x="300.667" y="276.833"/>
      <point x="312" y="250.5" type="curve" smooth="yes"/>
      <point x="323.333" y="224.167"/>
      <point x="344.333" y="211"/>
      <point x="375" y="211" type="curve" smooth="yes"/>
      <point x="423" y="211"/>
      <point x="484.333" y="216.333"/>
      <point x="559" y="227" type="curve"/>
      <point x="559" y="175" type="line"/>
      <point x="492.333" y="156.333"/>
      <point x="431" y="147"/>
      <point x="375" y="147" type="curve" smooth="yes"/>
      <point x="330.333" y="147"/>
      <point x="295.167" y="162.833"/>
    </contour>
  </outline>
</glyph>
<glyph name="ordfeminine" format="1">
  <advance width="364"/>
  <unicode hex="00AA"/>
  <outline>
    <contour>
      <point x="30" y="268" type="line"/>
      <point x="30" y="326" type="line"/>
      <point x="334" y="326" type="line"/>
      <point x="334" y="268" type="line"/>
    </contour>
    <contour>
      <point x="30" y="463" type="curve" smooth="yes"/>
      <point x="30" y="509" type="line" smooth="yes"/>
      <point x="30" y="536.333"/>
      <point x="39" y="558.167"/>
      <point x="57" y="574.5" type="curve" smooth="yes"/>
      <point x="75" y="590.833"/>
      <point x="99.3333" y="599"/>
      <point x="130" y="599" type="curve" smooth="yes"/>
      <point x="176.667" y="598.333"/>
      <point x="211.667" y="598"/>
      <point x="235" y="598" type="curve" smooth="yes"/>
      <point x="258.333" y="598"/>
      <point x="270" y="598.333"/>
      <point x="270" y="599" type="curve" smooth="yes"/>
      <point x="270" y="614"/>
      <point x="270" y="614"/>
      <point x="270" y="622" type="curve" smooth="yes"/>
      <point x="270" y="630"/>
      <point x="270" y="630"/>
      <point x="270" y="631" type="curve" smooth="yes"/>
      <point x="270" y="664.333"/>
      <point x="249.667" y="681"/>
      <point x="209" y="681" type="curve" smooth="yes"/>
      <point x="183.667" y="681"/>
      <point x="154" y="680"/>
      <point x="120" y="678" type="curve" smooth="yes"/>
      <point x="86" y="676"/>
      <point x="60" y="674.667"/>
      <point x="42" y="674" type="curve"/>
      <point x="42" y="716" type="line"/>
      <point x="53.3333" y="717.333"/>
      <point x="70" y="720"/>
      <point x="92" y="724" type="curve" smooth="yes"/>
      <point x="141.333" y="734"/>
      <point x="183" y="739"/>
      <point x="217" y="739" type="curve" smooth="yes"/>
      <point x="219" y="739"/>
      <point x="219" y="739"/>
      <point x="221" y="739" type="curve" smooth="yes"/>
      <point x="252.333" y="739"/>
      <point x="278.667" y="730.5"/>
      <point x="300" y="713.5" type="curve" smooth="yes"/>
      <point x="321.333" y="696.5"/>
      <point x="332" y="670.667"/>
      <point x="332" y="636" type="curve" smooth="yes"/>
      <point x="332" y="378" type="line"/>
      <point x="292" y="378" type="line"/>
      <point x="271" y="427" type="line"/>
      <point x="262" y="422" type="line" smooth="yes"/>
      <point x="206.667" y="390"/>
      <point x="164" y="374"/>
      <point x="134" y="374" type="curve" smooth="yes"/>
      <point x="104" y="374"/>
      <point x="79.1667" y="381.833"/>
      <point x="59.5" y="397.5" type="curve" smooth="yes"/>
      <point x="39.8333" y="413.167"/>
      <point x="30" y="435"/>
    </contour>
    <contour>
      <point x="92" y="476" type="line" smooth="yes"/>
      <point x="92" y="449.333"/>
      <point x="106.667" y="436"/>
      <point x="136" y="436" type="curve" smooth="yes"/>
      <point x="172" y="436"/>
      <point x="210" y="444"/>
      <point x="250" y="460" type="curve" smooth="yes"/>
      <point x="270" y="468" type="line"/>
      <point x="270" y="554" type="line"/>
      <point x="136" y="544" type="line" smooth="yes"/>
      <point x="106.667" y="541.333"/>
      <point x="92" y="527.667"/>
      <point x="92" y="503" type="curve" smooth="yes"/>
    </contour>
  </outline>
</glyph>
<glyph name="guillemotleft" format="1">
  <advance width="549"/>
  <unicode hex="00AB"/>
  <outline>
    <contour>
      <point x="50" y="354" type="line"/>
      <point x="256" y="557" type="line"/>
      <point x="308" y="505" type="line"/>
      <point x="153" y="354" type="line"/>
      <point x="313" y="198" type="line"/>
      <point x="261" y="146" type="line"/>
    </contour>
    <contour>
      <point x="236" y="354" type="line"/>
      <point x="442" y="557" type="line"/>
      <point x="494" y="505" type="line"/>
      <point x="339" y="354" type="line"/>
      <point x="499" y="198" type="line"/>
      <point x="447" y="146" type="line"/>
    </contour>
  </outline>
</glyph>
<glyph name="logicalnot" format="1">
  <advance width="527"/>
  <unicode hex="00AC"/>
  <outline>
    <contour>
      <point x="50" y="256" type="line"/>
      <point x="50" y="330" type="line"/>
      <point x="477" y="330" type="line"/>
      <point x="477" y="159" type="line"/>
      <point x="403" y="159" type="line"/>
      <point x="403" y="256" type="line"/>
    </contour>
  </outline>
</glyph>
<glyph name="registered" format="1">
  <advance width="811"/>
  <unicode hex="00AE"/>
  <outline>
    <contour>
      <point x="55" y="368" type="curve" smooth="yes"/>
      <point x="55" y="610.667"/>
      <point x="130.667" y="732"/>
      <point x="282" y="732" type="curve" smooth="yes"/>
      <point x="552" y="732" type="line" smooth="yes"/>
      <point x="628" y="732"/>
      <point x="682" y="697.333"/>
      <point x="714" y="628" type="curve" smooth="yes"/>
      <point x="742" y="568"/>
      <point x="756" y="481.333"/>
      <point x="756" y="368" type="curve" smooth="yes"/>
      <point x="756" y="266"/>
      <point x="741" y="180.667"/>
      <point x="711" y="112" type="curve" smooth="yes"/>
      <point x="695.667" y="77.3333"/>
      <point x="674.5" y="50"/>
      <point x="647.5" y="30" type="curve" smooth="yes"/>
      <point x="620.5" y="10"/>
      <point x="588.667" y="0"/>
      <point x="552" y="0" type="curve" smooth="yes"/>
      <point x="282" y="0" type="line" smooth="yes"/>
      <point x="246.667" y="0"/>
      <point x="215.333" y="8.66667"/>
      <point x="188" y="26" type="curve" smooth="yes"/>
      <point x="160.667" y="43.3333"/>
      <point x="138.833" y="65"/>
      <point x="122.5" y="91" type="curve" smooth="yes"/>
      <point x="106.167" y="117"/>
      <point x="92.6667" y="147"/>
      <point x="82" y="181" type="curve" smooth="yes"/>
      <point x="64" y="238.333"/>
      <point x="55" y="300.667"/>
    </contour>
    <contour>
      <point x="119" y="368" type="curve" smooth="yes"/>
      <point x="119" y="288"/>
      <point x="133" y="217.5"/>
      <point x="161" y="156.5" type="curve" smooth="yes"/>
      <point x="189" y="95.5"/>
      <point x="229.333" y="64.6667"/>
      <point x="282" y="64" type="curve" smooth="yes"/>
      <point x="552" y="64" type="line" smooth="yes"/>
      <point x="593.333" y="64.6667"/>
      <point x="627" y="91"/>
      <point x="653" y="143" type="curve" smooth="yes"/>
      <point x="679" y="195"/>
      <point x="692" y="270"/>
      <point x="692" y="368" type="curve" smooth="yes"/>
      <point x="692" y="474.667"/>
      <point x="680.667" y="551.333"/>
      <point x="658" y="598" type="curve" smooth="yes"/>
      <point x="648.667" y="617.333"/>
      <point x="635" y="633.833"/>
      <point x="617" y="647.5" type="curve" smooth="yes"/>
      <point x="599" y="661.167"/>
      <point x="577.333" y="668"/>
      <point x="552" y="668" type="curve" smooth="yes"/>
      <point x="282" y="668" type="line" smooth="yes"/>
      <point x="231.333" y="668"/>
      <point x="191.5" y="646"/>
      <point x="162.5" y="602" type="curve" smooth="yes"/>
      <point x="133.5" y="558"/>
      <point x="119" y="480"/>
    </contour>
    <contour>
      <point x="261" y="153" type="line"/>
      <point x="261" y="580" type="line"/>
      <point x="438" y="580" type="line" smooth="yes"/>
      <point x="527.333" y="580"/>
      <point x="572" y="537.333"/>
      <point x="572" y="452" type="curve" smooth="yes"/>
      <point x="572" y="396.667"/>
      <point x="559.667" y="360.667"/>
      <point x="535" y="344" type="curve" smooth="yes"/>
      <point x="522.333" y="336"/>
      <point x="512.833" y="330.833"/>
      <point x="506.5" y="328.5" type="curve" smooth="yes"/>
      <point x="500.167" y="326.167"/>
      <point x="490" y="323.667"/>
      <point x="476" y="321" type="curve"/>
      <point x="567" y="153" type="line"/>
      <point x="495" y="153" type="line"/>
      <point x="404" y="323" type="line"/>
      <point x="325" y="335" type="line"/>
      <point x="325" y="153" type="line"/>
    </contour>
    <contour>
      <point x="325" y="379" type="line"/>
      <point x="444" y="379" type="line" smooth="yes"/>
      <point x="470" y="379"/>
      <point x="487.167" y="383.667"/>
      <point x="495.5" y="393" type="curve" smooth="yes"/>
      <point x="503.833" y="402.333"/>
      <point x="508" y="418"/>
      <point x="508" y="440" type="curve" smooth="yes"/>
      <point x="508" y="462"/>
      <point x="506" y="477.833"/>
      <point x="502" y="487.5" type="curve" smooth="yes"/>
      <point x="498" y="497.167"/>
      <point x="492.333" y="504"/>
      <point x="485" y="508" type="curve" smooth="yes"/>
      <point x="473.667" y="513.333"/>
      <point x="460" y="516"/>
      <point x="444" y="516" type="curve" smooth="yes"/>
      <point x="325" y="516" type="line"/>
    </contour>
  </outline>
</glyph>
<glyph name="macron" format="1">
  <advance width="392"/>
  <unicode hex="00AF"/>
  <outline>
    <contour>
      <point x="50" y="531" type="line"/>
      <point x="50" y="594" type="line"/>
      <point x="342" y="594" type="line"/>
      <point x="342" y="531" type="line"/>
    </contour>
  </outline>
</glyph>
<glyph name="degree" format="1">
  <advance width="303"/>
  <unicode hex="00B0"/>
  <outline>
    <contour>
      <point x="50" y="632" type="curve" smooth="yes"/>
      <point x="50" y="689"/>
      <point x="96" y="735"/>
      <point x="152" y="735" type="curve" smooth="yes"/>
      <point x="208" y="735"/>
      <point x="253" y="689"/>
      <point x="253" y="632" type="curve" smooth="yes"/>
      <point x="253" y="575"/>
      <point x="208" y="530"/>
      <point x="152" y="530" type="curve" smooth="yes"/>
      <point x="96" y="530"/>
      <point x="50" y="575"/>
    </contour>
    <contour>
      <point x="97" y="632" type="curve" smooth="yes"/>
      <point x="97" y="602"/>
      <point x="122" y="578"/>
      <point x="152" y="578" type="curve" smooth="yes"/>
      <point x="182" y="578"/>
      <point x="206" y="602"/>
      <point x="206" y="632" type="curve" smooth="yes"/>
      <point x="206" y="662"/>
      <point x="182" y="687"/>
      <point x="152" y="687" type="curve" smooth="yes"/>
      <point x="122" y="687"/>
      <point x="97" y="662"/>
    </contour>
  </outline>
</glyph>
<glyph name="plusminus" format="1">
  <advance width="527"/>
  <unicode hex="00B1"/>
  <outline>
    <contour>
      <point x="56" y="87" type="line"/>
      <point x="56" y="161" type="line"/>
      <point x="472" y="161" type="line"/>
      <point x="472" y="87" type="line"/>
    </contour>
    <contour>
      <point x="56" y="387" type="line"/>
      <point x="56" y="461" type="line"/>
      <point x="226" y="461" type="line"/>
      <point x="226" y="632" type="line"/>
      <point x="300" y="632" type="line"/>
      <point x="300" y="461" type="line"/>
      <point x="472" y="461" type="line"/>
      <point x="472" y="387" type="line"/>
      <point x="300" y="387" type="line"/>
      <point x="300" y="216" type="line"/>
      <point x="226" y="216" type="line"/>
      <point x="226" y="387" type="line"/>
    </contour>
  </outline>
</glyph>
<glyph name="uni00B2" format="1">
  <advance width="387"/>
  <unicode hex="00B2"/>
  <outline>
    <contour>
      <point x="32" y="826" type="line" smooth="yes"/>
      <point x="31.3333" y="826"/>
      <point x="31" y="830"/>
      <point x="31" y="838" type="curve" smooth="yes"/>
      <point x="31" y="846"/>
      <point x="31.3333" y="854"/>
      <point x="32" y="862" type="curve" smooth="yes"/>
      <point x="32" y="873" type="line"/>
      <point x="114.667" y="883"/>
      <point x="175.667" y="888"/>
      <point x="215" y="888" type="curve" smooth="yes"/>
      <point x="301.667" y="888"/>
      <point x="345" y="842.667"/>
      <point x="345" y="752" type="curve" smooth="yes"/>
      <point x="345" y="728.667"/>
      <point x="339" y="703.667"/>
      <point x="327" y="677" type="curve" smooth="yes"/>
      <point x="315" y="650.333"/>
      <point x="302.5" y="627.833"/>
      <point x="289.5" y="609.5" type="curve" smooth="yes"/>
      <point x="276.5" y="591.167"/>
      <point x="258" y="570"/>
      <point x="234" y="546" type="curve" smooth="yes"/>
      <point x="210" y="522"/>
      <point x="194" y="506.667"/>
      <point x="186" y="500" type="curve" smooth="yes"/>
      <point x="178" y="493.333"/>
      <point x="165.333" y="482.667"/>
      <point x="148" y="468" type="curve"/>
      <point x="344" y="468" type="line"/>
      <point x="344" y="406" type="line"/>
      <point x="35" y="406" type="line"/>
      <point x="35" y="464" type="line"/>
      <point x="40.3333" y="468.667"/>
      <point x="53.8333" y="479.167"/>
      <point x="75.5" y="495.5" type="curve" smooth="yes"/>
      <point x="97.1667" y="511.833"/>
      <point x="115" y="525.667"/>
      <point x="129" y="537" type="curve" smooth="yes"/>
      <point x="143" y="548.333"/>
      <point x="160.5" y="563.833"/>
      <point x="181.5" y="583.5" type="curve" smooth="yes"/>
      <point x="202.5" y="603.167"/>
      <point x="219.333" y="621.333"/>
      <point x="232" y="638" type="curve" smooth="yes"/>
      <point x="264" y="678.667"/>
      <point x="280" y="714.167"/>
      <point x="280" y="744.5" type="curve" smooth="yes"/>
      <point x="280" y="774.833"/>
      <point x="274.333" y="796"/>
      <point x="263" y="808" type="curve" smooth="yes"/>
      <point x="251.667" y="820"/>
      <point x="232" y="826"/>
      <point x="204" y="826" type="curve" smooth="yes"/>
    </contour>
  </outline>
</glyph>
<glyph name="uni00B3" format="1">
  <advance width="406"/>
  <unicode hex="00B3"/>
  <outline>
    <contour>
      <point x="34" y="420" type="curve"/>
      <point x="35" y="463" type="line"/>
      <point x="212" y="464" type="line" smooth="yes"/>
      <point x="238.667" y="464"/>
      <point x="257.333" y="468.667"/>
      <point x="268" y="478" type="curve" smooth="yes"/>
      <point x="278.667" y="487.333"/>
      <point x="284" y="503"/>
      <point x="284" y="525" type="curve" smooth="yes"/>
      <point x="284" y="548" type="line" smooth="yes"/>
      <point x="284" y="592.667"/>
      <point x="261.333" y="615.667"/>
      <point x="216" y="617" type="curve" smooth="yes"/>
      <point x="74" y="622" type="line"/>
      <point x="74" y="669" type="line"/>
      <point x="216" y="676" type="line" smooth="yes"/>
      <point x="262" y="678"/>
      <point x="285" y="699.333"/>
      <point x="285" y="740" type="curve" smooth="yes"/>
      <point x="285" y="762" type="line" smooth="yes"/>
      <point x="285" y="802"/>
      <point x="262" y="822"/>
      <point x="216" y="822" type="curve" smooth="yes"/>
      <point x="30" y="822" type="line"/>
      <point x="30" y="865" type="line"/>
      <point x="66" y="877"/>
      <point x="107.333" y="883"/>
      <point x="154" y="883" type="curve" smooth="yes"/>
      <point x="190" y="883"/>
      <point x="190" y="883"/>
      <point x="225" y="883" type="curve" smooth="yes"/>
      <point x="265.667" y="883"/>
      <point x="296" y="871.833"/>
      <point x="316" y="849.5" type="curve" smooth="yes"/>
      <point x="336" y="827.167"/>
      <point x="346" y="799.333"/>
      <point x="346" y="766" type="curve" smooth="yes"/>
      <point x="346" y="731" type="line" smooth="yes"/>
      <point x="346" y="709"/>
      <point x="341.333" y="690.167"/>
      <point x="332" y="674.5" type="curve" smooth="yes"/>
      <point x="322.667" y="658.833"/>
      <point x="311" y="648.333"/>
      <point x="297" y="643" type="curve"/>
      <point x="329.667" y="622.333"/>
      <point x="346" y="591"/>
      <point x="346" y="549" type="curve" smooth="yes"/>
      <point x="346" y="521" type="line" smooth="yes"/>
      <point x="346" y="482.333"/>
      <point x="336.667" y="452.833"/>
      <point x="318" y="432.5" type="curve" smooth="yes"/>
      <point x="299.333" y="412.167"/>
      <point x="266.667" y="402"/>
      <point x="220" y="402" type="curve" smooth="yes"/>
      <point x="186" y="402"/>
      <point x="186" y="402"/>
      <point x="137" y="402" type="curve" smooth="yes"/>
      <point x="104.333" y="402"/>
      <point x="70" y="408"/>
    </contour>
  </outline>
</glyph>
<glyph name="acute" format="1">
  <advance width="242"/>
  <unicode hex="00B4"/>
  <outline>
    <contour>
      <point x="20" y="531" type="line"/>
      <point x="127" y="664" type="line"/>
      <point x="222" y="664" type="line"/>
      <point x="89" y="531" type="line"/>
    </contour>
  </outline>
</glyph>
<glyph name="mu" format="1">
  <advance width="594"/>
  <unicode hex="00B5"/>
  <outline>
    <contour>
      <point x="90" y="-270" type="line"/>
      <point x="90" y="531" type="line"/>
      <point x="164" y="531" type="line"/>
      <point x="164" y="161" type="line" smooth="yes"/>
      <point x="164" y="129.667"/>
      <point x="172.333" y="105.833"/>
      <point x="189" y="89.5" type="curve" smooth="yes"/>
      <point x="205.667" y="73.1667"/>
      <point x="227" y="65"/>
      <point x="253" y="65" type="curve" smooth="yes"/>
      <point x="279" y="65"/>
      <point x="303.333" y="67.6667"/>
      <point x="326" y="73" type="curve" smooth="yes"/>
      <point x="348.667" y="78.3333"/>
      <point x="366.833" y="83.8333"/>
      <point x="380.5" y="89.5" type="curve" smooth="yes"/>
      <point x="394.167" y="95.1667"/>
      <point x="417.333" y="106"/>
      <point x="450" y="122" type="curve"/>
      <point x="450" y="531" type="line"/>
      <point x="524" y="531" type="line"/>
      <point x="524" y="0" type="line"/>
      <point x="472" y="0" type="line"/>
      <point x="450" y="62" type="line" smooth="yes"/>
      <point x="448" y="61.3333"/>
      <point x="440.667" y="57.1667"/>
      <point x="428" y="49.5" type="curve" smooth="yes"/>
      <point x="415.333" y="41.8333"/>
      <point x="407.5" y="37.3333"/>
      <point x="404.5" y="36" type="curve" smooth="yes"/>
      <point x="401.5" y="34.6667"/>
      <point x="394.333" y="30.8333"/>
      <point x="383" y="24.5" type="curve" smooth="yes"/>
      <point x="371.667" y="18.1667"/>
      <point x="363.667" y="14.3333"/>
      <point x="359" y="13" type="curve" smooth="yes"/>
      <point x="354.333" y="11.6667"/>
      <point x="346.667" y="9"/>
      <point x="336" y="5" type="curve" smooth="yes"/>
      <point x="325.333" y="1"/>
      <point x="316.667" y="-1.66667"/>
      <point x="310" y="-3" type="curve" smooth="yes"/>
      <point x="288.667" y="-7"/>
      <point x="270" y="-9"/>
      <point x="254" y="-9" type="curve" smooth="yes"/>
      <point x="218.667" y="-9"/>
      <point x="188.667" y="-0.666667"/>
      <point x="164" y="16" type="curve"/>
      <point x="164" y="-270" type="line"/>
    </contour>
  </outline>
</glyph>
<glyph name="paragraph" format="1">
  <advance width="581"/>
  <unicode hex="00B6"/>
  <outline>
    <contour>
      <point x="40" y="499" type="curve" smooth="yes"/>
      <point x="40" y="592" type="line" smooth="yes"/>
      <point x="40" y="636.667"/>
      <point x="55.5" y="671.167"/>
      <point x="86.5" y="695.5" type="curve" smooth="yes"/>
      <point x="117.5" y="719.833"/>
      <point x="154" y="732"/>
      <point x="196" y="732" type="curve" smooth="yes"/>
      <point x="561" y="732" type="line"/>
      <point x="561" y="656" type="line"/>
      <point x="492" y="656" type="line"/>
      <point x="492" y="0" type="line"/>
      <point x="418" y="0" type="line"/>
      <point x="418" y="658" type="line"/>
      <point x="324" y="658" type="line"/>
      <point x="324" y="-270" type="line"/>
      <point x="250" y="-270" type="line"/>
      <point x="250" y="372" type="line"/>
      <point x="241" y="367" type="line" smooth="yes"/>
      <point x="226.333" y="359"/>
      <point x="211.333" y="355"/>
      <point x="196" y="355" type="curve" smooth="yes"/>
      <point x="146.667" y="355"/>
      <point x="108.333" y="368.667"/>
      <point x="81" y="396" type="curve" smooth="yes"/>
      <point x="53.6667" y="423.333"/>
      <point x="40" y="457.667"/>
    </contour>
    <contour>
      <point x="114" y="501" type="line" smooth="yes"/>
      <point x="114" y="473.667"/>
      <point x="122.667" y="454.833"/>
      <point x="140" y="444.5" type="curve" smooth="yes"/>
      <point x="157.333" y="434.167"/>
      <point x="176" y="429"/>
      <point x="196" y="429" type="curve" smooth="yes"/>
      <point x="250" y="429" type="line"/>
      <point x="250" y="658" type="line"/>
      <point x="196" y="658" type="line" smooth="yes"/>
      <point x="166.667" y="658"/>
      <point x="145.667" y="651"/>
      <point x="133" y="637" type="curve" smooth="yes"/>
      <point x="120.333" y="623"/>
      <point x="114" y="607.333"/>
      <point x="114" y="590" type="curve" smooth="yes"/>
    </contour>
  </outline>
</glyph>
<glyph name="periodcentered" format="1">
  <advance width="272"/>
  <unicode hex="00B7"/>
  <outline>
    <contour>
      <point x="85" y="354" type="curve" smooth="yes"/>
      <point x="85" y="411" type="line" smooth="yes"/>
      <point x="85" y="426"/>
      <point x="93" y="436"/>
      <point x="109" y="436" type="curve" smooth="yes"/>
      <point x="162" y="436" type="line" smooth="yes"/>
      <point x="180" y="436"/>
      <point x="187" y="427"/>
      <point x="187" y="411" type="curve" smooth="yes"/>
      <point x="187" y="354" type="line" smooth="yes"/>
      <point x="187" y="336"/>
      <point x="176" y="331"/>
      <point x="162" y="331" type="curve" smooth="yes"/>
      <point x="109" y="331" type="line" smooth="yes"/>
      <point x="95" y="331"/>
      <point x="85" y="340"/>
    </contour>
  </outline>
</glyph>
<glyph name="cedilla" format="1">
  <advance width="252"/>
  <unicode hex="00B8"/>
  <outline>
    <contour>
      <point x="50" y="-136" type="line"/>
      <point x="103" y="-121" type="line" smooth="yes"/>
      <point x="131" y="-109"/>
      <point x="135" y="-75"/>
      <point x="135" y="-37" type="curve"/>
      <point x="202" y="-37" type="line"/>
      <point x="202" y="-139"/>
      <point x="181" y="-173"/>
      <point x="101" y="-173" type="curve" smooth="yes"/>
      <point x="50" y="-173" type="line"/>
    </contour>
  </outline>
</glyph>
<glyph name="uni00B9" format="1">
  <advance width="271"/>
  <unicode hex="00B9"/>
  <outline>
    <contour>
      <point x="206" y="882" type="line"/>
      <point x="206" y="406" type="line"/>
      <point x="144" y="406" type="line"/>
      <point x="144" y="813" type="line"/>
      <point x="16" y="778" type="line"/>
      <point x="16" y="827" type="line"/>
      <point x="144" y="882" type="line"/>
    </contour>
  </outline>
</glyph>
<glyph name="ordmasculine" format="1">
  <advance width="390"/>
  <unicode hex="00BA"/>
  <outline>
    <contour>
      <point x="66" y="412.5" type="curve" smooth="yes"/>
      <point x="42" y="438.833"/>
      <point x="30" y="486.167"/>
      <point x="30" y="554.5" type="curve" smooth="yes"/>
      <point x="30" y="622.833"/>
      <point x="41.8333" y="670.333"/>
      <point x="65.5" y="697" type="curve" smooth="yes"/>
      <point x="89.1667" y="723.667"/>
      <point x="132.667" y="737"/>
      <point x="196" y="737" type="curve" smooth="yes"/>
      <point x="259.333" y="737"/>
      <point x="302.5" y="723.667"/>
      <point x="325.5" y="697" type="curve" smooth="yes"/>
      <point x="348.5" y="670.333"/>
      <point x="360" y="622.833"/>
      <point x="360" y="554.5" type="curve" smooth="yes"/>
      <point x="360" y="486.167"/>
      <point x="348.333" y="438.833"/>
      <point x="325" y="412.5" type="curve" smooth="yes"/>
      <point x="301.667" y="386.167"/>
      <point x="258.667" y="373"/>
      <point x="196" y="373" type="curve" smooth="yes"/>
      <point x="133.333" y="373"/>
      <point x="90" y="386.167"/>
    </contour>
    <contour>
      <point x="41" y="271" type="line"/>
      <point x="41" y="329" type="line"/>
      <point x="348" y="329" type="line"/>
      <point x="348" y="271" type="line"/>
    </contour>
    <contour>
      <point x="97.5" y="622" type="curve" smooth="yes"/>
      <point x="93.8333" y="604.667"/>
      <point x="92" y="581.5"/>
      <point x="92" y="552.5" type="curve" smooth="yes"/>
      <point x="92" y="523.5"/>
      <point x="94.1667" y="501"/>
      <point x="98.5" y="485" type="curve" smooth="yes"/>
      <point x="102.833" y="469"/>
      <point x="110.5" y="457.5"/>
      <point x="121.5" y="450.5" type="curve" smooth="yes"/>
      <point x="132.5" y="443.5"/>
      <point x="142.833" y="439.167"/>
      <point x="152.5" y="437.5" type="curve" smooth="yes"/>
      <point x="162.167" y="435.833"/>
      <point x="177" y="435"/>
      <point x="197" y="435" type="curve" smooth="yes"/>
      <point x="217" y="435"/>
      <point x="231.667" y="435.667"/>
      <point x="241" y="437" type="curve" smooth="yes"/>
      <point x="250.333" y="438.333"/>
      <point x="260.167" y="442.5"/>
      <point x="270.5" y="449.5" type="curve" smooth="yes"/>
      <point x="280.833" y="456.5"/>
      <point x="288" y="468"/>
      <point x="292" y="484" type="curve" smooth="yes"/>
      <point x="296" y="503.333"/>
      <point x="298" y="527.333"/>
      <point x="298" y="556" type="curve" smooth="yes"/>
      <point x="298" y="584.667"/>
      <point x="296.333" y="607"/>
      <point x="293" y="623" type="curve" smooth="yes"/>
      <point x="289.667" y="639"/>
      <point x="282.667" y="650.833"/>
      <point x="272" y="658.5" type="curve" smooth="yes"/>
      <point x="261.333" y="666.167"/>
      <point x="251.167" y="670.833"/>
      <point x="241.5" y="672.5" type="curve" smooth="yes"/>
      <point x="231.833" y="674.167"/>
      <point x="216.333" y="675"/>
      <point x="195" y="675" type="curve" smooth="yes"/>
      <point x="173.667" y="675"/>
      <point x="158.333" y="674.333"/>
      <point x="149" y="673" type="curve" smooth="yes"/>
      <point x="139.667" y="671.667"/>
      <point x="129.667" y="667.167"/>
      <point x="119" y="659.5" type="curve" smooth="yes"/>
      <point x="108.333" y="651.833"/>
      <point x="101.167" y="639.333"/>
    </contour>
  </outline>
</glyph>
<glyph name="guillemotright" format="1">
  <advance width="549"/>
  <unicode hex="00BB"/>
  <outline>
    <contour>
      <point x="50" y="198" type="line"/>
      <point x="210" y="354" type="line"/>
      <point x="55" y="505" type="line"/>
      <point x="107" y="557" type="line"/>
      <point x="313" y="354" type="line"/>
      <point x="102" y="146" type="line"/>
    </contour>
    <contour>
      <point x="236" y="198" type="line"/>
      <point x="396" y="354" type="line"/>
      <point x="241" y="505" type="line"/>
      <point x="293" y="557" type="line"/>
      <point x="499" y="354" type="line"/>
      <point x="288" y="146" type="line"/>
    </contour>
  </outline>
</glyph>
<glyph name="onequarter" format="1">
  <advance width="903"/>
  <unicode hex="00BC"/>
  <outline>
    <contour>
      <point x="741.78" y="268.774" type="line" smooth="yes"/>
      <point x="759.59" y="268.774"/>
      <point x="777.4" y="275.625"/>
      <point x="777.4" y="298.915" type="curve" smooth="yes"/>
      <point x="777.4" y="355.77" type="line" smooth="yes"/>
      <point x="776.715" y="380.43"/>
      <point x="764.385" y="387.28"/>
      <point x="742.465" y="387.28" type="curve" smooth="yes"/>
      <point x="609.575" y="387.28" type="line" smooth="yes"/>
      <point x="587.655" y="387.28"/>
      <point x="574.64" y="380.43"/>
      <point x="573.955" y="355.77" type="curve" smooth="yes"/>
      <point x="573.955" y="298.229" type="line" smooth="yes"/>
      <point x="573.955" y="275.625"/>
      <point x="591.765" y="268.774"/>
      <point x="609.575" y="268.774" type="curve" smooth="yes"/>
    </contour>
    <contour>
      <point x="747.945" y="435.915" type="curve" smooth="yes"/>
      <point x="790.415" y="435.915"/>
      <point x="832.2" y="427.01"/>
      <point x="832.2" y="355.77" type="curve" smooth="yes"/>
      <point x="832.2" y="313.3" type="line" smooth="yes"/>
      <point x="832.2" y="290.01"/>
      <point x="831.515" y="258.5"/>
      <point x="804.115" y="248.91" type="curve"/>
      <point x="832.885" y="240.005"/>
      <point x="850.695" y="224.25"/>
      <point x="851.38" y="192.055" type="curve" smooth="yes"/>
      <point x="851.38" y="85.8799" type="line" smooth="yes"/>
      <point x="851.38" y="85.1953"/>
      <point x="851.38" y="83.8252"/>
      <point x="851.38" y="83.1396" type="curve" smooth="yes"/>
      <point x="851.38" y="19.4346"/>
      <point x="828.09" y="0.254883"/>
      <point x="758.905" y="0.254883" type="curve" smooth="yes"/>
      <point x="594.505" y="0.254883" type="line" smooth="yes"/>
      <point x="537.65" y="0.254883"/>
      <point x="502.03" y="15.3252"/>
      <point x="502.03" y="84.5098" type="curve" smooth="yes"/>
      <point x="502.03" y="188.63" type="line" smooth="yes"/>
      <point x="502.03" y="220.825"/>
      <point x="521.21" y="240.689"/>
      <point x="549.979" y="249.595" type="curve"/>
      <point x="522.58" y="259.185"/>
      <point x="521.895" y="290.01"/>
      <point x="521.895" y="313.3" type="curve" smooth="yes"/>
      <point x="521.895" y="357.14" type="line" smooth="yes"/>
      <point x="521.895" y="424.27"/>
      <point x="563.68" y="436.6"/>
      <point x="611.63" y="436.6" type="curve" smooth="yes"/>
      <point x="650.675" y="436.6"/>
      <point x="707.53" y="435.915"/>
    </contour>
    <contour>
      <point x="554.09" y="85.1953" type="line" smooth="yes"/>
      <point x="554.09" y="55.7402"/>
      <point x="577.38" y="53"/>
      <point x="600.67" y="53" type="curve" smooth="yes"/>
      <point x="750" y="53" type="line" smooth="yes"/>
      <point x="787.675" y="53"/>
      <point x="796.58" y="66.7002"/>
      <point x="796.58" y="85.8799" type="curve" smooth="yes"/>
      <point x="796.58" y="85.8799"/>
      <point x="796.58" y="96.8398"/>
      <point x="796.58" y="110.54" type="curve" smooth="yes"/>
      <point x="796.58" y="137.939"/>
      <point x="796.58" y="179.04"/>
      <point x="796.58" y="179.04" type="curve" smooth="yes"/>
      <point x="796.58" y="201.645"/>
      <point x="786.305" y="213.975"/>
      <point x="750" y="213.975" type="curve" smooth="yes"/>
      <point x="600.67" y="213.975" type="line" smooth="yes"/>
      <point x="571.9" y="213.975"/>
      <point x="554.09" y="208.495"/>
      <point x="554.09" y="177.67" type="curve" smooth="yes"/>
    </contour>
    <contour>
      <point x="219.784" y="672.46" type="curve" smooth="yes"/>
      <point x="236.909" y="638.896"/>
      <point x="374.595" y="512.17"/>
      <point x="374.595" y="463.535" type="curve" smooth="yes"/>
      <point x="374.595" y="414.9"/>
      <point x="336.234" y="364.21"/>
      <point x="310.89" y="329.275" type="curve" smooth="yes"/>
      <point x="291.049" y="302.49"/>
      <point x="263.387" y="290.871"/>
      <point x="233.374" y="290.871" type="curve" smooth="yes"/>
      <point x="201.215" y="290.871"/>
      <point x="166.355" y="304.213"/>
      <point x="135.529" y="326.535" type="curve" smooth="yes"/>
      <point x="97.8545" y="353.936"/>
      <point x="75.25" y="375.17"/>
      <point x="55.3848" y="391.61" type="curve"/>
      <point x="83.4697" y="427.23" type="line"/>
      <point x="106.074" y="410.79"/>
      <point x="125.255" y="398.46"/>
      <point x="160.875" y="375.855" type="curve" smooth="yes"/>
      <point x="180.069" y="363.683"/>
      <point x="209.502" y="348.631"/>
      <point x="233.43" y="348.631" type="curve" smooth="yes"/>
      <point x="244.513" y="348.631"/>
      <point x="254.414" y="351.86"/>
      <point x="261.569" y="360.101" type="curve" smooth="yes"/>
      <point x="284.175" y="386.13"/>
      <point x="315" y="427.915"/>
      <point x="315" y="456" type="curve" smooth="yes"/>
      <point x="315" y="498.47"/>
      <point x="190.329" y="599.165"/>
      <point x="171.149" y="652.595" type="curve" smooth="yes"/>
      <point x="160.875" y="682.735"/>
      <point x="154.71" y="722.465"/>
      <point x="151.97" y="740.275" type="curve"/>
      <point x="189.645" y="748.495" type="line"/>
      <point x="196.494" y="730"/>
      <point x="206.085" y="699.86"/>
    </contour>
    <contour>
      <point x="220" y="0" type="line"/>
      <point x="568" y="732" type="line"/>
      <point x="633" y="732" type="line"/>
      <point x="285" y="0" type="line"/>
    </contour>
  </outline>
</glyph>
<glyph name="onehalf" format="1">
  <advance width="900"/>
  <unicode hex="00BD"/>
  <outline>
    <contour>
      <point x="808.632" y="242.888" type="curve" smooth="yes"/>
      <point x="775.724" y="212.126"/>
      <point x="655.536" y="174.209"/>
      <point x="655.536" y="174.209" type="curve" smooth="yes"/>
      <point x="677.714" y="159.186"/>
      <point x="844.402" y="46.8691"/>
      <point x="844.402" y="46.8691" type="curve" smooth="yes"/>
      <point x="822.939" y="6.80664" type="line"/>
      <point x="822.939" y="6.80664"/>
      <point x="669.128" y="81.9229"/>
      <point x="523.902" y="200.68" type="curve" smooth="yes"/>
      <point x="552.519" y="245.749" type="line"/>
      <point x="598.304" y="215.703" type="line"/>
      <point x="598.304" y="215.703"/>
      <point x="726.36" y="247.896"/>
      <point x="759.984" y="276.513" type="curve" smooth="yes"/>
      <point x="770.985" y="286.046"/>
      <point x="775.387" y="296.666"/>
      <point x="775.387" y="307.174" type="curve" smooth="yes"/>
      <point x="775.387" y="327.415"/>
      <point x="759.053" y="347.236"/>
      <point x="742.099" y="358.067" type="curve" smooth="yes"/>
      <point x="719.922" y="372.375"/>
      <point x="563.965" y="475.393"/>
      <point x="563.965" y="475.393" type="curve" smooth="yes"/>
      <point x="583.996" y="509.018" type="line"/>
      <point x="583.996" y="509.018"/>
      <point x="709.906" y="448.924"/>
      <point x="770" y="406" type="curve" smooth="yes"/>
      <point x="793.055" y="389.46"/>
      <point x="839.634" y="349.396"/>
      <point x="839.634" y="303.519" type="curve" smooth="yes"/>
      <point x="839.634" y="283.91"/>
      <point x="831.124" y="263.238"/>
    </contour>
    <contour>
      <point x="219.784" y="672.46" type="curve" smooth="yes"/>
      <point x="236.909" y="638.896"/>
      <point x="374.595" y="512.17"/>
      <point x="374.595" y="463.535" type="curve" smooth="yes"/>
      <point x="374.595" y="414.9"/>
      <point x="336.234" y="364.21"/>
      <point x="310.89" y="329.275" type="curve" smooth="yes"/>
      <point x="291.049" y="302.49"/>
      <point x="263.387" y="290.871"/>
      <point x="233.374" y="290.871" type="curve" smooth="yes"/>
      <point x="201.215" y="290.871"/>
      <point x="166.355" y="304.213"/>
      <point x="135.529" y="326.535" type="curve" smooth="yes"/>
      <point x="97.8545" y="353.936"/>
      <point x="75.25" y="375.17"/>
      <point x="55.3848" y="391.61" type="curve"/>
      <point x="83.4697" y="427.23" type="line"/>
      <point x="106.074" y="410.79"/>
      <point x="125.255" y="398.46"/>
      <point x="160.875" y="375.855" type="curve" smooth="yes"/>
      <point x="180.069" y="363.683"/>
      <point x="209.502" y="348.631"/>
      <point x="233.43" y="348.631" type="curve" smooth="yes"/>
      <point x="244.513" y="348.631"/>
      <point x="254.414" y="351.86"/>
      <point x="261.569" y="360.101" type="curve" smooth="yes"/>
      <point x="284.175" y="386.13"/>
      <point x="315" y="427.915"/>
      <point x="315" y="456" type="curve" smooth="yes"/>
      <point x="315" y="498.47"/>
      <point x="190.329" y="599.165"/>
      <point x="171.149" y="652.595" type="curve" smooth="yes"/>
      <point x="160.875" y="682.735"/>
      <point x="154.71" y="722.465"/>
      <point x="151.97" y="740.275" type="curve"/>
      <point x="189.645" y="748.495" type="line"/>
      <point x="196.494" y="730"/>
      <point x="206.085" y="699.86"/>
    </contour>
    <contour>
      <point x="215" y="0" type="line"/>
      <point x="563" y="732" type="line"/>
      <point x="628" y="732" type="line"/>
      <point x="280" y="0" type="line"/>
    </contour>
  </outline>
</glyph>
<glyph name="threequarters" format="1">
  <advance width="995"/>
  <unicode hex="00BE"/>
  <outline>
    <contour>
      <point x="382.069" y="721.26" type="curve" smooth="yes"/>
      <point x="487.099" y="721.26"/>
      <point x="520.429" y="656.134"/>
      <point x="520.429" y="590.768" type="curve" smooth="yes"/>
      <point x="520.429" y="586.915"/>
      <point x="520.313" y="583.061"/>
      <point x="520.09" y="579.22" type="curve" smooth="yes"/>
      <point x="518.75" y="559.79"/>
      <point x="515.399" y="539.689"/>
      <point x="509.369" y="520.93" type="curve" smooth="yes"/>
      <point x="492.619" y="469.34"/>
      <point x="442.369" y="368.17"/>
      <point x="366.659" y="329.979" type="curve" smooth="yes"/>
      <point x="349.239" y="321.27"/>
      <point x="329.81" y="315.239"/>
      <point x="309.04" y="315.239" type="curve" smooth="yes"/>
      <point x="266.159" y="315.239"/>
      <point x="220.6" y="336.01"/>
      <point x="163.649" y="401" type="curve" smooth="yes"/>
      <point x="139.529" y="428.47"/>
      <point x="56.4492" y="553.09"/>
      <point x="37.6895" y="591.279" type="curve"/>
      <point x="65.1592" y="614.729" type="line"/>
      <point x="201.84" y="445.89" type="line" smooth="yes"/>
      <point x="245.39" y="391.62"/>
      <point x="274.199" y="372.859"/>
      <point x="307.699" y="372.859" type="curve" smooth="yes"/>
      <point x="321.77" y="372.859"/>
      <point x="335.17" y="376.88"/>
      <point x="347.899" y="383.58" type="curve" smooth="yes"/>
      <point x="402.84" y="412.39"/>
      <point x="449.739" y="505.52"/>
      <point x="460.46" y="539.02" type="curve" smooth="yes"/>
      <point x="465.819" y="557.779"/>
      <point x="469.17" y="574.529"/>
      <point x="469.17" y="588.6" type="curve" smooth="yes"/>
      <point x="469.17" y="642.199"/>
      <point x="432.319" y="669"/>
      <point x="368" y="669" type="curve" smooth="yes"/>
      <point x="329.14" y="669"/>
      <point x="200.5" y="655.6"/>
      <point x="200.5" y="655.6" type="curve"/>
      <point x="193.13" y="697.81" type="line"/>
      <point x="193.13" y="697.81"/>
      <point x="317.75" y="721.26"/>
    </contour>
    <contour>
      <point x="840.38" y="268.774" type="line" smooth="yes"/>
      <point x="858.189" y="268.774"/>
      <point x="876" y="275.625"/>
      <point x="876" y="298.915" type="curve" smooth="yes"/>
      <point x="876" y="355.77" type="line" smooth="yes"/>
      <point x="875.314" y="380.43"/>
      <point x="862.984" y="387.28"/>
      <point x="841.064" y="387.28" type="curve" smooth="yes"/>
      <point x="708.175" y="387.28" type="line" smooth="yes"/>
      <point x="686.255" y="387.28"/>
      <point x="673.239" y="380.43"/>
      <point x="672.555" y="355.77" type="curve" smooth="yes"/>
      <point x="672.555" y="298.229" type="line" smooth="yes"/>
      <point x="672.555" y="275.625"/>
      <point x="690.364" y="268.774"/>
      <point x="708.175" y="268.774" type="curve" smooth="yes"/>
    </contour>
    <contour>
      <point x="846.545" y="435.915" type="curve" smooth="yes"/>
      <point x="889.015" y="435.915"/>
      <point x="930.8" y="427.01"/>
      <point x="930.8" y="355.77" type="curve" smooth="yes"/>
      <point x="930.8" y="313.3" type="line" smooth="yes"/>
      <point x="930.8" y="290.01"/>
      <point x="930.114" y="258.5"/>
      <point x="902.715" y="248.91" type="curve"/>
      <point x="931.484" y="240.005"/>
      <point x="949.295" y="224.25"/>
      <point x="949.979" y="192.055" type="curve" smooth="yes"/>
      <point x="949.979" y="85.8799" type="line" smooth="yes"/>
      <point x="949.979" y="85.1953"/>
      <point x="949.979" y="83.8252"/>
      <point x="949.979" y="83.1396" type="curve" smooth="yes"/>
      <point x="949.979" y="19.4346"/>
      <point x="926.689" y="0.254883"/>
      <point x="857.505" y="0.254883" type="curve" smooth="yes"/>
      <point x="693.104" y="0.254883" type="line" smooth="yes"/>
      <point x="636.25" y="0.254883"/>
      <point x="600.63" y="15.3252"/>
      <point x="600.63" y="84.5098" type="curve" smooth="yes"/>
      <point x="600.63" y="188.63" type="line" smooth="yes"/>
      <point x="600.63" y="220.825"/>
      <point x="619.81" y="240.689"/>
      <point x="648.579" y="249.595" type="curve"/>
      <point x="621.18" y="259.185"/>
      <point x="620.494" y="290.01"/>
      <point x="620.494" y="313.3" type="curve" smooth="yes"/>
      <point x="620.494" y="357.14" type="line" smooth="yes"/>
      <point x="620.494" y="424.27"/>
      <point x="662.279" y="436.6"/>
      <point x="710.229" y="436.6" type="curve" smooth="yes"/>
      <point x="749.274" y="436.6"/>
      <point x="806.13" y="435.915"/>
    </contour>
    <contour>
      <point x="652.689" y="85.1953" type="line" smooth="yes"/>
      <point x="652.689" y="55.7402"/>
      <point x="675.979" y="53"/>
      <point x="699.27" y="53" type="curve" smooth="yes"/>
      <point x="848.6" y="53" type="line" smooth="yes"/>
      <point x="886.274" y="53"/>
      <point x="895.18" y="66.7002"/>
      <point x="895.18" y="85.8799" type="curve" smooth="yes"/>
      <point x="895.18" y="85.8799"/>
      <point x="895.18" y="96.8398"/>
      <point x="895.18" y="110.54" type="curve" smooth="yes"/>
      <point x="895.18" y="137.939"/>
      <point x="895.18" y="179.04"/>
      <point x="895.18" y="179.04" type="curve" smooth="yes"/>
      <point x="895.18" y="201.645"/>
      <point x="884.904" y="213.975"/>
      <point x="848.6" y="213.975" type="curve" smooth="yes"/>
      <point x="699.27" y="213.975" type="line" smooth="yes"/>
      <point x="670.5" y="213.975"/>
      <point x="652.689" y="208.495"/>
      <point x="652.689" y="177.67" type="curve" smooth="yes"/>
    </contour>
    <contour>
      <point x="319" y="0" type="line"/>
      <point x="667" y="732" type="line"/>
      <point x="732" y="732" type="line"/>
      <point x="384" y="0" type="line"/>
    </contour>
  </outline>
</glyph>
<glyph name="questiondown" format="1">
  <advance width="543"/>
  <unicode hex="00BF"/>
  <outline>
    <contour>
      <point x="340" y="-268" type="curve" smooth="yes"/>
      <point x="271" y="-270" type="line" smooth="yes"/>
      <point x="257" y="-270"/>
      <point x="248" y="-269.667"/>
      <point x="244" y="-269" type="curve" smooth="yes"/>
      <point x="240" y="-268.333"/>
      <point x="237.667" y="-268"/>
      <point x="237" y="-268" type="curve" smooth="yes"/>
      <point x="105.667" y="-268"/>
      <point x="40" y="-205.333"/>
      <point x="40" y="-80" type="curve" smooth="yes"/>
      <point x="40" y="22" type="line" smooth="yes"/>
      <point x="39.3333" y="79.3333"/>
      <point x="62" y="122"/>
      <point x="108" y="150" type="curve" smooth="yes"/>
      <point x="141.333" y="169.333"/>
      <point x="180.667" y="179"/>
      <point x="226" y="179" type="curve" smooth="yes"/>
      <point x="243.333" y="179"/>
      <point x="261.667" y="177.667"/>
      <point x="281" y="175" type="curve"/>
      <point x="281" y="276" type="line"/>
      <point x="358" y="276" type="line"/>
      <point x="359" y="114" type="line"/>
      <point x="327.667" y="114.667"/>
      <point x="300" y="115"/>
      <point x="276" y="115" type="curve" smooth="yes"/>
      <point x="252" y="115"/>
      <point x="230" y="114.667"/>
      <point x="210" y="114" type="curve" smooth="yes"/>
      <point x="190" y="113.333"/>
      <point x="171.667" y="103.333"/>
      <point x="155" y="84" type="curve" smooth="yes"/>
      <point x="138.333" y="64.6667"/>
      <point x="129" y="41.6667"/>
      <point x="127" y="15" type="curve" smooth="yes"/>
      <point x="126.333" y="-38.3333"/>
      <point x="126" y="-71.6667"/>
      <point x="126" y="-85" type="curve" smooth="yes"/>
      <point x="126" y="-115"/>
      <point x="135.833" y="-140.667"/>
      <point x="155.5" y="-162" type="curve" smooth="yes"/>
      <point x="175.167" y="-183.333"/>
      <point x="204.333" y="-194"/>
      <point x="243" y="-194" type="curve" smooth="yes"/>
      <point x="246" y="-194"/>
      <point x="246" y="-194"/>
      <point x="250" y="-194" type="curve" smooth="yes"/>
      <point x="523" y="-193" type="line" smooth="yes"/>
      <point x="521" y="-193"/>
      <point x="520.333" y="-201.833"/>
      <point x="521" y="-219.5" type="curve" smooth="yes"/>
      <point x="521.667" y="-237.167"/>
      <point x="521.667" y="-246.667"/>
      <point x="521" y="-248" type="curve" smooth="yes"/>
      <point x="487.667" y="-253.333"/>
      <point x="462.167" y="-256.833"/>
      <point x="444.5" y="-258.5" type="curve" smooth="yes"/>
      <point x="426.833" y="-260.167"/>
      <point x="406.833" y="-262.167"/>
      <point x="384.5" y="-264.5" type="curve" smooth="yes"/>
      <point x="362.167" y="-266.833"/>
      <point x="347.333" y="-268"/>
    </contour>
    <contour>
      <point x="270" y="445" type="line" smooth="yes"/>
      <point x="270" y="451.667"/>
      <point x="272.5" y="457.5"/>
      <point x="277.5" y="462.5" type="curve" smooth="yes"/>
      <point x="282.5" y="467.5"/>
      <point x="288" y="470.333"/>
      <point x="294" y="471" type="curve" smooth="yes"/>
      <point x="343" y="471" type="line" smooth="yes"/>
      <point x="359" y="469.667"/>
      <point x="367" y="462"/>
      <point x="367" y="448" type="curve" smooth="yes"/>
      <point x="367" y="394" type="line" smooth="yes"/>
      <point x="365.667" y="378"/>
      <point x="358.667" y="369.667"/>
      <point x="346" y="369" type="curve" smooth="yes"/>
      <point x="290" y="369" type="line"/>
      <point x="278" y="373"/>
      <point x="271.333" y="381.333"/>
      <point x="270" y="394" type="curve" smooth="yes"/>
    </contour>
  </outline>
</glyph>
<glyph name="Acircumflex" format="1">
  <advance width="670"/>
  <unicode hex="00C2"/>
  <outline>
    <contour>
      <point x="205" y="797" type="line"/>
      <point x="322" y="927" type="line"/>
      <point x="393" y="927" type="line"/>
      <point x="497" y="797" type="line"/>
      <point x="426" y="797" type="line"/>
      <point x="355" y="868" type="line"/>
      <point x="277" y="797" type="line"/>
    </contour>
    <contour>
      <point x="45" y="0" type="line"/>
      <point x="314" y="732" type="line"/>
      <point x="388" y="732" type="line"/>
      <point x="645" y="0" type="line"/>
      <point x="557" y="0" type="line"/>
      <point x="494" y="204" type="line"/>
      <point x="202" y="204" type="line"/>
      <point x="136" y="0" type="line"/>
    </contour>
    <contour>
      <point x="229" y="278" type="line"/>
      <point x="468" y="278" type="line"/>
      <point x="350" y="619" type="line"/>
    </contour>
  </outline>
</glyph>
<glyph name="Atilde" format="1">
  <advance width="670"/>
  <unicode hex="00C3"/>
  <outline>
    <contour>
      <point x="408" y="867" type="curve" smooth="yes"/>
      <point x="423.333" y="867"/>
      <point x="453.333" y="879"/>
      <point x="498" y="903" type="curve"/>
      <point x="520" y="861" type="line" smooth="yes"/>
      <point x="518" y="859.667"/>
      <point x="510" y="853.333"/>
      <point x="496" y="842" type="curve" smooth="yes"/>
      <point x="460" y="812.667"/>
      <point x="431" y="798"/>
      <point x="409" y="798" type="curve" smooth="yes"/>
      <point x="389" y="798"/>
      <point x="368.333" y="803.667"/>
      <point x="347" y="815" type="curve" smooth="yes"/>
      <point x="325.667" y="826.333"/>
      <point x="308.833" y="832"/>
      <point x="296.5" y="832" type="curve" smooth="yes"/>
      <point x="284.167" y="832"/>
      <point x="273.167" y="830.167"/>
      <point x="263.5" y="826.5" type="curve" smooth="yes"/>
      <point x="253.833" y="822.833"/>
      <point x="243.5" y="817.833"/>
      <point x="232.5" y="811.5" type="curve" smooth="yes"/>
      <point x="221.5" y="805.167"/>
      <point x="211.667" y="800.333"/>
      <point x="203" y="797" type="curve"/>
      <point x="182" y="838" type="line"/>
      <point x="200" y="852.667"/>
      <point x="213.5" y="863.5"/>
      <point x="222.5" y="870.5" type="curve" smooth="yes"/>
      <point x="231.5" y="877.5"/>
      <point x="243.5" y="884.5"/>
      <point x="258.5" y="891.5" type="curve" smooth="yes"/>
      <point x="273.5" y="898.5"/>
      <point x="288.833" y="901.667"/>
      <point x="304.5" y="901" type="curve" smooth="yes"/>
      <point x="320.167" y="900.333"/>
      <point x="339.167" y="894.5"/>
      <point x="361.5" y="883.5" type="curve" smooth="yes"/>
      <point x="383.833" y="872.5"/>
      <point x="397.167" y="867"/>
      <point x="401.5" y="867" type="curve" smooth="yes"/>
      <point x="408" y="867"/>
      <point x="408" y="867"/>
    </contour>
    <contour>
      <point x="45" y="0" type="line"/>
      <point x="314" y="732" type="line"/>
      <point x="388" y="732" type="line"/>
      <point x="645" y="0" type="line"/>
      <point x="557" y="0" type="line"/>
      <point x="494" y="204" type="line"/>
      <point x="202" y="204" type="line"/>
      <point x="136" y="0" type="line"/>
    </contour>
    <contour>
      <point x="229" y="278" type="line"/>
      <point x="468" y="278" type="line"/>
      <point x="350" y="619" type="line"/>
    </contour>
  </outline>
</glyph>
<glyph name="Adieresis" format="1">
  <advance width="670"/>
  <unicode hex="00C4"/>
  <outline>
    <contour>
      <point x="173" y="848" type="curve" smooth="yes"/>
      <point x="173" y="862"/>
      <point x="178" y="873.833"/>
      <point x="188" y="883.5" type="curve" smooth="yes"/>
      <point x="198" y="893.167"/>
      <point x="210" y="898"/>
      <point x="224" y="898" type="curve" smooth="yes"/>
      <point x="238" y="898"/>
      <point x="249.833" y="893.167"/>
      <point x="259.5" y="883.5" type="curve" smooth="yes"/>
      <point x="269.167" y="873.833"/>
      <point x="274" y="862"/>
      <point x="274" y="848" type="curve" smooth="yes"/>
      <point x="274" y="834"/>
      <point x="269.167" y="822"/>
      <point x="259.5" y="812" type="curve" smooth="yes"/>
      <point x="249.833" y="802"/>
      <point x="238" y="797"/>
      <point x="224" y="797" type="curve" smooth="yes"/>
      <point x="210" y="797"/>
      <point x="198" y="802"/>
      <point x="188" y="812" type="curve" smooth="yes"/>
      <point x="178" y="822"/>
      <point x="173" y="834"/>
    </contour>
    <contour>
      <point x="428" y="848" type="curve" smooth="yes"/>
      <point x="428" y="862"/>
      <point x="433" y="873.833"/>
      <point x="443" y="883.5" type="curve" smooth="yes"/>
      <point x="453" y="893.167"/>
      <point x="465" y="898"/>
      <point x="479" y="898" type="curve" smooth="yes"/>
      <point x="493" y="898"/>
      <point x="504.833" y="893.167"/>
      <point x="514.5" y="883.5" type="curve" smooth="yes"/>
      <point x="524.167" y="873.833"/>
      <point x="529" y="862"/>
      <point x="529" y="848" type="curve" smooth="yes"/>
      <point x="529" y="834"/>
      <point x="524.167" y="822"/>
      <point x="514.5" y="812" type="curve" smooth="yes"/>
      <point x="504.833" y="802"/>
      <point x="493" y="797"/>
      <point x="479" y="797" type="curve" smooth="yes"/>
      <point x="465" y="797"/>
      <point x="453" y="802"/>
      <point x="443" y="812" type="curve" smooth="yes"/>
      <point x="433" y="822"/>
      <point x="428" y="834"/>
    </contour>
    <contour>
      <point x="45" y="0" type="line"/>
      <point x="314" y="732" type="line"/>
      <point x="388" y="732" type="line"/>
      <point x="645" y="0" type="line"/>
      <point x="557" y="0" type="line"/>
      <point x="494" y="204" type="line"/>
      <point x="202" y="204" type="line"/>
      <point x="136" y="0" type="line"/>
    </contour>
    <contour>
      <point x="229" y="278" type="line"/>
      <point x="468" y="278" type="line"/>
      <point x="350" y="619" type="line"/>
    </contour>
  </outline>
</glyph>
<glyph name="Aring" format="1">
  <advance width="670"/>
  <unicode hex="00C5"/>
  <outline>
    <contour>
      <point x="263.5" y="780.5" type="curve" smooth="yes"/>
      <point x="272.5" y="764.833"/>
      <point x="284.833" y="752.5"/>
      <point x="300.5" y="743.5" type="curve" smooth="yes"/>
      <point x="316.167" y="734.5"/>
      <point x="333.167" y="730"/>
      <point x="351.5" y="730" type="curve" smooth="yes"/>
      <point x="369.833" y="730"/>
      <point x="386.833" y="734.5"/>
      <point x="402.5" y="743.5" type="curve" smooth="yes"/>
      <point x="418.167" y="752.5"/>
      <point x="430.333" y="764.833"/>
      <point x="439" y="780.5" type="curve" smooth="yes"/>
      <point x="447.667" y="796.167"/>
      <point x="452" y="815.833"/>
      <point x="452" y="839.5" type="curve" smooth="yes"/>
      <point x="452" y="863.167"/>
      <point x="442.167" y="885"/>
      <point x="422.5" y="905" type="curve" smooth="yes"/>
      <point x="402.833" y="925"/>
      <point x="379" y="935"/>
      <point x="351" y="935" type="curve" smooth="yes"/>
      <point x="323" y="935"/>
      <point x="299.167" y="925"/>
      <point x="279.5" y="905" type="curve" smooth="yes"/>
      <point x="259.833" y="885"/>
      <point x="250" y="863.167"/>
      <point x="250" y="839.5" type="curve" smooth="yes"/>
      <point x="250" y="815.833"/>
      <point x="254.5" y="796.167"/>
    </contour>
    <contour>
      <point x="296" y="832.5" type="curve" smooth="yes"/>
      <point x="296" y="847.5"/>
      <point x="301.5" y="860.333"/>
      <point x="312.5" y="871" type="curve" smooth="yes"/>
      <point x="323.5" y="881.667"/>
      <point x="336.5" y="887"/>
      <point x="351.5" y="887" type="curve" smooth="yes"/>
      <point x="366.5" y="887"/>
      <point x="379.333" y="881.667"/>
      <point x="390" y="871" type="curve" smooth="yes"/>
      <point x="400.667" y="860.333"/>
      <point x="406" y="847.5"/>
      <point x="406" y="832.5" type="curve" smooth="yes"/>
      <point x="406" y="817.5"/>
      <point x="400.667" y="804.667"/>
      <point x="390" y="794" type="curve" smooth="yes"/>
      <point x="379.333" y="783.333"/>
      <point x="366.5" y="778"/>
      <point x="351.5" y="778" type="curve" smooth="yes"/>
      <point x="336.5" y="778"/>
      <point x="323.5" y="783.333"/>
      <point x="312.5" y="794" type="curve" smooth="yes"/>
      <point x="301.5" y="804.667"/>
      <point x="296" y="817.5"/>
    </contour>
    <contour>
      <point x="45" y="0" type="line"/>
      <point x="314" y="732" type="line"/>
      <point x="388" y="732" type="line"/>
      <point x="645" y="0" type="line"/>
      <point x="557" y="0" type="line"/>
      <point x="494" y="204" type="line"/>
      <point x="202" y="204" type="line"/>
      <point x="136" y="0" type="line"/>
    </contour>
    <contour>
      <point x="229" y="278" type="line"/>
      <point x="468" y="278" type="line"/>
      <point x="350" y="619" type="line"/>
    </contour>
  </outline>
</glyph>
<glyph name="AE" format="1">
  <advance width="921"/>
  <unicode hex="00C6"/>
  <outline>
    <contour>
      <point x="512" y="733" type="curve" smooth="yes"/>
      <point x="556" y="732" type="line"/>
      <point x="876" y="716" type="line"/>
      <point x="876" y="657" type="line"/>
      <point x="556" y="657" type="line" smooth="yes"/>
      <point x="532.667" y="657"/>
      <point x="518.667" y="651.333"/>
      <point x="514" y="640" type="curve" smooth="yes"/>
      <point x="510" y="631.333"/>
      <point x="507.333" y="619.333"/>
      <point x="506" y="604" type="curve" smooth="yes"/>
      <point x="506" y="397" type="line"/>
      <point x="836" y="387" type="line"/>
      <point x="836" y="328" type="line"/>
      <point x="506" y="318" type="line"/>
      <point x="506" y="121" type="line" smooth="yes"/>
      <point x="506" y="101"/>
      <point x="510" y="88.1667"/>
      <point x="518" y="82.5" type="curve" smooth="yes"/>
      <point x="526" y="76.8333"/>
      <point x="533" y="74"/>
      <point x="539" y="74" type="curve" smooth="yes"/>
      <point x="557" y="74" type="line"/>
      <point x="568" y="74" type="line"/>
      <point x="875" y="73" type="line"/>
      <point x="875" y="12" type="line"/>
      <point x="568" y="-5" type="line" smooth="yes"/>
      <point x="560" y="-5"/>
      <point x="560" y="-5"/>
      <point x="553" y="-5" type="curve" smooth="yes"/>
      <point x="472.333" y="-5"/>
      <point x="432" y="37"/>
      <point x="432" y="121" type="curve" smooth="yes"/>
      <point x="432" y="227" type="line"/>
      <point x="222" y="227" type="line"/>
      <point x="111" y="0" type="line"/>
      <point x="30" y="0" type="line"/>
      <point x="328" y="604" type="line" smooth="yes"/>
      <point x="345.333" y="639.333"/>
      <point x="360" y="662.667"/>
      <point x="372" y="674" type="curve" smooth="yes"/>
      <point x="384" y="685.333"/>
      <point x="393.333" y="694.333"/>
      <point x="400" y="701" type="curve" smooth="yes"/>
      <point x="406.667" y="707.667"/>
      <point x="415.167" y="712.833"/>
      <point x="425.5" y="716.5" type="curve" smooth="yes"/>
      <point x="435.833" y="720.167"/>
      <point x="444" y="723.333"/>
      <point x="450" y="726" type="curve" smooth="yes"/>
      <point x="456" y="728.667"/>
      <point x="464.833" y="730.333"/>
      <point x="476.5" y="731" type="curve" smooth="yes"/>
      <point x="488.167" y="731.667"/>
      <point x="495.833" y="732.167"/>
      <point x="499.5" y="732.5" type="curve" smooth="yes"/>
      <point x="503.167" y="732.833"/>
      <point x="507.333" y="733"/>
    </contour>
    <contour>
      <point x="432" y="301" type="line"/>
      <point x="432" y="652" type="line"/>
      <point x="259" y="301" type="line"/>
    </contour>
  </outline>
</glyph>
<glyph name="Eacute" format="1">
  <advance width="567"/>
  <unicode hex="00C9"/>
  <outline>
    <contour>
      <point x="287" y="792" type="line"/>
      <point x="394" y="925" type="line"/>
      <point x="489" y="925" type="line"/>
      <point x="356" y="792" type="line"/>
    </contour>
    <contour>
      <point x="80" y="602" type="line" smooth="yes"/>
      <point x="80" y="648"/>
      <point x="91.5" y="681.167"/>
      <point x="114.5" y="701.5" type="curve" smooth="yes"/>
      <point x="137.5" y="721.833"/>
      <point x="166" y="732"/>
      <point x="200" y="732" type="curve" smooth="yes"/>
      <point x="203" y="732"/>
      <point x="203" y="732"/>
      <point x="206" y="732" type="curve" smooth="yes"/>
      <point x="522" y="716" type="line"/>
      <point x="522" y="658" type="line"/>
      <point x="206" y="658" type="line" smooth="yes"/>
      <point x="190" y="658"/>
      <point x="177.833" y="654.833"/>
      <point x="169.5" y="648.5" type="curve" smooth="yes"/>
      <point x="161.167" y="642.167"/>
      <point x="156.5" y="635.833"/>
      <point x="155.5" y="629.5" type="curve" smooth="yes"/>
      <point x="154.5" y="623.167"/>
      <point x="154" y="614"/>
      <point x="154" y="602" type="curve" smooth="yes"/>
      <point x="154" y="402" type="line"/>
      <point x="482" y="392" type="line"/>
      <point x="482" y="333" type="line"/>
      <point x="154" y="323" type="line"/>
      <point x="154" y="123" type="line" smooth="yes"/>
      <point x="154" y="106.333"/>
      <point x="157.667" y="94"/>
      <point x="165" y="86" type="curve" smooth="yes"/>
      <point x="172.333" y="78"/>
      <point x="179.333" y="73.5"/>
      <point x="186" y="72.5" type="curve" smooth="yes"/>
      <point x="192.667" y="71.5"/>
      <point x="202.667" y="71"/>
      <point x="216" y="71" type="curve" smooth="yes"/>
      <point x="522" y="71" type="line"/>
      <point x="522" y="14" type="line"/>
      <point x="216" y="-3" type="line" smooth="yes"/>
      <point x="208" y="-3"/>
      <point x="208" y="-3"/>
      <point x="201" y="-3" type="curve" smooth="yes"/>
      <point x="120.333" y="-3"/>
      <point x="80" y="39"/>
      <point x="80" y="123" type="curve" smooth="yes"/>
    </contour>
  </outline>
</glyph>
